<svg xmlns="http://www.w3.org/2000/svg" width="45" height="45" viewBox="0 0 45 45" fill="none" id="svg-231833242_2830">
<mask id="svg-231833242_2830_mask0_12839_49365" style="mask-type:luminance" maskUnits="userSpaceOnUse" x="0" y="0" width="45" height="45">
<path fill-rule="evenodd" clip-rule="evenodd" d="M7.5572 0.420898C3.61566 0.420898 0.42041 3.61615 0.42041 7.55769V37.443C0.42041 38.398 0.607978 39.309 0.948283 40.1416C1.18394 40.7181 1.95252 40.6764 2.23826 40.1231C10.0746 24.9458 25.6762 14.4297 43.7884 13.8295C44.2265 13.815 44.5793 13.4584 44.5793 13.0203V7.55769C44.5793 3.61615 41.384 0.420898 37.4425 0.420898H7.5572ZM44.5793 19.5353C44.5793 19.0859 44.2088 18.7233 43.7597 18.7402C27.1261 19.3645 12.8728 29.2923 6.05232 43.4709C5.83835 43.9158 6.08504 44.4453 6.57402 44.5126C6.89542 44.5568 7.22364 44.5798 7.5572 44.5798H37.4425C41.384 44.5798 44.5793 41.3845 44.5793 37.443V19.5353Z" fill="white"></path>
</mask>
<g mask="url(#svg-231833242_2830_mask0_12839_49365)">
<path d="M5.23769 7.55764C5.23769 6.27663 6.27614 5.23818 7.55715 5.23818V-4.39648C0.95507 -4.39648 -4.39697 0.955556 -4.39697 7.55764H5.23769ZM5.23769 37.4429V7.55764H-4.39697V37.4429H5.23769ZM5.40741 38.319C5.29954 38.0549 5.23769 37.7621 5.23769 37.4429H-4.39697C-4.39697 39.0336 -4.08369 40.5633 -3.51094 41.9643L5.40741 38.319ZM43.6289 9.01475C23.7095 9.67488 6.56525 21.2421 -2.04223 37.9129L6.51866 42.333C13.5838 28.6493 27.6427 19.1845 43.9481 18.6441L43.6289 9.01475ZM39.7619 7.55764V13.0203H49.3966V7.55764H39.7619ZM37.4425 5.23818C38.7235 5.23818 39.7619 6.27663 39.7619 7.55764H49.3966C49.3966 0.955558 44.0444 -4.39648 37.4425 -4.39648V5.23818ZM7.55715 5.23818H37.4425V-4.39648H7.55715V5.23818ZM43.579 13.9262C25.0989 14.6198 9.27879 25.6507 1.71109 41.3827L10.3934 45.5593C16.4667 32.9338 29.1533 24.1092 43.9403 23.5541L43.579 13.9262ZM7.55715 39.7624C7.44416 39.7624 7.33564 39.7546 7.23153 39.7403L5.91642 49.2849C6.45507 49.3589 7.003 49.3971 7.55715 49.3971V39.7624ZM37.4425 39.7624H7.55715V49.3971H37.4425V39.7624ZM39.7619 37.4429C39.7619 38.724 38.7235 39.7624 37.4425 39.7624V49.3971C44.0444 49.3971 49.3966 44.0449 49.3966 37.4429H39.7619ZM39.7619 19.5352V37.4429H49.3966V19.5352H39.7619ZM43.9403 23.5541C41.6141 23.6413 39.7619 21.7713 39.7619 19.5352H49.3966C49.3966 16.4004 46.8032 13.8051 43.579 13.9262L43.9403 23.5541ZM43.9481 18.6441C46.9197 18.5456 49.3966 16.1195 49.3966 13.0203H39.7619C39.7619 10.7972 41.5329 9.0842 43.6289 9.01475L43.9481 18.6441ZM1.71109 41.3827C0.262438 44.3942 1.78698 48.7157 5.91642 49.2849L7.23153 39.7403C10.383 40.1745 11.4142 43.4372 10.3934 45.5593L1.71109 41.3827ZM-3.51094 41.9643C-2.57995 44.2421 -0.404303 45.4335 1.7157 45.3712C3.71319 45.3126 5.56741 44.1754 6.51866 42.333L-2.04223 37.9129C-1.37672 36.624 -0.0496602 35.7843 1.43319 35.7408C3.03856 35.6938 4.71209 36.6177 5.40741 38.319L-3.51094 41.9643Z" fill="#7269F8"></path>
</g>
</svg>