<?xml version="1.0" encoding="utf-8"?>
<!-- Generator: Adobe Illustrator 27.0.0, SVG Export Plug-In . SVG Version: 6.00 Build 0)  -->
<svg version="1.1" id="Layer_1" xmlns="http://www.w3.org/2000/svg" xmlns:xlink="http://www.w3.org/1999/xlink" x="0px" y="0px"
	 viewBox="0 0 512 512" style="enable-background:new 0 0 512 512;" xml:space="preserve">
<style type="text/css">
	.st0{fill:#023E8A;}
</style>
<g id="Layer_9">
	<path class="st0" d="M398.6,285.3c-39.4,0-76,20.4-96.6,54l-82.8-42.7c9.9-26.1,9.9-54.9,0-81l82.8-42.7
		c32.8,53.2,102.4,69.8,155.6,37s69.8-102.4,37-155.6s-102.4-69.8-155.6-37c-40.9,25.1-61.4,73.3-51.3,120.2l-87.9,45.4
		c-40.5-47.8-112-53.7-159.8-13.3s-53.7,112-13.3,159.8s112,53.7,159.8,13.3c4.8-4,9.2-8.5,13.3-13.3l87.9,45.4
		c-13.2,61.2,25.6,121.5,86.8,134.8c61.2,13.2,121.5-25.6,134.8-86.8c13.2-61.2-25.6-121.5-86.8-134.8
		C414.7,286.2,406.7,285.3,398.6,285.3L398.6,285.3z M397.9,38.7c18.4,0,33.4,14.9,33.4,33.3s-14.9,33.4-33.3,33.4
		c-18.4,0-33.4-14.9-33.4-33.3c0,0,0,0,0,0C364.6,53.6,379.5,38.7,397.9,38.7z M343.6,136.2v-0.1c0.5-4.7,2.6-9,5.9-12.3
		c3.3-3.4,7.7-5.5,12.5-6c6.9-0.7,27.9-1.1,38.5-1.1s27.8,0.4,34.7,1.1c4.7,0.5,9.1,2.6,12.4,6c3.3,3.3,5.4,7.7,5.9,12.4v0.1
		c0.3,2.9,0.5,5.9,0.5,8.8c0,3.6-0.2,7.1-0.5,10.7v0.1c-0.6,4.9-2.6,9.5-5.9,13.2c-3.2,3.8-7.6,6.4-12.4,7.5c-6.9,1.6-24,3.1-34.7,3
		c-10.7,0.3-31.7-1.4-38.6-3c-4.8-1.1-9.2-3.7-12.4-7.5c-3.3-3.7-5.3-8.3-5.9-13.2v-0.1c-0.4-3.5-0.5-7.1-0.3-10.7
		C343.1,142.1,343.2,139.2,343.6,136.2L343.6,136.2z M112.7,181.3c18.4,0,33.3,14.9,33.3,33.3S131.1,248,112.7,248
		s-33.3-14.9-33.3-33.3l0,0C79.3,196.2,94.3,181.3,112.7,181.3z M168.3,298.4v0.1c-0.6,4.9-2.6,9.5-5.9,13.2
		c-3.2,3.8-7.6,6.4-12.4,7.5c-6.9,1.5-24,3.1-34.7,3c-10.7,0.3-31.7-1.4-38.6-3c-4.8-1.1-9.2-3.7-12.4-7.5
		c-3.3-3.7-5.3-8.3-5.9-13.2v-0.1c-0.4-3.6-0.5-7.1-0.3-10.7c-0.1-2.9,0-5.9,0.3-8.8v-0.1c0.5-4.7,2.6-9,5.9-12.4
		c3.3-3.4,7.7-5.5,12.4-6c6.9-0.7,27.9-1.1,38.5-1.1s27.8,0.4,34.7,1.1c4.7,0.5,9.1,2.6,12.4,6c3.3,3.3,5.4,7.7,5.9,12.4v0.1
		c0.3,2.9,0.5,5.9,0.5,8.8C168.8,291.2,168.7,294.8,168.3,298.4L168.3,298.4z M397.9,324c18.4,0,33.4,14.9,33.4,33.3
		c0,18.4-14.9,33.4-33.3,33.4c-18.4,0-33.4-14.9-33.4-33.3c0,0,0,0,0-0.1C364.6,338.9,379.5,324,397.9,324z M453.6,441v0.1
		c-0.6,4.9-2.6,9.5-5.9,13.2c-3.2,3.8-7.6,6.4-12.4,7.5c-6.9,1.6-24,3.1-34.7,3c-10.7,0.3-31.7-1.4-38.6-3
		c-4.8-1.1-9.2-3.7-12.4-7.5c-3.3-3.7-5.3-8.3-5.9-13.2V441c-0.4-3.5-0.5-7.1-0.3-10.7c-0.1-2.9,0-5.9,0.3-8.8v-0.1
		c0.5-4.7,2.6-9,5.9-12.4c3.4-3.4,7.8-5.5,12.5-6c6.9-0.7,27.9-1.1,38.5-1.1s27.8,0.4,34.7,1.1c4.7,0.5,9.1,2.6,12.4,6
		c3.3,3.3,5.4,7.7,5.9,12.4v0.1c0.3,2.9,0.5,5.9,0.5,8.8C454.1,433.9,453.9,437.5,453.6,441L453.6,441z"/>
</g>
</svg>
