<?xml version="1.0" encoding="UTF-8"?>
<svg id="Layer_1" data-name="Layer 1" xmlns="http://www.w3.org/2000/svg" viewBox="0 0 110 110.01">
  <defs>
    <style>
      .cls-1 {
        fill: #fff;
      }

      .cls-2 {
        fill: #cd2027;
      }
    </style>
  </defs>
  <path class="cls-2" d="M110,55.01c0,30.32-24.67,55-55,55-6.52,0-12.76-1.15-18.57-3.23C15.22,99.14,0,78.82,0,55.01S15.2,10.87,36.43,3.23c5.8-2.09,12.06-3.23,18.57-3.23,30.33,0,55,24.68,55,55.01Z"/>
  <path class="cls-1" d="M28.17,22.01l28.14-11.01L36.43,3.23C15.2,10.87,0,31.2,0,55.01s15.22,44.13,36.43,51.77l19.88-7.77-28.14-11,28.14-11.01-28.14-11,28.14-11-28.14-11.01,28.14-11-28.14-11Z"/>
</svg>