<?xml version="1.0" encoding="utf-8"?>
<!-- Generator: Adobe Illustrator 27.0.0, SVG Export Plug-In . SVG Version: 6.00 Build 0)  -->
<svg version="1.1" id="svg6995" xmlns:svg="http://www.w3.org/2000/svg"
	 xmlns="http://www.w3.org/2000/svg" xmlns:xlink="http://www.w3.org/1999/xlink" x="0px" y="0px" viewBox="0 0 512 512"
	 style="enable-background:new 0 0 512 512;" xml:space="preserve">
<style type="text/css">
	.st0{fill:#023E8A;}
</style>
<g id="layer1" transform="translate(0 -280.067)">
	<path id="path9182" vector-effect="none" class="st0" d="M207.3,311.3c-10.1,0-20.3,1.2-30,3.5L112,330.2v125.3
		c11.2,4.7,24.9,8.6,40,8.6h72c17.6,0,32-14.4,32-32c0-17.6-14.4-32-32-32h-80v-8c0-22,18.1-40,40-40h116.1l-31.5-22.5
		c-16.4-11.7-34.8-16.5-51.3-17.9C214,311.4,210.7,311.3,207.3,311.3L207.3,311.3z M23.6,312.1c-4.5,0.4-7.6,3.9-7.6,8v144
		c0,4.4,3.6,8,8,8h64c4.4,0,8-3.5,8-8v-144c0-4.4-3.6-8-8-8H23.6z M184,368.1c-10.4,0-19.2,6.7-22.6,16H224c14.1,0,26.8,6.2,35.6,16
		H400c4.4,0,8,3.5,8,8c0,8.9,7.1,16,16,16c4.4,0,8,3.6,8,8v64c0,4.4-3.5,8-8,8c-8.9,0-16,7.1-16,16c0,4.4-3.6,8-8,8H224
		c-4.4,0-8-3.5-8-8c0-8.9-7-16-15.9-16c-4.4,0-8-3.6-8-8v-16h-32v56c0,13.2,10.9,24,24,24h256c13.2,0,24-10.8,24-24V392
		c0-13.2-10.8-24-24-24L184,368.1z M312,432.1c-17.6,0-32,14.4-32,31.9c0,17.6,14.4,32,32,32s32-14.4,32-32S329.6,432.1,312,432.1z
		 M424,600c-4.4,0-8,3.5-8,8c0,0,0,0.1,0,0.1v144c0,4.4,3.6,8,8,8c0,0,0.1,0,0.1,0h64c4.4,0,8-3.6,8-8c0,0,0,0,0-0.1v-144
		c0-4.4-3.5-8-8-8c0,0-0.1,0-0.1,0H424z M272,608.1c-16.7,0-31.8,13-31.8,29.5c0,16.5,12,34.5,31.8,34.5h72c11.6-1,11.6,17,0,15.9
		h-72c-28.7,0-51.9-25.9-47.5-54.8L150,612.4c-16-4.5-32.6-2.8-41.9,12.5c-9.1,15-3,34.3,11.4,43.5l116,74.3
		c32.8,23.3,73.3,19.2,91.1,14.7l73.3-15.9V616.7c-11.2-4.7-24.8-8.6-40-8.6L272,608.1z"/>
</g>
</svg>
