<?xml version="1.0" encoding="UTF-8"?>
<svg id="Layer_2" data-name="Layer 2" xmlns="http://www.w3.org/2000/svg" viewBox="0 0 267.5 267.83">
  <defs>
    <style>
      .cls-1 {
        fill: #fff;
      }
    </style>
  </defs>
  <g id="_ÎÓÈ_1" data-name="—ÎÓÈ_1">
    <path class="cls-1" d="M214.11,0H53.4C23.91,0,0,23.91,0,53.4V214.43c0,29.49,23.91,53.4,53.4,53.4h81.41v-97.63h-31v-39h31v-32.53c0-24.84,19.66-45.28,44.31-46.36,2.05-.09,4.26-.14,6.34-.14,4.6,0,9.14,.22,13.65,.66l14.7,1.42v33.95h-24.29c-7.89,0-13.71,6.69-13.71,14.64v28.36h36.85l-5.03,39h-31.82v97.63h38.3c29.49,0,53.4-23.91,53.4-53.4V53.4c0-29.49-23.91-53.4-53.4-53.4Z"/>
  </g>
</svg>