<?xml version="1.0" encoding="utf-8"?>
<!-- Generator: Adobe Illustrator 27.0.0, SVG Export Plug-In . SVG Version: 6.00 Build 0)  -->
<svg version="1.1" id="Layer_1" xmlns="http://www.w3.org/2000/svg" xmlns:xlink="http://www.w3.org/1999/xlink" x="0px" y="0px"
	 viewBox="0 0 512 512" style="enable-background:new 0 0 512 512;" xml:space="preserve">
<style type="text/css">
	.st0{fill-rule:evenodd;clip-rule:evenodd;fill:#023E8A;}
</style>
<path class="st0" d="M348.3,459.8V270.6L512,176.1V358c0,4.6-2.3,8.6-6.3,10.9L348.3,459.8z M151.4,365.7H19.4
	C8.7,365.7,0,357.1,0,346.4S8.7,327,19.4,327h131.4c22.7,0,22.7-36.3,0-36.3H71.8c-10.7,0-19.4-8.7-19.4-19.4S61.1,252,71.8,252
	h61.7c22.7,0,22.7-36.3,0-36.3H19.4C8.7,215.7,0,207,0,196.3S8.7,177,19.4,177h132.7l162.2,93.6v189.1L151.4,365.7z M167.5,146.6
	l163.8,94.6l163.8-94.6L331.6,52.2H224.3c-10.7,0-19.4,8.7-19.4,19.4S213.6,91,224.3,91H247c2.1,0,3.8,1.3,4.4,3.3
	c0.5,2-0.3,4-2.1,5.1L167.5,146.6z M158.2,52.2c10.7,0,19.4,8.7,19.4,19.4S168.9,91,158.2,91H40.4c-10.7,0-19.4-8.7-19.4-19.4
	s8.7-19.4,19.4-19.4H158.2z"/>
</svg>
