<?xml version="1.0" encoding="utf-8"?>
<!-- Generator: Adobe Illustrator 27.0.0, SVG Export Plug-In . SVG Version: 6.00 Build 0)  -->
<svg version="1.1" id="Capa_1" xmlns="http://www.w3.org/2000/svg" xmlns:xlink="http://www.w3.org/1999/xlink" x="0px" y="0px"
	 viewBox="0 0 512 512" style="enable-background:new 0 0 512 512;" xml:space="preserve">
<style type="text/css">
	.st0{fill:#FFFFFF;}
</style>
<g>
	<g>
		<path class="st0" d="M494.6,163c-0.1-0.3-0.2-0.5-0.4-0.8c-11.1-28.1-27.1-54.3-47.7-77.2c-2.8-3.1-7.5-3.3-10.6-0.6
			c-3.1,2.8-3.3,7.5-0.6,10.6C475.1,139.3,497,196.5,497,256c0,1.8,0,3.5-0.1,5.3c0,0.6,0,1.2,0,1.9c0,1.1-0.1,2.2-0.1,3.3
			c0,0.8-0.1,1.6-0.1,2.3c0,0.6-0.1,1.3-0.1,1.9c-2.5,41.2-15.5,80.8-37.6,115.3c4.8-19.7,9.8-42.8,12.9-65.5
			c6.5-47.9,2.7-77.8-11.8-91.4c-11.8-11.1-28.1-1.5-41.3,6.2c-5.3,3.1-14.1,8.2-16.9,7.8c-2.4-0.6-11.4-8.5-22.4-27.7
			c-9.8-17.1-16.2-35-16.8-46.5c-1.2-26,19.2-57,19.4-57.3c1.7-2.5,1.7-5.9-0.1-8.4c-2.6-3.7-8.8-15.2-7.1-23.2
			c0.8-3.7,2.3-10.9-23.2-45.2c9.8,4.2,19.4,9.1,28.6,14.7c0.1,0,0.1,0.1,0.2,0.1c10.9,6.6,21.2,14,31,22.3
			c3.2,2.7,7.9,2.3,10.6-0.9c2.7-3.2,2.3-7.9-0.9-10.6c-26.4-22.3-56.4-38.7-89.3-48.9c-0.1,0-0.3-0.1-0.4-0.1
			C307.1,3.9,281.7,0,256,0c-2.6,0-5.3,0.1-7.9,0.1c-0.3,0-0.6,0-0.9,0c-2.2,0.1-4.3,0.2-6.5,0.3c-0.2,0-0.4,0-0.6,0
			C177.7,4.3,119.6,30.4,75,75C26.6,123.3,0,187.6,0,256c0,60.3,21.4,118.9,60.2,165c1.5,1.8,3.6,2.7,5.7,2.7c1.7,0,3.4-0.6,4.8-1.8
			c3.2-2.7,3.6-7.4,0.9-10.6C35.1,368,15,312.8,15,256c0-12.1,0.9-24.1,2.6-35.9c0,0.1,0,0.2,0.1,0.2c0.2,0.8,0.4,1.6,0.6,2.4
			c10,41.8,67.1,68.5,94.6,81.3c2.2,1,4.6,2.1,6.5,3.1c-2.7,6.9-6.7,18.8-8.2,32.2c-3.1,28.8,6.9,49.9,29.1,61
			c43.8,21.9,42.3,33.5,37.9,68c-0.7,5.5-1.2,10.6-1.5,15.3c-29.9-10.4-57.6-26.6-81.6-48.1c-3.1-2.8-7.8-2.5-10.6,0.6
			c-2.8,3.1-2.5,7.8,0.6,10.6c28,25.1,61,43.5,96.4,54.3c0.1,0,0.2,0.1,0.3,0.1c3.2,1,6.5,1.9,9.8,2.7c0.3,0.1,0.6,0.2,1,0.2
			c1.5,0.4,3,0.8,4.6,1.1c0.5,0.1,1.1,0.2,1.6,0.4c1.4,0.3,2.8,0.6,4.2,0.9c0.7,0.1,1.4,0.3,2.1,0.4c1.3,0.3,2.6,0.5,3.8,0.8
			c1,0.2,1.9,0.3,2.9,0.5c1.1,0.2,2.1,0.4,3.2,0.5c2,0.3,4.1,0.6,6.1,0.9c0.5,0.1,1,0.1,1.5,0.2c1.6,0.2,3.3,0.4,5,0.6
			c0.5,0.1,1.1,0.1,1.6,0.2c1.7,0.2,3.3,0.3,5,0.5c0.2,0,0.4,0,0.6,0.1c0.1,0,0.1,0,0.2,0c7,0.6,14,0.9,21.1,0.9
			c68.4,0,132.7-26.6,181-75c44.1-44.1,70.2-101.6,74.4-163.3c0-0.3,0-0.5,0-0.8c0.1-1.6,0.2-3.3,0.3-4.9c0-0.8,0.1-1.6,0.1-2.5
			c0-1.1,0.1-2.3,0.1-3.4c0-2,0.1-4,0.1-6.1C512,223.9,506.1,192.7,494.6,163z M181.9,26.6c-3.3,5.3-6.6,10.5-9.7,14.6
			c-4.1,5.3-6.3,6.6-7,6.9c-3.1-1.6-7.3-5.4-10.9-10.6C163.2,33.2,172.4,29.6,181.9,26.6z M242.4,489.6c-3.2,2.2-6.3,4.3-9.2,6.3
			c-0.4,0-0.8-0.1-1.1-0.1c-1.3-0.1-2.7-0.3-4-0.4c-1.3-0.1-2.6-0.3-3.8-0.5c-0.5-0.1-0.9-0.1-1.4-0.2c-10.6-1.5-21-3.6-31.2-6.5
			c0.2-5.5,0.7-11.4,1.5-18c5-39.3,5.1-57.8-46.1-83.4c-16.2-8.1-23.3-23.5-21-45.6c1.9-17.9,9.3-33.6,9.4-33.8
			c0.2-0.4,0.3-0.8,0.5-1.2c1.9-6.5-4.3-9.8-7-11.1c-2.4-1.2-5.6-2.8-9.8-4.7c-23.3-10.9-78-36.5-86.4-71.2
			c-0.2-0.7-0.3-1.5-0.5-2.2c-5.4-23.9-2.1-49.2,9.3-71.2c22-42.7,57-78.5,99.1-101.5c5.2,7.9,12,14.5,18.4,17.5
			c7.1,3.3,14.7,0.5,22.4-8.4c5.1-6,10.3-14.3,15.3-22.4c2.1-3.4,4.3-6.9,6.4-10.1c15.3-3.4,31-5.3,46.8-5.7
			c2.6,10.4,1.1,26.4-10.6,43.6c-1.5,2.3-12.4,3.3-17.1,3.8c-8.8,0.9-16.4,1.6-20.9,6.1c-5,5-3.7,11.1-3,14.3c0.8,3.7,1.1,5.2-6,9.2
			c-20,11.3-29.3,28.6-34.3,37.9l-0.6,1.2c-0.5,0.9-4.3,2-6.8,2.7c-7.3,2.1-18.4,5.3-22.1,18.8c-1.1,3.8-2,7.9-2.8,11.8
			c-1.5,6.6-4.1,18.5-7.2,20.2c-0.6-1.4-1.2-3.9-1.6-5.7c-1.7-7.3-4.3-18.4-15.1-24c-6.5-3.3-12.7-4.1-18.4-2.1
			c-9.8,3.3-15.3,13.4-19.7,22.5c-6.8,14.2-0.1,23.8,5.2,31.6c5.4,7.9,10.5,15.3,7.7,29.9c-1.3,6.9,3.2,14.2,13.9,22.2
			c9.9,7.4,24.5,15,38.1,19.7c11.7,4.1,27.9,7.9,38,2.8c14.2-7.2,27.8-7.1,42.9,0.5c13.9,7,27,19.3,38.5,30.3
			c15,14.2,27.9,26.5,41.6,26.8c28.3,0.7,58.7,22.9,60.2,29.4c2.4,16.8-18,33.3-36,47.9c-15,12.1-29.1,23.6-32.6,36.5
			C277.6,465.5,258,478.9,242.4,489.6z M434.9,417.5c-2.8,3-5.6,6-8.5,9c-45,45-104.7,70-168.4,70.6c16.5-11.5,33.1-24.5,37.4-40.2
			c2.2-8.2,15.1-18.6,27.6-28.7c21.1-17.1,45.1-36.5,41.4-61.7c-1.7-11.8-19.4-23.1-26.9-27.4c-15.8-9.1-33.2-14.5-47.7-14.8
			c0,0,0,0,0,0c-7.9-0.2-20-11.6-31.6-22.7c-24.2-22.9-57.2-54.2-98.5-33.2c-4.4,2.3-18.4,0.4-36.4-7.6c-20-8.8-30.5-18.2-31.8-21.5
			C95,218.7,87,207,81.1,198.5c-5.3-7.6-6.9-10.6-4-16.6c2.2-4.6,6.4-13.3,11-14.8c0.7-0.2,2.7-0.9,6.8,1.3c4.4,2.2,5.8,7,7.4,14.1
			c1.6,6.7,4.2,18,16.1,17.5c15-0.6,18.7-17.4,21.9-32.2c0.8-3.7,1.7-7.5,2.6-10.9c1.4-4.9,4.5-6.3,11.9-8.4
			c5.5-1.6,12.3-3.5,15.8-10l0.7-1.2c4.6-8.5,12.2-22.8,28.4-31.9c7-3.9,11.2-8.3,13.1-13.4c1.8-4.9,0.8-9.3,0.2-12.1
			c0-0.2-0.1-0.5-0.2-0.7c2.5-0.7,7.4-1.2,10.9-1.6c10.6-1.1,22.6-2.3,28-10.3c11.3-16.7,16.1-35.9,13.5-51.9
			c20.4,0.8,40.6,4.1,59.9,9.9c32,40.1,34.6,50.5,34.8,52.1c-2.3,11.6,3.3,23.8,6.9,30.1c-6.1,10.2-20.5,37.1-19.3,62.2
			c0.7,14.2,7.9,34.5,19.2,54.1c16.1,27.8,27.3,33.4,32.5,34.3c8.2,1.3,17.3-4,27-9.6c8.4-4.9,19.8-11.6,23.5-8.2
			c13.8,12.9,10.5,54.7,7.2,78.4C451.6,357.9,440.1,399.7,434.9,417.5z"/>
	</g>
</g>
</svg>
