<?xml version="1.0" encoding="utf-8"?>
<!-- Generator: Adobe Illustrator 27.0.0, SVG Export Plug-In . SVG Version: 6.00 Build 0)  -->
<svg version="1.1" id="Layer_1" xmlns="http://www.w3.org/2000/svg" xmlns:xlink="http://www.w3.org/1999/xlink" x="0px" y="0px"
	 viewBox="0 0 512 512" style="enable-background:new 0 0 512 512;" xml:space="preserve">
<style type="text/css">
	.st0{fill:#FFFFFF;}
</style>
<g id="Page-1">
	<g id="_x30_17---Headset">
		<path id="Shape" class="st0" d="M477.9,209.1h-8.5c-0.1-11.2-7.3-21-18-24.3C441.5,84.3,357,7.7,256,7.7S70.5,84.3,60.7,184.7
			c-10.7,3.3-17.9,13.2-18,24.3h-8.5C15.3,209.1,0,224.3,0,243.2v68.3c0,18.9,15.3,34.1,34.1,34.1h8.5c0,14.1,11.5,25.6,25.6,25.6
			h8.5v34.1c0,42.4,34.4,76.8,76.8,76.8h26.8c3.9,15,17.4,25.5,32.9,25.6h85.3c18.9,0,34.1-15.3,34.1-34.1s-15.3-34.1-34.1-34.1
			h-85.3c-15.5,0.1-29.1,10.6-32.9,25.6h-26.8c-33,0-59.7-26.7-59.7-59.7v-34.1h8.5c14.1,0,25.6-11.5,25.6-25.6V209.1
			c0-10.4-6.4-19.8-16-23.7c8.7-72.9,70.6-127.9,144-127.9s135.3,54.9,144,127.9c-9.7,3.9-16,13.3-16,23.7v136.5
			c0,14.1,11.5,25.6,25.6,25.6h34.1c14.1,0,25.6-11.5,25.6-25.6h8.5c18.9,0,34.1-15.3,34.1-34.1v-68.3
			C512,224.3,496.7,209.1,477.9,209.1L477.9,209.1z M213.3,456.5h85.3c9.4,0,17.1,7.6,17.1,17.1s-7.6,17.1-17.1,17.1h-85.3
			c-9.4,0-17.1-7.6-17.1-17.1S203.9,456.5,213.3,456.5z M34.1,328.5c-9.4,0-17.1-7.6-17.1-17.1v-68.3c0-9.4,7.6-17.1,17.1-17.1h8.5
			v102.4H34.1z M110.9,345.6c0,4.7-3.8,8.5-8.5,8.5H68.3c-4.7,0-8.5-3.8-8.5-8.5V209.1c0-4.7,3.8-8.5,8.5-8.5h34.1
			c4.7,0,8.5,3.8,8.5,8.5V345.6z M256,38.4c-82.9,0.1-152.3,62.7-161,145.1H77.9C88,92.8,164.7,24.2,256,24.2s168,68.6,178.1,159.3
			H417C408.3,101.1,338.9,38.5,256,38.4L256,38.4z M452.3,345.6c0,4.7-3.8,8.5-8.5,8.5h-34.1c-4.7,0-8.5-3.8-8.5-8.5V209.1
			c0-4.7,3.8-8.5,8.5-8.5h34.1c4.7,0,8.5,3.8,8.5,8.5V345.6z M494.9,311.5c0,9.4-7.6,17.1-17.1,17.1h-8.5V226.1h8.5
			c9.4,0,17.1,7.6,17.1,17.1V311.5z"/>
	</g>
</g>
</svg>
