<svg id="Layer_1" data-name="Layer 1" xmlns="http://www.w3.org/2000/svg" viewBox="0 0 35.65 19.44"><defs><style>.cls-1{fill:#fff20b;}.cls-2{fill:#08fff5;}.cls-3{fill:#fff;}</style></defs><title>imile</title><g id="Ebene_1" data-name="Ebene 1"><path class="cls-1" d="M2.75,4.51A1.37,1.37,0,0,0,1.38,3.14,1.38,1.38,0,0,0,0,4.51V8A1.37,1.37,0,0,1,2.74,8V4.52Z"/><path class="cls-2" d="M1.37,9.29A1.38,1.38,0,0,1,0,8v3.45a1.37,1.37,0,0,0,2.74,0V8A1.37,1.37,0,0,1,1.37,9.29Z"/><path class="cls-3" d="M1.37,6.64A1.38,1.38,0,0,0,0,8,1.37,1.37,0,0,0,2.74,8,1.37,1.37,0,0,0,1.37,6.64Z"/><circle class="cls-3" cx="1.37" cy="1.37" r="1.37"/><circle class="cls-2" cx="19.82" cy="1.86" r="1.37"/><polygon class="cls-2" points="7.74 0.88 7.71 0.89 5.02 0.89 5.02 12.7 7.74 12.7 7.74 6.86 9.75 12.75 10.67 9.48 7.74 0.88"/><polygon class="cls-1" points="16.33 0.89 16.33 12.7 13.61 12.7 13.61 6.86 11.6 12.75 9.75 12.75 10.67 9.48 13.61 0.88 13.64 0.89 16.33 0.89"/><rect class="cls-2" x="18.66" y="4.24" width="2.38" height="8.44"/><path class="cls-3" d="M27.57,12.14s-.74,1.21-3.39.5a2.62,2.62,0,0,1-.63-.54,2.06,2.06,0,0,1-.5-1.34V.09h2.38V10.18a1,1,0,0,0,1.66.68l.47,1.28h0Z"/><path class="cls-1" d="M35.65,8.08a3.1,3.1,0,0,0,0-.43,4.23,4.23,0,0,0-8.42,0c0,.14,0,.17,0,.43a8.16,8.16,0,0,0,0,1.22h0a4.11,4.11,0,0,0,4.31,3.6,4.44,4.44,0,0,0,3.79-2l-1.6-1.25a2.19,2.19,0,0,1-1.95,1.09,2.1,2.1,0,0,1-2.1-1.48H35.5a4.49,4.49,0,0,0,.17-1.22ZM33.2,7.65H29.7v0a1.75,1.75,0,0,1,3.5,0Z"/><path class="cls-3" d="M20.1,18.63V15.87H21a1.28,1.28,0,0,1,.65.16,1.2,1.2,0,0,1,.45.47,1.41,1.41,0,0,1,.16.69v.13a1.37,1.37,0,0,1-.16.68,1.2,1.2,0,0,1-.45.47,1.22,1.22,0,0,1-.65.17H20.1Zm.57-2.3v1.84h.27a.61.61,0,0,0,.51-.22,1,1,0,0,0,.18-.62v-.15a1.06,1.06,0,0,0-.17-.64.64.64,0,0,0-.51-.22h-.28Z"/><path class="cls-3" d="M23.35,18.67a1,1,0,0,1-.73-.28,1,1,0,0,1-.28-.74v0a1.2,1.2,0,0,1,.12-.55.82.82,0,0,1,.34-.37,1,1,0,0,1,.5-.13.84.84,0,0,1,.66.27,1.09,1.09,0,0,1,.24.75v.22H22.9a.52.52,0,0,0,.16.32.49.49,0,0,0,.34.12.59.59,0,0,0,.49-.23l.27.3a.73.73,0,0,1-.33.27,1,1,0,0,1-.47.1h0ZM23.29,17a.33.33,0,0,0-.26.11.56.56,0,0,0-.13.32h.76v0a.36.36,0,0,0-.1-.28.39.39,0,0,0-.27-.1h0Z"/><path class="cls-3" d="M25,18.63h-.55V15.72H25Z"/><path class="cls-3" d="M25.52,16.05a.28.28,0,0,1,.08-.2.33.33,0,0,1,.22-.08.31.31,0,0,1,.22.08.24.24,0,0,1,.08.2.28.28,0,0,1-.08.2.34.34,0,0,1-.44,0,.28.28,0,0,1-.08-.2Zm.58,2.58h-.55V16.58h.55Z"/><path class="cls-3" d="M27.27,18l.38-1.38h.57l-.69,2.05H27l-.69-2.05h.57L27.27,18Z"/><path class="cls-3" d="M29.19,18.67a1,1,0,0,1-1-1v0a1.2,1.2,0,0,1,.12-.55.82.82,0,0,1,.34-.37,1,1,0,0,1,.5-.13.84.84,0,0,1,.66.27,1.09,1.09,0,0,1,.24.75v.22h-1.3a.52.52,0,0,0,.16.32.49.49,0,0,0,.34.12.59.59,0,0,0,.49-.23l.27.3a.73.73,0,0,1-.33.27,1,1,0,0,1-.47.1h0ZM29.13,17a.33.33,0,0,0-.26.11.56.56,0,0,0-.13.32h.76v0a.36.36,0,0,0-.1-.28.39.39,0,0,0-.27-.1h0Z"/><path class="cls-3" d="M31.41,17.09l-.2,0a.41.41,0,0,0-.41.21v1.34h-.55V16.57h.52l0,.24a.5.5,0,0,1,.46-.28.47.47,0,0,1,.17,0v.53h0Z"/><path class="cls-3" d="M32.41,17.84l.38-1.27h.59l-.82,2.37-.05.11a.62.62,0,0,1-.61.4.67.67,0,0,1-.24,0V19h.08a.37.37,0,0,0,.23,0,.34.34,0,0,0,.12-.16l.06-.17-.72-2.05H32l.38,1.27h0Z"/></g></svg>