<?xml version="1.0" encoding="UTF-8"?>
<svg id="Layer_2" data-name="Layer 2" xmlns="http://www.w3.org/2000/svg" viewBox="0 0 267.5 267.83">
  <defs>
    <style>
      .cls-1 {
        fill: #fff;
      }
    </style>
  </defs>
  <g id="_ÎÓÈ_1" data-name="—ÎÓÈ_1">
    <g>
      <path class="cls-1" d="M173.45,64.23H94.05c-16.53,0-29.98,13.45-29.98,29.98v79.4c0,16.53,13.45,29.98,29.98,29.98h79.4c16.53,0,29.98-13.45,29.98-29.98V94.21c0-16.53-13.45-29.98-29.98-29.98Zm-39.7,111.05c-22.81,0-41.37-18.56-41.37-41.37s18.56-41.37,41.37-41.37,41.37,18.56,41.37,41.37-18.56,41.37-41.37,41.37Zm46.36-75.37c-5.11,0-9.25-4.14-9.25-9.25s4.14-9.25,9.25-9.25,9.25,4.14,9.25,9.25-4.14,9.25-9.25,9.25Z"/>
      <path class="cls-1" d="M133.75,104.53c-16.21,0-29.39,13.18-29.39,29.39s13.18,29.39,29.39,29.39,29.39-13.18,29.39-29.39-13.18-29.39-29.39-29.39Z"/>
      <path class="cls-1" d="M214.11,0H53.4C23.91,0,0,23.91,0,53.4V214.43c0,29.49,23.91,53.4,53.4,53.4H214.11c29.49,0,53.4-23.91,53.4-53.4V53.4c0-29.49-23.91-53.4-53.4-53.4Zm1.31,173.62c0,23.14-18.82,41.96-41.96,41.96H94.05c-23.14,0-41.96-18.82-41.96-41.96V94.21c0-23.14,18.82-41.96,41.96-41.96h79.4c23.14,0,41.96,18.82,41.96,41.96v79.4Z"/>
    </g>
  </g>
</svg>