<?xml version="1.0" encoding="UTF-8"?>
<svg id="Layer_1" data-name="Layer 1" xmlns="http://www.w3.org/2000/svg" viewBox="0 0 110 110.01">
  <defs>
    <style>
      .cls-1 {
        fill: #010101;
      }

      .cls-2 {
        fill: #fff;
      }

      .cls-3 {
        fill: #cd2027;
      }

      .cls-4 {
        fill: #077a3e;
      }
    </style>
  </defs>
  <g>
    <path class="cls-3" d="M106.85,73.34c-7.56,21.34-27.95,36.67-51.85,36.67-15.38,0-29.31-6.34-39.29-16.56-5.54-5.65-9.87-12.5-12.57-20.11H106.85Z"/>
    <path class="cls-2" d="M110,55.01c0,6.42-1.11,12.59-3.15,18.32H3.14c-2.03-5.74-3.14-11.91-3.14-18.32s1.11-12.6,3.15-18.34H106.85c2.04,5.74,3.15,11.91,3.15,18.34Z"/>
    <path class="cls-4" d="M106.85,36.67H3.15c2.69-7.61,7.02-14.46,12.56-20.11C25.69,6.36,39.62,0,55,0c23.9,0,44.29,15.33,51.85,36.67Z"/>
  </g>
  <path class="cls-1" d="M45.96,36.67v36.66l-30.25,20.11c-5.54-5.65-9.87-12.5-12.57-20.11-2.03-5.74-3.14-11.91-3.14-18.32s1.11-12.6,3.15-18.34c2.69-7.61,7.02-14.46,12.56-20.11l30.25,20.11Z"/>
</svg>