<?xml version="1.0" encoding="UTF-8"?>
<svg id="Layer_2" data-name="Layer 2" xmlns="http://www.w3.org/2000/svg" viewBox="0 0 267.5 267.83">
  <defs>
    <style>
      .cls-1 {
        fill: #fff;
      }
    </style>
  </defs>
  <g id="_ÎÓÈ_1" data-name="—ÎÓÈ_1">
    <path class="cls-1" d="M214.11,0H53.4C23.91,0,0,23.91,0,53.4V214.43c0,29.49,23.91,53.4,53.4,53.4H214.11c29.49,0,53.4-23.91,53.4-53.4V53.4c0-29.49-23.91-53.4-53.4-53.4ZM88.5,162.64v53.06H54.14V103.92h34.36c0,18.03,0,40.69,0,58.72Zm-17.32-69.59c-10.95,0-20.3-8.79-20.3-20.46,0-11.38,8.98-20.45,20.3-20.45,11.3,0,20.3,9.05,20.3,20.45,0,11.61-9.29,20.45-20.3,20.46Zm111.25,122.65c0-18.79,.02-37.58-.02-56.38-.01-4.43-.49-8.83-2.08-13.03-1.67-4.43-4.4-7.9-8.9-9.76-2.33-.96-4.77-1.31-7.28-1.34-3.66-.03-7.19,.53-10.47,2.24-4.36,2.27-7.06,5.94-8.69,10.47-1.09,3.04-1.58,6.21-1.75,9.43-.21,3.99-.1,7.98-.1,11.97-.02,15.46,0,30.93,0,46.39h-32.92V103.92h32.92c0,4.21,0,13.04,0,17.25v.79c1.43-2.28,2.99-4.27,4.76-6.08,5.87-6.01,12.9-9.85,21.2-11.31,2.83-.5,5.68-.72,8.54-.63,6.69,.2,13.15,1.45,19.14,4.59,7.7,4.03,12.95,10.25,16.18,18.24,1.71,4.23,2.69,8.63,3.21,13.15,.35,3.07,.47,6.14,.48,9.23,0,22.18,0,44.37,0,66.55h-34.2Z"/>
  </g>
</svg>