<?xml version="1.0" encoding="utf-8"?>
<!-- Generator: Adobe Illustrator 19.2.1, SVG Export Plug-In . SVG Version: 6.00 Build 0)  -->
<svg version="1.1" id="layer" xmlns="http://www.w3.org/2000/svg" xmlns:xlink="http://www.w3.org/1999/xlink" x="0px" y="0px"
	 viewBox="0 0 652 652" style="enable-background:new 0 0 652 652;" xml:space="preserve">
<style type="text/css">
	.st0{fill:#002E60;}
</style>
<polygon class="st0" points="110.6,400.1 92.5,400.1 90.2,412.2 110.5,412.2 108.8,421.3 77.5,421.3 87.2,371.2 117.4,371.2 
	115.5,380.4 96.3,380.4 94.2,391.1 112.4,391.1 "/>
<g>
	<path class="st0" d="M139.7,421.3l-3.5-10.1c-1-3-1.8-5.4-2.7-8.5h-0.1c-1.7,2.8-3,5.4-5.2,8.9l-6.1,9.7H109l19.1-25.6l-8.9-24.5
		h11.5l3.1,9.6c0.9,3.1,1.6,5.4,2.4,8.3h0.2c1.9-3.4,3.3-5.8,4.8-8.5l5.9-9.4h13l-18.6,24.6l9.8,25.5H139.7z"/>
	<path class="st0" d="M163.1,372.1c3.3-0.8,8.4-1.3,13.3-1.3c4.6,0,9.9,0.7,13.6,3.3c3.5,2.3,5.5,5.9,5.5,10.7c0,6.2-3,11.1-6.9,14
		c-4.2,3.2-10.1,4.7-16.4,4.7c-1.8,0-3.3-0.2-4.5-0.3l-3.5,18h-10.7L163.1,372.1z M169.5,394.5c1.1,0.2,2.3,0.4,4.2,0.4
		c6.5,0,10.8-4.1,10.8-9.1c0-4.8-3.6-6.3-7.7-6.3c-2,0-3.6,0.1-4.5,0.3L169.5,394.5z"/>
	<path class="st0" d="M202.9,372.1c3.4-0.8,8.6-1.3,13.6-1.3c4.8,0,9.8,0.7,13.4,2.9c3.3,1.9,5.7,5.1,5.7,9.7
		c0,7.4-5,12.1-11.6,14.2v0.2c3,1.4,4.4,4.6,4.8,9.1c0.7,5.7,1.1,12.2,2,14.3h-11.2c-0.5-1.3-1-5.6-1.4-11.8c-0.5-6.1-2.6-7.9-7-7.9
		h-3.3l-3.8,19.8h-10.8L202.9,372.1z M209.6,393.5h4.5c5.9,0,10.2-3.5,10.2-8.4c0-4.1-3.4-5.9-7.8-5.9c-2,0-3.3,0.2-4.2,0.4
		L209.6,393.5z"/>
	<polygon class="st0" points="267.6,400.1 249.5,400.1 247.1,412.2 267.5,412.2 265.8,421.3 234.4,421.3 244.1,371.2 274.3,371.2 
		272.5,380.4 253.3,380.4 251.1,391.1 269.4,391.1 	"/>
	<path class="st0" d="M272.7,409.7c3,1.8,7.4,3.2,12,3.2c4.2,0,8.1-1.9,8.1-5.8c0-2.9-2.2-4.7-6.9-7.1c-5.4-2.8-10.5-6.8-10.5-13.2
		c0-10.2,8.9-16.3,20.1-16.3c6.2,0,9.8,1.3,12,2.5l-3.4,8.9c-1.7-0.9-5.3-2.2-9.5-2.2c-5.1,0-7.8,2.5-7.8,5.2c0,2.9,3.1,4.8,7.4,7.1
		c6.2,3.1,10.1,7.2,10.1,13.2c0,11.1-9.4,16.9-20.7,16.9c-7.1-0.1-12.2-1.9-14.6-3.6L272.7,409.7z"/>
	<path class="st0" d="M308.3,409.7c3,1.8,7.4,3.2,12,3.2c4.2,0,8.1-1.9,8.1-5.8c0-2.9-2.2-4.7-6.9-7.1c-5.4-2.8-10.5-6.8-10.5-13.2
		c0-10.2,8.9-16.3,20.1-16.3c6.2,0,9.8,1.3,12,2.5l-3.4,8.9c-1.7-0.9-5.3-2.2-9.5-2.2c-5.1,0-7.8,2.5-7.8,5.2c0,2.9,3.1,4.8,7.4,7.1
		c6.2,3.1,10.1,7.2,10.1,13.2c0,11.1-9.4,16.9-20.7,16.9c-7.1-0.1-12.2-1.9-14.6-3.6L308.3,409.7z"/>
	<polygon class="st0" points="20.2,371.2 20.2,421.3 66.6,421.3 76.3,371.2 	"/>
	<polygon class="st0" points="459.3,332.6 459.3,305.1 515.8,305.1 515.8,281.1 459.3,281.1 459.3,253.6 519.7,253.6 519.8,226.8 
		427.6,226.8 427.6,359.4 519.8,359.4 519.7,332.6 	"/>
	<path class="st0" d="M333.4,358.7c0,0,1.1,0.2,1.4,0.2c0.9,0.1,1.8,0.2,2.7,0.3c0.2,0,0.5,0,0.7,0c0.9,0.1,1.9,0.1,2.8,0.2
		c0.2,0,0.4,0,0.6,0c1,0,1.9,0.1,2.9,0c0.2,0,0.4,0,0.6,0c1,0,1.9-0.1,2.9-0.1c0.2,0,0.4,0,0.6,0c1-0.1,2-0.2,3-0.3
		c0.1,0,0.3-0.1,0.5-0.1c1-0.1,2-0.3,3.1-0.4c0.1,0,0.3-0.1,0.4-0.1c1-0.2,2.1-0.4,3.1-0.6c0.1,0,0.2-0.1,0.3-0.1
		c1-0.2,2.1-0.5,3.1-0.7c0.1,0,0.1,0,0.1-0.1h0c2.2-0.6,4.5-1.4,6.8-2.2c0,0,4.1-1.8,5.3-2.4c0.1-0.1,0.3-0.1,0.4-0.2
		c2.6-1.1,4,0.7,5.7,2.3c1.5,1.3,2.5,2.2,4.4,3.9c17.2,15.4,60,50.9,107.1,60c59.9,11.6,98.7,4.2,98.7,4.2s-80.2-7.7-125.5-34.4
		c-29.5-17.4-56.6-37.3-68.1-47.5c-0.5-0.4-2.7-1.8-1.2-4.3c0.1-0.1,0.2-0.2,0.3-0.3c9.3-10.3,15.6-23.5,17.4-38.4
		c4.7-38.5-22.7-73.6-61.2-78.3c-38.5-4.7-73.6,22.7-78.3,61.2C269.2,318.6,295.7,353.2,333.4,358.7 M302.4,284.3
		c2.8-22.7,23.5-38.9,46.2-36.1c22.7,2.8,38.9,23.5,36.2,46.2c-2.8,22.7-23.5,38.9-46.2,36.1C315.8,327.7,299.6,307,302.4,284.3"/>
	<polygon class="st0" points="563.5,332.6 563.5,226.8 531.8,226.8 531.8,359.4 620.2,359.4 620.2,332.6 	"/>
	<polygon class="st0" points="113.7,226.8 113.7,226.8 113.7,313.3 57.4,226.8 20.2,226.8 20.2,359.4 49.2,359.4 49.2,272.9 
		105.5,359.4 142.7,359.4 142.7,226.8 	"/>
	<path class="st0" d="M233.5,226.8h-34.2l-51.7,132.7H176l11.8-30.2h57.6l12.1,30.2h29.1L233.5,226.8z M198.3,302.4l17.8-45.5
		l18.5,45.5H198.3z"/>
</g>
</svg>
