<?xml version="1.0" encoding="UTF-8"?>
<svg id="Layer_1" data-name="Layer 1" xmlns="http://www.w3.org/2000/svg" viewBox="0 0 110 110">
  <defs>
    <style>
      .cls-1 {
        fill: #fff;
      }

      .cls-2 {
        fill: #8d1c3d;
      }
    </style>
  </defs>
  <path class="cls-2" d="M110,55c0,30.33-24.67,55-55,55-5.82,0-11.45-.9-16.73-2.6C16.09,100.31,0,79.5,0,55S16.09,9.7,38.27,2.6c5.28-1.69,10.91-2.6,16.73-2.6,30.33,0,55,24.68,55,55Z"/>
  <path class="cls-1" d="M51.09,18.34l-22.36,6.11,22.36,6.11-22.36,6.11,22.36,6.12-22.36,6.11,22.36,6.11-22.36,6.12,22.36,6.11-22.36,6.11,22.36,6.11-22.36,6.12,22.36,6.11-22.36,6.11,22.36,6.11-12.82,3.5C16.09,100.31,0,79.5,0,55S16.09,9.7,38.27,2.6l12.82,3.5-22.36,6.12,22.36,6.11Z"/>
</svg>