<?xml version="1.0" encoding="UTF-8"?>
<svg id="Layer_1" data-name="Layer 1" xmlns="http://www.w3.org/2000/svg" viewBox="0 0 110 109.99">
  <defs>
    <style>
      .cls-1 {
        fill: #fff;
      }

      .cls-2 {
        fill: #086c38;
      }
    </style>
  </defs>
  <path class="cls-2" d="M110,54.99c0,30.33-24.68,54.99-54.99,54.99S0,85.32,0,54.99,24.68,0,55.01,0s54.99,24.68,54.99,54.99Z"/>
  <g>
    <path class="cls-1" d="M84.61,78.36c-.15-.07-.3-.12-.46-.15-.49-.11-1.01-.04-1.51-.04-.54-.01-1.1-.01-1.64-.02-1.11-.01-2.22-.02-3.33-.04-.06,0-1.14-.05-1.14-.01,.01-.06,.01-.14,.01-.2,0-.23,.27-.15,.41-.47,.16-.33-.21-.91-.59-.89-.05,0-.1,.01-.15-.01-.06-.04-.07-.12-.07-.2-.01-.46-.59-.62-.93-.37-.32,.25-.36,.64-.3,1.01,.04,.19,.1,.38,.17,.56,.01,.04,.19,.56,.15,.54l-49.92-.59c1.94,3.43,6.18,3.11,6.18,3.11h43.54c.04,.52,.09,1.05,.2,1.57,.06,.3,.14,.6,.28,.88,.19,.37,.49,.51,.89,.43,.25-.05,.38-.26,.46-.48h6.12c.11,0,.23,.17,.3,.25,.1,.11,.18,.21,.3,.28,.37,.25,.72,.19,1.12,.19,.58,0,1.25-.52,1.25-2.84,0-1.02-.41-2.02-1.35-2.51Zm-1.79,3.3c-.28,.28-1.93,.19-1.93,.19,0,0-.3-.57-.75-.57s-.81,.4-.91,.51c-.11,.11-2.49,.02-2.49,.02,0,0-.4-.49-.05-1.1h5.97s.44,.67,.16,.95Z"/>
    <g>
      <path class="cls-1" d="M15.36,48.25c-.25-.07-1.05,1.42-1.38,3.04-.26,1.25-.1,1.9-.04,2.12,.09,.28,.48,1.67,1.36,1.74,.74,.06,1.33-.84,1.54-1.46,.25-.72,.12-1.54-.12-1.6-.2-.05-.35,.37-.84,.42-.07,0-.32,.04-.48-.1-.3-.25-.15-.88-.06-1.28,.25-1.26,.26-2.8,.02-2.88Z"/>
      <path class="cls-1" d="M21.55,41.79c.05-.32-.69-.75-1.34-.86-.7-.12-1.27,.11-1.72,.3-1.58,.67-2.36,1.91-3.18,3.25-.22,.36-.26,.46-.21,.52,.31,.51,4.23-2.16,6.1-2.9,.1-.04,.33-.14,.36-.3Z"/>
      <path class="cls-1" d="M17,28.85c-.31-.36-.88-1-.75-1.47,.06-.26,.32-.44,.54-.51,.56-.12,1.06,.47,1.14,.57,.81,.98,.23,2.44,.17,2.59-.15,.37-.42,.81-.58,.78-.17-.05-.2-.68-.21-.84-.01-.36,.04-.54-.07-.8-.07-.16-.16-.25-.23-.32Z"/>
      <path class="cls-1" d="M14.47,31.32c-.22,1.05,.02,2.62,.02,2.62,.3,1.6-.01,1.54,.32,2.73,.25,.88,.49,1.74,1.2,1.98,.52,.19,1.01-.05,1.06-.07,.81-.42,.95-1.59,1.02-2.17,.12-.96-.12-1.25,.14-2.06,.16-.53,.48-1.14,.67-1.1,.27,.06-.04,1.69,.27,4.3,.14,1.11,.28,1.6,.69,1.86,.51,.33,1.12,.11,1.6,.6,.22,.22,.31,.48,.37,.73,.36,1.38,.19,2.84,.21,4.44,.04,1.98,.31,2.11,.4,2.14,.35,.11,.88-.57,1.14-.99,.2-.33,.53-1.02,.49-3.07-.02-1.27-.04-2.01-.21-3.07-.15-.9-.35-1.64,.06-2.02,.25-.23,.63-.23,.73-.23,.55,0,.73,.38,1.28,.58,.79,.28,1.59-.07,1.85-.19,.21-.1,.89-.41,1.31-1.15,.37-.63,.48-1.26,.28-2.32-.23-1.25-.37-1.68-.62-2.26-.04-.09-.12-.48-.02-.62,.05-.09,.21-.02,.33-.12,.09-.06,.14-.19,.11-.47-.07-.9-.58-1.42-.58-1.42-.3-.31-1.04-.89-1.6-.63-.54,.25-.61,1.1-.63,1.44-.09,1.22,.54,2.36,.81,2.84,.42,.73,.84,1.15,.72,1.73-.01,.07-.1,.43-.37,.57-.35,.16-.8-.15-1.14-.4-.32-.22-.78-.54-1.01-1.09-.31-.73,.14-.99,.06-2.31-.06-1.3-.54-1.8-.67-1.93-.12-.14-.41-.42-.77-.38-1.01,.07-.9,1.36-.83,2.06,.04,.42,.11,.83,.22,1.23,.05,.17,.11,.35,.17,.52,.22,.6,.51,1.17,.26,1.51-.01,.02-.14,.16-.26,.15-.22-.02-.33-.48-.43-.93-.23-1.09-.27-1.96-.27-2.04,0,0-.06-1.1-.28-2.27-.2-1.05-.52-2.73-1.21-2.81-.36-.05-.75,.36-.91,.73-.28,.6,.05,1.16,.32,2.21,.25,.96,.04,.77,.32,2.32,.36,2.02,.78,2.8,.3,3.51-.04,.05-.28,.41-.52,.36-.35-.06-.44-1.01-.49-1.43-.07-.73,.01-1.05,.07-2.41,.04-1.06,.01-1.39-.22-1.72-.02-.05-.42-.58-.93-.54-.46,.04-.74,.56-1.09,1.22-.33,.63-.73,1.38-.84,2.49-.11,1.02,.1,1.62-.31,1.91-.19,.14-.46,.17-.68,.09-.48-.19-.59-.94-.75-2.02-.13-.95-.07-1.3-.35-1.93,0,0-.16-.69-.49-.81-.04-.01-.12-.05-.22-.01,0,0-.1,.02-.12,.14Z"/>
      <path class="cls-1" d="M23.9,27.48c-.25,.35-.09,.81-.02,.99,.05,.15,.25,.63,.75,.89,.56,.28,1.09,.12,1.36,.04,.26-.07,.69-.2,.95-.62,.21-.32,.21-.63,.21-.84,0-.19,0-.69-.22-.78-.16-.05-.41,.1-.52,.28-.12,.19-.07,.36-.19,.41-.1,.04-.23-.05-.31-.14-.19-.21-.06-.44-.21-.56-.12-.1-.4-.05-.52,.1-.19,.21-.05,.54-.16,.58-.06,.02-.17-.12-.25-.22-.19-.23-.16-.35-.26-.4-.16-.09-.47,.06-.62,.26Z"/>
      <path class="cls-1" d="M39.84,39.21c-.1-.22-.53-.27-.85-.2-.1,.02-.38,.09-.54,.32-.16,.23-.05,.42-.23,.73-.05,.1-.17,.3-.31,.28-.15-.01-.12-.35-.36-.6-.26-.28-.8-.41-1.16-.23-.2,.1-.17,.21-.7,1.01-.25,.36-.32,.44-.46,.52-.26,.14-.68,.19-.9-.02-.26-.25,.04-.59-.21-1.05-.19-.32-.54-.57-.89-.56-.31,0-.4,.22-.56,.19-.38-.09-.26-1.36-.48-3.12-.2-1.57-.3-2.35-.48-2.93-.16-.54-.38-1.09-.12-1.37,.31-.31,.95,.1,1.2-.19,.23-.27-.23-.79-.7-2.09-.35-.96-.48-1.81-1.05-2.31-.28-.25-.51-.26-.59-.26-.3-.01-.52,.15-.6,.23-.22,.1-.53,.27-.67,.59-.15,.4,.02,.81,.11,1.01,.33,.81,.27,1.74,.43,2.59,.16,.91,.05,.54,.53,3.51,.14,.81,.22,1.42,.4,2.64,.28,2.04,.33,2.8-.07,3.05-.28,.19-.69,.04-.79,0-.7-.25-.64-.99-1.25-1.28-.6-.3-1.36,.09-1.78,.3-.37,.2-1.11,.65-1.51,1.59-.09,.2-.73,1.72,.17,2.73,.49,.57,1.38,.85,2.06,.67,.59-.16,1.07-.7,1.25-.56,.06,.05,.05,.17,.04,.23-.16,1.19-.56,1.77-.56,1.77-.57,.85-1.32,1.3-1.89,1.63-1.2,.7-1.91,1.12-2.79,.93-.8-.19-1.6-.85-1.89-1.68-.31-.88,.1-1.59-.48-2.67-.21-.4-.33-.42-.41-.42-.4,.01-.65,1.3-.75,1.95-.11,.83-.25,1.79,.25,2.9,.52,1.2,1.42,1.8,1.63,1.93,1.21,.78,2.43,.68,2.84,.64,1.41-.12,2.33-.85,2.85-1.26,.53-.42,1.8-1.42,2.21-3.07,.31-1.26-.02-2.35,.73-2.94,.07-.06,.33-.26,.49-.17,.35,.16,.07,1.35-.04,1.86-.21,.9-.46,2.01-1.3,3.3-.43,.65-1.12,1.68-2.44,2.47-1.51,.88-2.91,.91-3.23,.91-.7,.01-2.52,.02-3.49-1.19-.44-.54-.6-1.22-.65-1.42-.22-.88-.06-1.54-.56-2.39-.21-.38-.33-.4-.37-.38-.42,.02-.62,1.94-.64,2.12-.09,.96-.17,1.81,.2,2.86,.16,.46,.57,1.62,1.68,2.36,.96,.64,1.94,.62,3.32,.57,2.05-.05,3.54-.7,4.09-.96,1.35-.63,2.22-1.42,2.58-1.77,.59-.58,1.54-1.49,2.06-3,.32-.94,.33-1.74,.36-2.28,.04-1.51-.27-3.46,.04-3.63,.1-.05,.2-.04,.2-.04,.14,.01,.21,.12,.3,.2,.12,.1,.27,.12,.56,.16,.43,.07,.78,0,.91-.04,.27-.06,.44-.17,.7-.32,.48-.28,.51-.41,.79-.49,.2-.06,.33-.04,.86,.04,1.23,.2,1.26,.21,1.37,.2,.54-.07,1.01-.53,1.22-.94,.52-.96-.16-1.94,.28-2.8,.04-.06,.12-.22,.06-.36Zm-12,3.62c-.2,.23-.68,.21-.94-.06-.17-.17-.32-.52-.14-.79,.19-.26,.57-.28,.81-.15,.25,.15,.31,.44,.32,.54s.05,.32-.06,.46Z"/>
      <path class="cls-1" d="M35.39,45.95c.44,.6,.64,.54,.78,.84,.27,.62-.35,1.26-.07,1.53,.14,.12,.38,.07,.52,.01,.52-.22,.51-1.17,.49-1.48,0-.28-.02-1.01-.53-1.6-.19-.22-.52-.62-.93-.54-.27,.05-.53,.31-.56,.58-.01,.1-.01,.26,.3,.67Z"/>
      <path class="cls-1" d="M59.92,51.94c.04-.35,.07-.81-.15-.98-.21-.15-.57,.04-.88,.2-.27,.14-1.1,.56-1.01,1.01,.05,.23,.33,.46,.6,.49,.24,.02,.35-.1,.44-.02,.17,.12-.06,.46,.09,.86,.09,.23,.28,.44,.49,.53,.33,.15,.65-.04,1.1-.21,1.38-.56,2.02-.32,2.2-.78,.1-.27-.04-.65-.26-.81-.35-.23-.93-.04-1.79,.26-.51,.17-.78,.31-.9,.2-.1-.11,.02-.28,.06-.75Z"/>
      <path class="cls-1" d="M38.17,34.92c.04-.21,.1-.3,.07-.47-.01-.05-.05-.31-.2-.37-.22-.1-.6,.23-.8,.56-.25,.4-.36,1.01-.04,1.56,.06,.09,.32,.51,.85,.63,.46,.1,.91-.06,1.2-.31,.25-.23,.46-.6,.36-.73-.07-.07-.21,0-.6,0-.38,.01-.6,.01-.74-.12-.19-.2-.12-.58-.1-.74Z"/>
      <path class="cls-1" d="M51.15,38.69c-.15-.1-.42-.21-.58-.11-.26,.17-.08,.83-.06,.86,.12,.42,.46,.9,1.01,1.11,.12,.05,.73,.28,1.28-.04,.37-.21,.51-.54,.58-.72,.21-.47,.28-1.21-.01-1.37-.21-.11-.59,.04-.75,.28-.12,.17-.12,.38-.17,.38-.07,0-.04-.41-.28-.56-.1-.06-.23-.09-.35-.02-.21,.11-.15,.49-.27,.52-.1,.01-.15-.19-.4-.35Z"/>
      <path class="cls-1" d="M40.11,28.28c.05-.44-.28-.95-.74-1.19-.6-.3-1.36-.09-1.74,.41-.37,.47-.37,1.19-.1,1.6,.21,.31,.62,.49,.73,.89,.05,.2,.01,.32,0,.36-.05,.15-.17,.23-.21,.26-.54,.4-.88,1.09-2.26,1.9-1,.6-1.1,.83-1.94,1.3-.21,.11-.58,.51-.47,.72,.19,.4,1.58,.37,2.51-.01,1.15-.48,.89-1.09,2.57-2.42,.68-.54,1.53-1.07,1.41-1.59-.04-.2-.21-.37-.22-.74,0-.09,.01-.21,.11-.56,.21-.64,.33-.69,.36-.93Zm-1.02,.94c-.16,.12-.49,0-.67-.21-.16-.2-.22-.54-.05-.7,.17-.14,.48-.04,.64,.12,.23,.22,.27,.65,.07,.79Z"/>
      <path class="cls-1" d="M41.06,29.13c-.42,.07-.43,1.94-.32,3.22,.16,1.7,.33,3.78,1.68,4.33,.57,.23,1.41,.27,1.89-.15,.58-.51,.25-1.27,.86-2.79,.23-.58,.62-1.3,.79-1.25,.26,.07-.4,1.57,.2,3.14,.05,.12,.73,1.88,2.06,2.09,1.17,.17,2.48-.91,2.67-1.06,.54-.44,.93-.98,1.43-.9,.25,.04,.38,.2,.57,.37,.16,.15,1.44,1.37,2.51,1.2,.79-.12,1.34-1,1.39-1.09,.33-.54,.32-1.05,.63-1.1,.21-.04,.48,.17,.59,.38,.15,.27,.02,.49,.17,.63,.19,.16,.54,.02,.63,0,.69-.26,.98-1.05,1.1-1.39,.1-.31,.27-.81,.09-.98-.15-.11-.4,.04-.98,.17-.51,.12-.77,.19-.94,.15-.34-.07-.56-.37-.86-.94-.8-1.48-1.27-2.35-.93-2.95,.04-.06,.28-.48,.6-.47,.16,0,.22,.11,.28,.09,.19-.1,.05-1.49-.9-2.36-.23-.21-.8-.73-1.38-.58-.78,.19-1.03,1.43-1.05,2.07-.02,.72,.31,1.28,.81,2.22,.43,.79,.57,.81,.7,1.31,.19,.6,.3,1.74-.3,2.1-.38,.23-.94,.09-1.28-.15-.63-.41-.75-1.19-.93-2.36-.11-.77-.14-1.43-.17-2.52-.02-.77-.02-1.28-.23-2.01-.15-.49-.35-1.19-.73-1.23-.43-.05-.84,.73-.93,.9-.32,.6-.32,1.19-.31,1.42,.04,.75,.33,.9,.54,1.8,.16,.74,.12,1.33,.11,1.59-.06,.74-.14,1.7-.84,2.3-.11,.1-.67,.57-1.33,.43-.69-.12-1.05-.8-1.14-.99-.32-.6-.19-1-.14-2.51,.07-2.23-.2-2.54-.38-2.67-.41-.27-1.01-.02-1.16,.04-1.62,.67-2.01,3.43-2.09,3.91-.04,.22-.06,.33-.11,.56-.17,.8-.3,1.36-.58,1.42-.28,.07-.62-.4-.75-.58-.22-.31-.49-.8-.64-2-.15-1.21,0-1.72-.43-2.38-.11-.19-.31-.48-.49-.44Z"/>
      <path class="cls-1" d="M43.71,26.29c-.57,.14-.91,1.04-.96,1.16-.1,.26-.25,.67-.17,1.19,.04,.27,.09,.63,.37,.77,.32,.16,.72-.11,.9-.28,.16-.16,.37-.48,.27-.65-.1-.16-.38-.02-.54-.22-.2-.21-.06-.62-.04-.69,.12-.38,.37-.42,.48-.86,.06-.25,.02-.32-.01-.36-.09-.09-.23-.05-.3-.04Z"/>
      <path class="cls-1" d="M48.87,26.5c-.11,.09-.48,.38-.58,1.35-.06,.6,0,.54-.05,1.46-.02,.52,.2,.78,.31,.83,.15,.07,.46-.3,.52-.37,.56-.68,.56-1.47,.56-2.49,0-.36-.01-.64-.19-.73-.16-.09-.44-.12-.57-.04Z"/>
      <path class="cls-1" d="M70.3,45.13c-.94-2.42-2.21-4.09-2.62-4.76-.91-1.52-1.83-2.99-2.75-4.43-.14-1.57-.26-2.91-.37-3.72,.07-.3,.23-.37,.23-.37,.16-.06,.27,.06,.37,0,.21-.1,.02-.83,.02-.83-.3-1.11-.89-1.65-2.12-3.36-.17-.22-.42-.65-.69-.62-.37,.04-.59,.86-.65,1.39-.05,.51,.01,.98,.11,1.37-.23-.47-.8-1.16-.91-1.31-.14-.15-.67-.78-1.53-1.48-.94-.75-1.19-.72-1.3-.67-.25,.1-.32,.41-.44,.93-.11,.43-.27,1.11,.04,1.85,.12,.27,.27,.47,.37,.59,2,2.37,3.63,4.6,4.99,6.67,.48,5.26,.68,11.94,.59,13.68-.02,.64-.12,2.18,.35,2.32,.4,.12,1-.86,1.3-1.33,.88-1.43,.64-2.7,.51-3.86,0,0-.23-3.47-.52-7.15,.5,.89,.95,1.73,1.34,2.51,1.64,3.27,3.36,6.39,3.64,6.49,.49,.16,.68-2.28,.05-3.91Zm-9.11-14.69s-.1-.15-.06-.21c.09-.15,.64,.15,.79,0,.01-.01,.02-.05,.02-.07,.14,.42,.3,.7,.32,.8,.1,.4,.2,.86,.29,1.39-.45-.64-.89-1.28-1.36-1.91Z"/>
      <path class="cls-1" d="M65.88,28.08c-.04,.46,.39,.58,.84,1.46,.09,.17,.32,.63,.42,1.25,.12,.77-.04,1.21,.1,1.26,.16,.06,.58-.48,.8-1.1,.02-.07,.54-1.53-.28-2.8-.2-.28-.62-.93-1.13-.86-.36,.05-.7,.42-.74,.8Z"/>
      <path class="cls-1" d="M66.61,34.26c-.2-.17-.12-.43-.25-.48-.14-.06-.43,.19-.58,.48-.19,.41-.07,.93,.21,1.27,.48,.59,1.32,.48,1.48,.46,.16-.02,.84-.11,1.21-.69,.25-.38,.37-.98,.1-1.3-.1-.11-.28-.22-.4-.17-.2,.07-.1,.52-.26,.56-.12,.04-.3-.16-.37-.28-.16-.23-.11-.4-.21-.43-.14-.05-.37,.15-.47,.37-.09,.16-.06,.27-.15,.32-.1,.05-.23-.02-.32-.1Z"/>
      <path class="cls-1" d="M79.71,36.16c-.26-.12-.22-.4-.43-.54-.25-.17-.73-.07-.99,.2-.31,.31-.25,.77-.23,.93,.02,.25,.14,.67,1.53,1.9,.97,.88,1.21,.94,1.37,.86,.2-.09,.25-.36,.3-.7,.17-1.01-.25-1.52,.07-1.88,.2-.23,.47-.12,.73-.47,.13-.19,.17-.38,.18-.49,.07-.41,.02-1.22-.58-1.51-.36-.16-.9-.14-1.11,.15-.32,.43,.25,1.23-.06,1.48-.14,.11-.43,.11-.48,.11-.1,0-.2,0-.3-.04Z"/>
      <path class="cls-1" d="M88.26,53.08c.01-.32,.3-.4,.3-.6,.01-.3-.57-.69-1.14-.64-.4,.04-.83,.28-.81,.52,.01,.28,.7,.3,.85,.79,.07,.23-.01,.47-.06,.58-.25,.6-.85,.63-.88,1.01-.02,.22,.17,.49,.41,.58,.38,.15,.62-.28,1.68-.72,.53-.21,.84-.25,.9-.49,.05-.2-.09-.46-.28-.58-.32-.19-.68,.1-.88-.1-.11-.11-.1-.28-.09-.35Z"/>
      <path class="cls-1" d="M77.03,44.83s-.28-2.37-1.06-8c-.22-1.67-.57-3.32-.72-4.99,.15-.02,.31-.01,.46-.02,.17,0,.58,.04,.72-.1,.19-.2-.19-.63-.27-.8-.2-.37-.39-.73-.59-1.1-.31-.57-.63-1.15-.94-1.73-.12-.23-.41-1.14-.75-1.11-.42,.01-.69,1.73-.78,2.85-.16,2.15,.27,3.81,.35,4.12,.8,3.15,1.78,8.92,2.02,14.22,.05,1.23-.22,3.02,.21,3.14,.33,.09,.9-.88,1.2-1.54,.79-1.79,.39-3.49,.16-4.94Z"/>
      <path class="cls-1" d="M70.16,27.32c-.8,1.27-.81,2.52-.81,2.52,0,1.21,.32,1.44,.49,3.35,.05,.46,.05,.75,.07,1.04,.27,6.09,.79,8.59,.94,11,.07,1.06,.43,1.79,.26,3.74-.05,.57-.46,1-.9,1.54-.53,.65-3.46,2.78-4.79,3.51-.17,.09-.54,.11-.63,.32-.09,.23,.36,.65,.69,.85,1.04,.63,2.44,.04,2.84-.12,2.07-.88,3.05-2.84,3.43-3.65,.59-1.22,.81-2.37,.95-3.65,.65-6.22-.9-12.11-.9-12.11,0,0-.98-3.65-.35-3.86,.09-.04,.22,.05,.38-.04,.25-.12,.3-.51,.31-.6,.06-.56-.21-1-.37-1.3-.91-1.62-1.04-2.73-1.41-2.69-.1,.02-.17,.12-.21,.17Z"/>
      <g>
        <path class="cls-1" d="M83.31,41.62c.44-.43,.48-2.06,0-1.93-.09,.02-3.39,2.2-3.75,2.56-.36,.36-.6,.6-.6,1.01s-.11,.9,0,1c.11,.11,3.93-2.2,4.36-2.64Z"/>
        <path class="cls-1" d="M82.15,42.87c-.22,.23-.05,1.44,.11,1.79,.17,.35,.3,2.21,.3,2.41,0,.19,.2,.9,.51,.59,.3-.3,.85-1.35,.85-1.86s-.62-2.43-.85-2.93c-.09-.17-.68-.22-.91,0Z"/>
        <path class="cls-1" d="M91.04,32.02c.04,.31,.1,.8,.12,1.39,.04,.88-.05,1.3,.06,1.32,.16,.05,.63-.69,.78-1.53,.16-.88-.09-1.57-.3-2.17-.21-.62-.38-1.11-.8-1.21-.26-.06-.58,.05-.74,.26-.26,.36,.02,.9,.15,1.15,.22,.42,.54,.67,.73,.79Z"/>
        <path class="cls-1" d="M89.51,50.66c.56-.77,.91-.94,1.11-1.79,.06-.31,.12-1.62,.12-3.32,.83,1.28,1.58,2.51,2.2,3.62,.81,1.12,.93,1.3,.94,1.32,.01-.04,.7-2.15-.19-3.94-.74-1.49-2.46-3.83-3.02-4.6-.1-2.25-.28-4.51-.62-5.94-.8-3.51-.9-3.95-.36-3.95s-.75-3.51-1.25-4.39c-.49-.88-1.12-.59-1.31-.41s-.62,.42-.47,1.25c.35,1.93,.67,3.9,.94,5.93,.2,1.36,.36,2.69,.5,4.01-.69-.94-1.46-2-2.18-3.02-.16-2.1-.26-3.64-.26-3.72,0-.17,.58-.26,.58-.49,0-.22-.68-1.77-1.1-2.18-1.06-1.06-.86-2.05-1.23-2.04-.36,0-.69,.7-.68,.91,.09,1.09,.19,2.62,.3,4.15-.62-.9-1.03-1.52-1.03-1.6,0-.4-.02-.4,.22-.4,.26,0,.4-.12,.51-.23s-3.57-4.14-3.31-2.83c0,0-.85,2.6,.22,3.94,.4,.48,1.86,2.37,3.73,4.88,.06,.52,.14,.95,.21,1.25,0,0,.91,6.34,.46,11.15-.05,.43-.47,1.46-1.1,1.54-.47,.07-.93-.42-1.26-.77-.89-.96-.96-1.62-1.56-1.8-.48-.14-.85,.1-1.09,.28-.41,.31-.79,.72-1.38,2.36-.57,1.56-.63,2.33-1.16,2.8-.22,.19-.6,.32-1.16,.22-1.04-.19-1.38-2.18-1.52-2.78-.31-1.32-.01-2.28-.06-2.28-.09-.01-1.31,3.23,.1,5.6,.74,1.26,2.21,2.26,3,1.9,.79-.36,1.21-1.59,1.64-3.77,.15-.77,.81-1.2,1.38-1.22,1.05-.07,1.39,1.74,2.77,2.09,1.14,.28,2.39-.58,3-1.22,.6-.64,1.01-2.05,.37-8.69-.11-1.12-.22-2.32-.32-3.49,.75,1.04,1.52,2.11,2.27,3.2,.26,3.06,.41,6.01,.47,8.85,0,0,.03,.4,.57-.36Z"/>
        <path class="cls-1" d="M94.95,31.44c.28-.3,1.35,.44,1.19-.3s-2.09-4.31-2.99-4.16c-.33,.05-.65,1.1-.65,1.56s.26,2.9,.49,4.67c.22,1.78,1.83,15.57,1.44,16.83-.38,1.26-1.32,2.06-1.94,2.67-.6,.62-3.41,1.74-3.41,2.48s1.44,.67,2.86,.17c1.42-.49,3.48-1.56,3.8-3.78,.32-2.22,.58-8.21,.2-11.89-.4-3.68-1.3-7.96-1-8.25Z"/>
      </g>
      <path class="cls-1" d="M63.14,44.91c-.09-.23-.77-.15-.96-.14-1.91,.2-7.37-.02-7.38-.2,0-.05,.52-.06,1.33-.28,.6-.16,1.86-.52,2.92-1.48,.66-.58,1.48-1.33,1.54-2.52,.05-.94-.39-2.14-1.48-2.7-.81-.42-1.88-.43-2.64,.06-.83,.54-1.06,1.53-1.28,2.49-.27,1.14-.01,1.3-.3,1.7-.68,.98-2.24,.07-4.12,.96-1.15,.54-1.85,1.47-2.21,2.09-.06-.47-.14-1-.23-1.67-.56-3.53-1.15-4.53-1.74-5.18-.23-.25-.81-.89-1.26-.74-.53,.19-.54,1.41-.54,1.7-.01,1.26,.44,1.89,.99,3.42,.47,1.31,.75,2.1,.78,3.12,.05,1.95-.86,3.42-1.2,3.9-1.04,1.54-2.37,2.42-3.25,2.83-.98,.47-1.73,.56-2.32,.23-.35-.2-.53-.56-.65-1.06,.1-.06,.17-.11,.23-.16,.84-.56,1.68-1.12,2.58-2.07,1.1-1.17,2.17-2.32,2.36-4.06,.12-1.1-.05-2.84-.67-3.52-.02-.04-.31-.36-.23-.46,.09-.12,.48,.15,.65,.02,.2-.19-.1-.96-.51-1.53-.33-.48-.78-1.11-1.54-1.19-.44-.04-1.05,.11-1.36,.57-.51,.75,.16,1.84,.3,2.05,.36,.56,.59,.46,1,1.06,.47,.7,.54,1.44,.54,1.8,.01,.32-.02,.86-.35,1.58-.53,1.15-1.52,2.12-3.27,3.35-.05-1.62,.17-2.53-.02-2.58-.24-.07-.95,1.31-1.33,2.83-.06,.26-.12,.51-.19,.75-1.47,.93-1.46,.83-2.84,1.69-1.04,.65-4.58,2.89-4.36,3.33,.25,.49,4.9-1.42,5.16-1.52,.7-.3,1.31-.57,1.83-.83,.07,.4,.22,.77,.46,1.14,.78,1.14,2.18,1.69,3.39,1.67,1.16-.02,1.91-.57,3.16-1.48,.77-.56,2.33-1.72,3.44-3.89,.06-.11,.11-.23,.16-.35,.06,.38,.18,.75,.39,1.14,.27,.51,.58,.78,1.12,1.26,1.2,1.05,2.38,1.6,3.1,1.88,.75,.28,2.14,.79,2.9,.32,.36-.22,.52-.54,.52-.54,.05-.1,.21-.48,.09-.84-.19-.58-.86-.43-1.44-1.1-.06-.07-.58-.7-.42-1.26,.12-.43,.63-.67,1.42-.9,1.56-.48,2.86-.58,4.76-.9,1.01-.17,1.63-.32,1.86-.81,.23-.44-.1-.68,.17-1.32,.05-.12,.32-.7,.8-1.35,.07-.1,.16-.22,.12-.32Zm-6.33-4.83c.11-.2,.51-.23,.78-.11,.28,.14,.37,.42,.49,.83,.06,.2,.05,.26,.01,.3-.1,.15-.46,.07-.7-.05-.39-.2-.74-.7-.58-.96Zm-4.78,8.97c-.3,.6,.06,1.2-.28,1.42-.22,.14-.52,.02-.75-.06-.77-.3-1.73-1.11-1.83-2.32-.02-.17-.1-1.22,.44-1.52,.36-.2,.63,.16,1.48,.3,1.26,.21,1.86-.37,2.42,.1,.17,.15,.41,.44,.36,.74-.11,.64-1.41,.49-1.84,1.35Z"/>
    </g>
  </g>
</svg>