<?xml version="1.0" encoding="utf-8"?>
<!-- Generator: Adobe Illustrator 26.1.0, SVG Export Plug-In . SVG Version: 6.00 Build 0)  -->
<svg version="1.1" id="Layer_2_00000100364889588293981900000010664441611906659218_"
	 xmlns="http://www.w3.org/2000/svg" xmlns:xlink="http://www.w3.org/1999/xlink" x="0px" y="0px" viewBox="0 0 159.4 199.9"
	 style="enable-background:new 0 0 159.4 199.9;" xml:space="preserve">
<style type="text/css">
	.st0{opacity:0.9;fill:#FFFFFF;enable-background:new    ;}
	.st1{fill:#FDBB40;}
	.st2{fill:#FFFFFF;}
	.st3{fill:url(#SVGID_1_);}
	.st4{fill:url(#SVGID_00000013191059611215050580000014360463033326114488_);}
	.st5{fill:#233B45;}
	.st6{fill:#7C7D93;}
</style>
<g id="Layer_1-2">
	<g>
		<path class="st0" d="M26.1,15.1h107.1c6.1,0,11,4.9,11,11v147.6c0,6.1-4.9,11-11,11H26.1c-6.1,0-11-4.9-11-11V26.2
			C15.1,20.1,20,15.1,26.1,15.1z"/>
		<g>
			<g>
				<path class="st1" d="M114.6,173.2H44.8c-4.9,0-8.9-4-8.9-8.9s4-8.9,8.9-8.9h69.8c4.9,0,8.9,4,8.9,8.9S119.5,173.2,114.6,173.2z"
					/>
				<g>
					<path class="st2" d="M67.3,166.8c-0.3-0.1-0.6-0.3-0.8-0.5c-0.1-0.1-0.1-0.2-0.1-0.3s0-0.1,0.1-0.2c0-0.1,0.1-0.1,0.2-0.1
						s0.1,0,0.2,0.1c0.5,0.4,1,0.6,1.6,0.6c0.4,0,0.8-0.1,1-0.2s0.4-0.4,0.4-0.7c0-0.2-0.1-0.3-0.2-0.4s-0.3-0.2-0.4-0.3
						c-0.2-0.1-0.4-0.1-0.8-0.2c-0.4-0.1-0.8-0.2-1-0.3c-0.3-0.1-0.5-0.3-0.7-0.5s-0.2-0.5-0.2-0.8s0.1-0.6,0.2-0.8s0.4-0.4,0.7-0.6
						c0.3-0.1,0.6-0.2,1-0.2s0.7,0.1,1,0.2c0.3,0.1,0.6,0.3,0.8,0.5c0.1,0.1,0.1,0.2,0.1,0.3s0,0.1-0.1,0.2s-0.1,0.1-0.2,0.1
						s-0.1,0-0.2-0.1c-0.2-0.2-0.5-0.4-0.7-0.4c-0.2-0.1-0.5-0.1-0.8-0.1c-0.4,0-0.8,0.1-1,0.3s-0.4,0.4-0.4,0.8
						c0,0.3,0.1,0.5,0.3,0.6c0.2,0.1,0.5,0.3,1,0.4c0.5,0.1,0.8,0.2,1.1,0.3c0.3,0.1,0.5,0.2,0.7,0.4s0.3,0.4,0.3,0.8
						s-0.1,0.6-0.2,0.8s-0.4,0.4-0.7,0.5c-0.3,0.1-0.7,0.2-1,0.2S67.7,166.9,67.3,166.8L67.3,166.8z"/>
					<path class="st2" d="M74.5,163.1c0.1,0.1,0.1,0.1,0.1,0.2v3.3c0,0.1,0,0.2-0.1,0.2s-0.1,0.1-0.2,0.1s-0.2,0-0.2-0.1
						s-0.1-0.1-0.1-0.2v-0.4c-0.1,0.2-0.3,0.4-0.5,0.5s-0.4,0.2-0.7,0.2c-0.4,0-0.8-0.1-1-0.4c-0.2-0.2-0.3-0.6-0.3-1.1v-2.1
						c0-0.1,0-0.2,0.1-0.2c0.1-0.1,0.1-0.1,0.2-0.1s0.2,0,0.2,0.1c0.1,0.1,0.1,0.1,0.1,0.2v2.1c0,0.3,0.1,0.6,0.2,0.7
						s0.3,0.2,0.6,0.2c0.3,0,0.6-0.1,0.8-0.3c0.2-0.2,0.3-0.5,0.3-0.9v-1.9c0-0.1,0-0.2,0.1-0.2c0.1-0.1,0.1-0.1,0.2-0.1
						S74.4,163.1,74.5,163.1L74.5,163.1z"/>
					<path class="st2" d="M76.3,166.9c-0.2-0.1-0.4-0.1-0.6-0.2c-0.1-0.1-0.2-0.1-0.2-0.2c0-0.1-0.1-0.1-0.1-0.2
						c0-0.1,0-0.1,0.1-0.2c0,0,0.1-0.1,0.2-0.1s0.2,0,0.3,0.1c0.2,0.1,0.3,0.2,0.5,0.2s0.3,0.1,0.6,0.1c0.3,0,0.5-0.1,0.7-0.1
						c0.2-0.1,0.2-0.2,0.2-0.4c0-0.1,0-0.2-0.1-0.3s-0.2-0.1-0.3-0.2c-0.1-0.1-0.3-0.1-0.6-0.2c-0.4-0.1-0.8-0.2-1-0.4
						s-0.3-0.4-0.3-0.7c0-0.2,0.1-0.4,0.2-0.6c0.1-0.2,0.3-0.3,0.5-0.4c0.2-0.1,0.5-0.1,0.8-0.1c0.2,0,0.4,0,0.6,0.1
						s0.3,0.1,0.5,0.2c0.2,0.1,0.3,0.2,0.3,0.4c0,0.1,0,0.1-0.1,0.2s-0.1,0.1-0.2,0.1s-0.2,0-0.3-0.1c-0.1-0.1-0.3-0.2-0.4-0.2
						c-0.1-0.1-0.3-0.1-0.5-0.1s-0.4,0.1-0.6,0.2c-0.2,0.1-0.2,0.2-0.2,0.4c0,0.1,0,0.2,0.1,0.3s0.1,0.1,0.3,0.2
						c0.1,0.1,0.3,0.1,0.5,0.2c0.3,0.1,0.6,0.2,0.8,0.2c0.2,0.1,0.3,0.2,0.4,0.3s0.1,0.3,0.1,0.5c0,0.3-0.1,0.6-0.4,0.8
						S77.5,167,77,167C76.8,166.9,76.5,166.9,76.3,166.9L76.3,166.9z"/>
					<path class="st2" d="M80.1,166.7c-0.3-0.2-0.5-0.4-0.6-0.7c-0.2-0.3-0.2-0.6-0.2-1s0.1-0.7,0.2-1s0.4-0.5,0.6-0.7
						c0.3-0.2,0.6-0.2,0.9-0.2c0.2,0,0.4,0,0.6,0.1s0.4,0.1,0.5,0.2c0.1,0.1,0.2,0.1,0.2,0.2c0,0.1,0.1,0.1,0.1,0.2s0,0.1-0.1,0.2
						c0,0.1-0.1,0.1-0.2,0.1H82c0,0-0.1,0-0.1-0.1h-0.1c-0.1-0.1-0.3-0.2-0.4-0.2c-0.1-0.1-0.3-0.1-0.4-0.1c-0.4,0-0.7,0.1-0.9,0.4
						s-0.3,0.6-0.3,1.1s0.1,0.8,0.3,1.1s0.5,0.4,0.9,0.4c0.2,0,0.3,0,0.4-0.1s0.2-0.1,0.4-0.2c0.1,0,0.1-0.1,0.2-0.1s0.1,0,0.1,0
						c0.1,0,0.1,0,0.1,0.1s0.1,0.1,0.1,0.2c0,0.1,0,0.1-0.1,0.2c0,0.1-0.1,0.1-0.2,0.2c-0.1,0.1-0.3,0.2-0.5,0.2
						c-0.2,0.1-0.4,0.1-0.6,0.1C80.6,166.9,80.3,166.9,80.1,166.7L80.1,166.7z"/>
					<path class="st2" d="M83.2,162.1c-0.1-0.1-0.1-0.2-0.1-0.3s0-0.2,0.1-0.3s0.2-0.1,0.3-0.1s0.2,0,0.3,0.1s0.1,0.2,0.1,0.3
						s0,0.2-0.1,0.3s-0.2,0.1-0.3,0.1S83.2,162.2,83.2,162.1z M83.2,166.9c-0.1-0.1-0.1-0.1-0.1-0.2v-3.3c0-0.1,0-0.2,0.1-0.2
						c0.1-0.1,0.1-0.1,0.2-0.1s0.2,0,0.2,0.1c0.1,0.1,0.1,0.1,0.1,0.2v3.3c0,0.1,0,0.2-0.1,0.2c-0.1,0.1-0.1,0.1-0.2,0.1
						S83.3,166.9,83.2,166.9z"/>
					<path class="st2" d="M87.7,163.3c0.2,0.2,0.4,0.4,0.6,0.7c0.1,0.3,0.2,0.6,0.2,1s-0.1,0.7-0.2,1s-0.3,0.5-0.6,0.7
						c-0.2,0.2-0.5,0.2-0.9,0.2c-0.3,0-0.6-0.1-0.8-0.2c-0.2-0.1-0.4-0.3-0.5-0.6v1.8c0,0.1,0,0.2-0.1,0.2s-0.1,0.1-0.2,0.1
						s-0.2,0-0.2-0.1c-0.1-0.1-0.1-0.1-0.1-0.2v-4.7c0-0.1,0-0.2,0.1-0.2c0.1-0.1,0.1-0.1,0.2-0.1s0.2,0,0.2,0.1
						c0.1,0.1,0.1,0.1,0.1,0.2v0.4c0.1-0.2,0.3-0.4,0.5-0.6s0.5-0.2,0.8-0.2C87.2,163,87.4,163.1,87.7,163.3L87.7,163.3z
						 M87.5,166.1c0.2-0.2,0.3-0.6,0.3-1.1s-0.1-0.8-0.3-1.1c-0.2-0.2-0.5-0.4-0.8-0.4s-0.7,0.1-0.8,0.4s-0.3,0.6-0.3,1.1
						s0.1,0.8,0.3,1.1c0.2,0.2,0.5,0.4,0.8,0.4S87.3,166.3,87.5,166.1L87.5,166.1z"/>
					<path class="st2" d="M89.4,162.1c-0.1-0.1-0.1-0.2-0.1-0.3s0-0.2,0.1-0.3s0.2-0.1,0.3-0.1s0.2,0,0.3,0.1s0.1,0.2,0.1,0.3
						s0,0.2-0.1,0.3s-0.2,0.1-0.3,0.1S89.5,162.2,89.4,162.1z M89.5,166.9c-0.1-0.1-0.1-0.1-0.1-0.2v-3.3c0-0.1,0-0.2,0.1-0.2
						c0.1-0.1,0.1-0.1,0.2-0.1s0.2,0,0.2,0.1c0.1,0.1,0.1,0.1,0.1,0.2v3.3c0,0.1,0,0.2-0.1,0.2c-0.1,0.1-0.1,0.1-0.2,0.1
						S89.6,166.9,89.5,166.9z"/>
					<path class="st2" d="M93.3,166.7c0,0.1,0,0.1-0.1,0.2c-0.1,0-0.2,0.1-0.3,0.1h-0.2c-0.4,0-0.7-0.2-0.9-0.4
						c-0.2-0.2-0.3-0.5-0.3-1v-1.9H91c-0.1,0-0.2,0-0.2-0.1c-0.1,0-0.1-0.1-0.1-0.2c0-0.1,0-0.1,0.1-0.2s0.1-0.1,0.2-0.1h0.5v-0.9
						c0-0.1,0-0.2,0.1-0.2c0.1-0.1,0.1-0.1,0.2-0.1s0.2,0,0.2,0.1c0.1,0.1,0.1,0.1,0.1,0.2v0.9H93c0.1,0,0.2,0,0.2,0.1
						c0.1,0.1,0.1,0.1,0.1,0.2c0,0.1,0,0.1-0.1,0.2s-0.1,0.1-0.2,0.1h-0.9v2c0,0.3,0.1,0.5,0.2,0.6s0.3,0.2,0.5,0.2H93
						C93.2,166.5,93.3,166.5,93.3,166.7L93.3,166.7z"/>
				</g>
			</g>
			<g>
				<g>
					
						<radialGradient id="SVGID_1_" cx="77.9985" cy="728.2062" r="37" gradientTransform="matrix(1 0 0 1 1.545807e-03 -642.0062)" gradientUnits="userSpaceOnUse">
						<stop  offset="0" style="stop-color:#67C7C1"/>
						<stop  offset="0.98" style="stop-color:#FFFFFF"/>
					</radialGradient>
					<circle class="st3" cx="78" cy="86.2" r="37"/>
					<circle class="st2" cx="78" cy="86.2" r="30.8"/>
					
						<linearGradient id="SVGID_00000027564645037987680980000018412707849967893435_" gradientUnits="userSpaceOnUse" x1="-17.928" y1="840.6926" x2="101.2542" y2="693.5205" gradientTransform="matrix(1 0 0 1 0 -642)">
						<stop  offset="0.4945" style="stop-color:#FFFFFF"/>
						<stop  offset="0.4994" style="stop-color:#FBFDFD"/>
						<stop  offset="0.5502" style="stop-color:#D4EFED"/>
						<stop  offset="0.6046" style="stop-color:#B2E3E0"/>
						<stop  offset="0.6623" style="stop-color:#97D9D4"/>
						<stop  offset="0.7247" style="stop-color:#81D1CC"/>
						<stop  offset="0.794" style="stop-color:#72CBC6"/>
						<stop  offset="0.8755" style="stop-color:#6AC8C2"/>
						<stop  offset="1" style="stop-color:#67C7C1"/>
					</linearGradient>
					<path style="fill:url(#SVGID_00000027564645037987680980000018412707849967893435_);" d="M78,123c-20.3,0-36.7-16.5-36.7-36.7
						S57.7,49.5,78,49.5s36.7,16.5,36.7,36.7c0,1.5-1.2,2.8-2.8,2.8s-2.8-1.2-2.8-2.8C109.2,69,95.2,55,78,55S46.8,69,46.8,86.2
						s14,31.2,31.2,31.2c1.5,0,2.8,1.2,2.8,2.8S79.5,123,78,123z"/>
				</g>
				<g>
					<path class="st5" d="M68.8,79.5c0.1,0.1,0.2,0.2,0.2,0.4c0,0.1-0.1,0.3-0.1,0.5L62.1,93c-0.1,0.2-0.3,0.3-0.5,0.3
						s-0.3-0.1-0.4-0.2S61,92.9,61,92.8s0-0.2,0.1-0.3l6.4-12.1h-7.2c-0.2,0-0.3-0.1-0.4-0.2c-0.1-0.1-0.2-0.2-0.2-0.4
						c0-0.2,0-0.3,0.2-0.4c0.1-0.1,0.2-0.1,0.4-0.1h8.1C68.6,79.3,68.7,79.4,68.8,79.5L68.8,79.5z"/>
					<path class="st5" d="M79,85.2c0.7,0.4,1.2,0.9,1.5,1.5S81,88.1,81,89s-0.2,1.6-0.6,2.3c-0.4,0.7-0.9,1.2-1.6,1.6
						s-1.5,0.6-2.4,0.6c-0.8,0-1.6-0.2-2.4-0.4c-0.8-0.3-1.4-0.7-1.9-1.2c-0.2-0.2-0.3-0.3-0.3-0.6c0-0.1,0-0.3,0.1-0.4
						s0.2-0.2,0.3-0.2c0.1,0,0.3,0.1,0.4,0.2c0.6,0.5,1.2,0.9,1.8,1.2c0.6,0.2,1.2,0.4,1.9,0.4c1,0,1.8-0.3,2.4-0.9s0.9-1.4,0.9-2.4
						s-0.3-1.8-0.9-2.4s-1.4-0.9-2.4-0.9c-1.3,0-2.3,0.5-3.1,1.6c-0.2,0.2-0.4,0.3-0.6,0.3c-0.1,0-0.3-0.1-0.4-0.1S72,87.5,72,87.3
						v-7.1c0-0.2,0.1-0.3,0.2-0.4s0.2-0.2,0.4-0.2H80c0.2,0,0.3,0.1,0.4,0.1c0.1,0.1,0.2,0.2,0.2,0.4c0,0.1-0.1,0.3-0.2,0.4
						s-0.2,0.2-0.4,0.2h-6.5v5.5c0.4-0.4,0.8-0.7,1.3-1c0.5-0.2,1.1-0.3,1.8-0.3C77.5,84.6,78.3,84.8,79,85.2L79,85.2z"/>
					<path class="st5" d="M84.2,86.6c-0.6-0.7-0.9-1.8-0.9-3.2s0.3-2.5,0.9-3.2s1.4-1.1,2.4-1.1s1.8,0.4,2.4,1.1s0.9,1.8,0.9,3.2
						s-0.3,2.5-0.9,3.2s-1.4,1.1-2.4,1.1S84.8,87.4,84.2,86.6z M88.2,86c0.3-0.5,0.5-1.4,0.5-2.5s-0.2-2-0.5-2.5s-0.9-0.8-1.6-0.8
						S85.3,80.4,85,81s-0.5,1.4-0.5,2.5s0.2,2,0.5,2.5s0.9,0.8,1.6,0.8S87.8,86.5,88.2,86z M87.3,93.6c-0.1,0-0.2-0.1-0.3-0.2
						c-0.1-0.1-0.2-0.2-0.2-0.4c0-0.1,0-0.3,0.1-0.3l7.7-13.3c0.1-0.2,0.3-0.4,0.5-0.4c0.1,0,0.2,0.1,0.3,0.2
						c0.1,0.1,0.2,0.2,0.2,0.4c0,0.1,0,0.2-0.1,0.4l-7.7,13.3C87.7,93.5,87.5,93.6,87.3,93.6z M93.4,92.3c-0.6-0.7-0.9-1.8-0.9-3.2
						s0.3-2.5,0.9-3.2s1.4-1.1,2.4-1.1s1.8,0.3,2.4,1.1c0.6,0.7,0.9,1.8,0.9,3.2s-0.3,2.5-0.9,3.2s-1.4,1.1-2.4,1.1
						S94,93.1,93.4,92.3z M97.4,91.7c0.3-0.5,0.5-1.4,0.5-2.5s-0.2-2-0.5-2.5s-0.9-0.8-1.6-0.8s-1.3,0.3-1.6,0.8s-0.5,1.4-0.5,2.5
						s0.2,2,0.5,2.5s0.9,0.8,1.6,0.8S97.1,92.2,97.4,91.7L97.4,91.7z"/>
				</g>
			</g>
			<g>
				<path class="st6" d="M29.4,28.7c-0.2-0.3-0.4-0.5-0.6-0.8c-0.2-0.2-0.4-0.4-0.7-0.6c0.6-0.1,1-0.3,1.3-0.6
					c0.3-0.3,0.4-0.7,0.4-1.2c0-0.2,0-0.5-0.1-0.7s-0.2-0.4-0.4-0.6S29,24,28.8,23.9s-0.4-0.1-0.6-0.2s-0.5,0-0.8,0h-2.2
					c-0.3,0-0.5,0.1-0.6,0.2s-0.2,0.3-0.2,0.6v5.1c0,0.3,0.1,0.5,0.2,0.6s0.3,0.2,0.5,0.2s0.4-0.1,0.5-0.2s0.2-0.3,0.2-0.6v-2.1h0.5
					c0.2,0,0.4,0,0.6,0.1s0.3,0.2,0.5,0.3c0.2,0.2,0.3,0.4,0.5,0.7l0.5,0.9c0.1,0.2,0.2,0.4,0.3,0.5c0.1,0.1,0.2,0.2,0.3,0.3
					c0.1,0.1,0.2,0.1,0.4,0.1c0.1,0,0.2,0,0.3-0.1s0.2-0.1,0.2-0.2C30,30,30,29.9,30,29.8c0-0.1,0-0.2-0.1-0.5
					C29.7,29.2,29.6,28.9,29.4,28.7z M27.8,26.4c-0.2,0.1-0.5,0.1-0.8,0.1h-1.2v-1.8H27c0.5,0,0.8,0,0.9,0.1
					c0.2,0.1,0.3,0.2,0.4,0.3s0.1,0.3,0.1,0.5s-0.1,0.4-0.2,0.5S28,26.4,27.8,26.4z"/>
				<path class="st6" d="M33.6,29.1c-0.2,0-0.3,0.1-0.5,0.2C33,29.4,33,29.5,33,29.7s0.1,0.4,0.2,0.5s0.3,0.2,0.5,0.2
					s0.3-0.1,0.5-0.2c0.1-0.1,0.2-0.3,0.2-0.5s-0.1-0.3-0.2-0.5C34,29.1,33.8,29.1,33.6,29.1z"/>
				<path class="st6" d="M42.3,24c-0.5-0.3-1.1-0.4-1.8-0.4c-0.5,0-1,0.1-1.3,0.2c-0.4,0.2-0.7,0.4-1,0.7c-0.3,0.3-0.5,0.7-0.6,1.1
					s-0.2,0.9-0.2,1.4s0.1,1,0.2,1.4s0.3,0.8,0.6,1.1c0.3,0.3,0.6,0.5,1,0.7s0.9,0.2,1.4,0.2s1-0.1,1.4-0.2c0.4-0.2,0.7-0.4,1-0.7
					s0.5-0.7,0.6-1.1s0.2-0.9,0.2-1.4c0-0.7-0.1-1.3-0.4-1.8C43.1,24.7,42.8,24.3,42.3,24z M42.2,28.3c-0.2,0.4-0.4,0.6-0.7,0.8
					c-0.3,0.2-0.6,0.3-0.9,0.3c-0.3,0-0.5,0-0.7-0.1s-0.4-0.2-0.6-0.4c-0.2-0.2-0.3-0.4-0.4-0.8s-0.1-0.6-0.1-1s0-0.7,0.1-1
					s0.2-0.5,0.4-0.7s0.4-0.3,0.6-0.4c0.2-0.1,0.5-0.2,0.7-0.2c0.4,0,0.7,0.1,1,0.3s0.5,0.4,0.7,0.8s0.2,0.8,0.2,1.3
					C42.4,27.5,42.3,27.9,42.2,28.3z"/>
				<path class="st6" d="M47,29.1c-0.2,0-0.3,0.1-0.5,0.2c-0.1,0.1-0.2,0.3-0.2,0.5s0.1,0.4,0.2,0.5s0.3,0.2,0.5,0.2
					s0.3-0.1,0.5-0.2c0.1-0.1,0.2-0.3,0.2-0.5s-0.1-0.3-0.2-0.5C47.3,29.1,47.2,29.1,47,29.1z"/>
				<path class="st6" d="M52.2,23.8c-0.1-0.1-0.3-0.2-0.5-0.2s-0.4,0.1-0.5,0.2S51,24.1,51,24.4v5.2c0,0.3,0.1,0.5,0.2,0.6
					c0.1,0.1,0.3,0.2,0.5,0.2s0.4-0.1,0.5-0.2s0.2-0.3,0.2-0.6v-5.2C52.4,24.1,52.3,23.9,52.2,23.8z"/>
			</g>
			<g>
				<path class="st6" d="M26.4,39.5L26.4,39.5c0.4-0.1,0.7-0.5,0.7-1c0-0.3-0.1-0.5-0.3-0.7c-0.2-0.2-0.6-0.3-1.1-0.3
					c-0.3,0-0.7,0-0.9,0.1v3.6h0.5v-1.6h0.4c0.4,0,0.6,0.2,0.7,0.7s0.2,0.8,0.2,0.9h0.5c-0.1-0.1-0.2-0.5-0.3-1
					C26.9,39.8,26.7,39.6,26.4,39.5z M25.8,39.3h-0.5V38c0.1,0,0.2,0,0.5,0c0.5,0,0.8,0.2,0.8,0.7C26.7,39,26.3,39.3,25.8,39.3z"/>
				<path class="st6" d="M28.9,38.5c-0.8,0-1.2,0.6-1.2,1.4s0.5,1.3,1.3,1.3c0.4,0,0.7-0.1,0.9-0.2l-0.1-0.3
					c-0.2,0.1-0.4,0.1-0.7,0.1c-0.5,0-0.9-0.3-0.9-0.9H30c0,0,0-0.1,0-0.2C30,39.3,29.7,38.5,28.9,38.5z M28.1,39.6
					c0-0.3,0.3-0.8,0.7-0.8c0.5,0,0.7,0.5,0.7,0.8H28.1z"/>
				<path class="st6" d="M31.2,37.8l-0.5,0.1v0.6h-0.4v0.4h0.4v1.4c0,0.3,0,0.5,0.2,0.7c0.1,0.1,0.3,0.2,0.5,0.2s0.3,0,0.4-0.1v-0.4
					c-0.1,0-0.2,0-0.3,0c-0.3,0-0.4-0.2-0.4-0.5v-1.4h0.7v-0.4h-0.7L31.2,37.8L31.2,37.8z"/>
				<path class="st6" d="M34.6,38.6h-0.5v1.6c0,0.1,0,0.2,0,0.2c-0.1,0.2-0.3,0.4-0.6,0.4c-0.4,0-0.6-0.3-0.6-0.8v-1.5h-0.5v1.6
					c0,0.9,0.5,1.2,0.9,1.2c0.5,0,0.8-0.3,0.9-0.5l0,0v0.4h0.4c0-0.2,0-0.4,0-0.7C34.6,40.5,34.6,38.6,34.6,38.6z"/>
				<path class="st6" d="M35.8,39.1L35.8,39.1v-0.5h-0.4c0,0.2,0,0.5,0,0.8v1.8h0.5v-1.4c0-0.1,0-0.2,0-0.2c0.1-0.4,0.3-0.6,0.6-0.6
					c0.1,0,0.1,0,0.2,0v-0.5h-0.1C36.3,38.5,36,38.7,35.8,39.1z"/>
				<path class="st6" d="M38.5,38.5c-0.4,0-0.7,0.2-0.9,0.5l0,0v-0.4h-0.4c0,0.2,0,0.4,0,0.7v1.9h0.5v-1.6c0-0.1,0-0.2,0-0.2
					c0.1-0.3,0.3-0.5,0.6-0.5c0.5,0,0.6,0.4,0.6,0.8v1.5h0.5v-1.6C39.5,38.7,38.9,38.5,38.5,38.5z"/>
				<path class="st6" d="M42.9,37.5c-1,0-1.7,0.8-1.7,1.9c0,1.1,0.7,1.9,1.7,1.9c0.9,0,1.7-0.7,1.7-1.9
					C44.6,38.2,43.9,37.5,42.9,37.5z M42.9,40.9c-0.8,0-1.2-0.7-1.2-1.5s0.4-1.5,1.2-1.5s1.2,0.8,1.2,1.5
					C44.1,40.2,43.7,40.9,42.9,40.9z"/>
				<path class="st6" d="M46.5,38.5c-0.4,0-0.7,0.2-0.9,0.5l0,0v-0.4h-0.4c0,0.2,0,0.4,0,0.7v1.9h0.5v-1.6c0-0.1,0-0.2,0-0.2
					c0.1-0.3,0.3-0.5,0.6-0.5c0.5,0,0.6,0.4,0.6,0.8v1.5h0.5v-1.6C47.5,38.7,46.9,38.5,46.5,38.5z"/>
				<rect x="49.4" y="37.5" class="st6" width="0.5" height="3.7"/>
				<path class="st6" d="M52.1,38.5c-0.4,0-0.7,0.2-0.9,0.5l0,0v-0.4h-0.4c0,0.2,0,0.4,0,0.7v1.9h0.5v-1.6c0-0.1,0-0.2,0-0.2
					c0.1-0.3,0.3-0.5,0.6-0.5c0.5,0,0.6,0.4,0.6,0.8v1.5H53v-1.6C53,38.7,52.5,38.5,52.1,38.5z"/>
				<path class="st6" d="M54.9,40.1c-0.1,0.2-0.2,0.5-0.2,0.7l0,0c-0.1-0.2-0.1-0.4-0.2-0.7L54,38.6h-0.5l1,2.7H55l1-2.7h-0.5
					L54.9,40.1z"/>
				<path class="st6" d="M57.4,38.5c-0.8,0-1.2,0.6-1.2,1.4s0.5,1.3,1.3,1.3c0.4,0,0.7-0.1,0.9-0.2l-0.1-0.3
					c-0.2,0.1-0.4,0.1-0.7,0.1c-0.5,0-0.9-0.3-0.9-0.9h1.9c0,0,0-0.1,0-0.2C58.5,39.3,58.3,38.5,57.4,38.5z M56.6,39.6
					c0-0.3,0.3-0.8,0.7-0.8c0.5,0,0.7,0.5,0.7,0.8H56.6z"/>
				<path class="st6" d="M59.9,39.7c-0.3-0.1-0.5-0.2-0.5-0.4s0.2-0.4,0.4-0.4s0.4,0.1,0.5,0.2l0.1-0.4c-0.1-0.1-0.4-0.2-0.7-0.2
					c-0.6,0-0.9,0.4-0.9,0.8c0,0.3,0.2,0.6,0.7,0.8c0.4,0.1,0.5,0.3,0.5,0.5S59.8,41,59.5,41c-0.2,0-0.5-0.1-0.6-0.2l-0.1,0.4
					c0.2,0.1,0.5,0.2,0.7,0.2c0.6,0,1-0.3,1-0.8C60.6,40.1,60.4,39.9,59.9,39.7z"/>
				<path class="st6" d="M61.8,37.8l-0.5,0.1v0.6H61v0.4h0.4v1.4c0,0.3,0,0.5,0.2,0.7c0.1,0.1,0.3,0.2,0.5,0.2s0.3,0,0.4-0.1v-0.4
					c-0.1,0-0.2,0-0.3,0c-0.3,0-0.4-0.2-0.4-0.5v-1.4h0.7v-0.4h-0.7C61.8,38.4,61.8,37.8,61.8,37.8z"/>
				<path class="st6" d="M66,38.5c-0.3,0-0.4,0.1-0.6,0.2c-0.1,0.1-0.2,0.2-0.3,0.3l0,0c-0.1-0.3-0.4-0.5-0.8-0.5s-0.7,0.2-0.8,0.5
					l0,0v-0.4H63c0,0.2,0,0.4,0,0.7v1.9h0.5v-1.6c0-0.1,0-0.2,0-0.2c0.1-0.2,0.3-0.5,0.6-0.5c0.4,0,0.6,0.3,0.6,0.7v1.6h0.5v-1.6
					c0-0.1,0-0.2,0-0.2c0.1-0.2,0.3-0.4,0.6-0.4c0.4,0,0.6,0.3,0.6,0.8v1.5h0.5v-1.6C66.9,38.7,66.3,38.5,66,38.5z"/>
				<path class="st6" d="M68.7,38.5c-0.8,0-1.2,0.6-1.2,1.4s0.5,1.3,1.3,1.3c0.4,0,0.7-0.1,0.9-0.2l-0.1-0.3
					c-0.2,0.1-0.4,0.1-0.7,0.1c-0.5,0-0.9-0.3-0.9-0.9h1.9c0,0,0-0.1,0-0.2C69.8,39.3,69.6,38.5,68.7,38.5z M67.9,39.6
					c0-0.3,0.3-0.8,0.7-0.8c0.5,0,0.7,0.5,0.7,0.8H67.9z"/>
				<path class="st6" d="M71.7,38.5c-0.4,0-0.7,0.2-0.9,0.5l0,0v-0.4h-0.4c0,0.2,0,0.4,0,0.7v1.9h0.5v-1.6c0-0.1,0-0.2,0-0.2
					c0.1-0.3,0.3-0.5,0.6-0.5c0.5,0,0.6,0.4,0.6,0.8v1.5h0.5v-1.6C72.7,38.7,72.1,38.5,71.7,38.5z"/>
				<path class="st6" d="M74.7,38.9v-0.4H74v-0.8l-0.5,0.1v0.6h-0.4v0.4h0.4v1.4c0,0.3,0,0.5,0.2,0.7c0.1,0.1,0.3,0.2,0.5,0.2
					s0.3,0,0.4-0.1v-0.4c-0.1,0-0.2,0-0.3,0c-0.3,0-0.4-0.2-0.4-0.5v-1.4h0.8V38.9z"/>
			</g>
			<g>
				<path class="st6" d="M45.3,130.8l-0.5,1c-0.1,0.3-0.3,0.5-0.4,0.8l0,0c-0.1-0.3-0.2-0.5-0.4-0.8l-0.5-1H43l1.2,2.1v1.6h0.5v-1.6
					l1.2-2.1H45.3z"/>
				<path class="st6" d="M47,131.7c-0.7,0-1.3,0.5-1.3,1.4c0,0.8,0.6,1.4,1.3,1.4c0.6,0,1.3-0.4,1.3-1.4
					C48.2,132.3,47.7,131.7,47,131.7z M46.9,134.1c-0.5,0-0.8-0.4-0.8-1c0-0.5,0.2-1,0.8-1s0.8,0.6,0.8,1
					C47.7,133.7,47.4,134.1,46.9,134.1z"/>
				<path class="st6" d="M51.1,131.8h-0.5v1.6c0,0.1,0,0.2,0,0.2c-0.1,0.2-0.3,0.4-0.6,0.4c-0.4,0-0.6-0.3-0.6-0.8v-1.5h-0.5v1.6
					c0,0.9,0.5,1.2,0.9,1.2c0.5,0,0.8-0.3,0.9-0.5l0,0v0.4h0.4c0-0.2,0-0.4,0-0.7C51.1,133.7,51.1,131.8,51.1,131.8z"/>
				<path class="st6" d="M54.3,131.7c-0.4,0-0.7,0.2-0.9,0.5l0,0v-0.4H53c0,0.2,0,0.4,0,0.7v1.9h0.5v-1.6c0-0.1,0-0.2,0-0.2
					c0.1-0.3,0.3-0.5,0.6-0.5c0.5,0,0.6,0.4,0.6,0.8v1.5h0.5v-1.6C55.3,132,54.7,131.7,54.3,131.7z"/>
				<path class="st6" d="M57.2,131.7c-0.7,0-1.3,0.5-1.3,1.4c0,0.8,0.6,1.4,1.3,1.4c0.6,0,1.3-0.4,1.3-1.4
					C58.5,132.3,58,131.7,57.2,131.7z M57.2,134.1c-0.5,0-0.8-0.4-0.8-1c0-0.5,0.2-1,0.8-1s0.8,0.6,0.8,1
					C58,133.7,57.6,134.1,57.2,134.1z"/>
				<path class="st6" d="M61.7,133.1c-0.1,0.3-0.2,0.6-0.2,0.9l0,0c-0.1-0.3-0.1-0.5-0.2-0.9l-0.4-1.3h-0.4l-0.4,1.4
					c-0.1,0.3-0.2,0.6-0.2,0.8l0,0c0-0.3-0.1-0.5-0.2-0.8l-0.4-1.3h-0.5l0.8,2.7H60l0.4-1.3c0.1-0.3,0.2-0.6,0.2-0.9l0,0
					c0.1,0.3,0.1,0.6,0.2,0.9l0.4,1.3h0.4l0.9-2.7H62L61.7,133.1z"/>
				<path class="st6" d="M65.6,131.7c-0.2,0-0.4,0.1-0.5,0.1c-0.1,0.1-0.3,0.2-0.3,0.3l0,0v-1.7h-0.5v3.9h0.5v-1.6
					c0-0.1,0-0.2,0-0.2c0.1-0.3,0.3-0.5,0.6-0.5c0.5,0,0.6,0.4,0.6,0.8v1.5h0.5v-1.6C66.5,132,65.9,131.7,65.6,131.7z"/>
				<path class="st6" d="M69.1,132.8c0-0.5-0.2-1.1-1-1.1c-0.3,0-0.7,0.1-0.9,0.2l0.1,0.3c0.2-0.1,0.4-0.2,0.7-0.2
					c0.5,0,0.6,0.4,0.6,0.6v0.1c-1,0-1.6,0.3-1.6,1c0,0.4,0.3,0.8,0.8,0.8c0.4,0,0.7-0.2,0.8-0.4l0,0v0.3H69c0-0.2,0-0.4,0-0.6
					L69.1,132.8L69.1,132.8z M68.7,133.6c0,0,0,0.1,0,0.2c-0.1,0.2-0.3,0.4-0.6,0.4c-0.2,0-0.5-0.1-0.5-0.5c0-0.5,0.6-0.6,1.1-0.6
					V133.6z"/>
				<path class="st6" d="M71,133.3c-0.1,0.2-0.2,0.5-0.2,0.7l0,0c-0.1-0.2-0.1-0.4-0.2-0.7l-0.5-1.5h-0.5l1,2.7H71l1-2.7h-0.5
					L71,133.3z"/>
				<path class="st6" d="M73.6,134.5c0.4,0,0.7-0.1,0.9-0.2l-0.1-0.3c-0.2,0.1-0.4,0.1-0.7,0.1c-0.5,0-0.9-0.3-0.9-0.9h1.9
					c0,0,0-0.1,0-0.2c0-0.5-0.2-1.2-1.1-1.2c-0.8,0-1.2,0.6-1.2,1.4S72.8,134.5,73.6,134.5z M73.5,132.1c0.5,0,0.7,0.5,0.7,0.8h-1.4
					C72.8,132.5,73,132.1,73.5,132.1z"/>
				<path class="st6" d="M76.8,132.3L76.8,132.3v-0.5h-0.4c0,0.2,0,0.5,0,0.8v1.8h0.5V133c0-0.1,0-0.2,0-0.2
					c0.1-0.4,0.3-0.6,0.6-0.6c0.1,0,0.1,0,0.2,0v-0.5h-0.1C77.2,131.7,76.9,132,76.8,132.3z"/>
				<path class="st6" d="M79.2,134.5c0.4,0,0.7-0.1,0.9-0.2L80,134c-0.2,0.1-0.4,0.1-0.7,0.1c-0.5,0-0.9-0.3-0.9-0.9h1.9
					c0,0,0-0.1,0-0.2c0-0.5-0.2-1.2-1.1-1.2c-0.8,0-1.2,0.6-1.2,1.4S78.4,134.5,79.2,134.5z M79.1,132.1c0.5,0,0.7,0.5,0.7,0.8h-1.4
					C78.4,132.5,78.6,132.1,79.1,132.1z"/>
				<path class="st6" d="M82.7,132.8c0-0.5-0.2-1.1-1-1.1c-0.3,0-0.7,0.1-0.9,0.2l0.1,0.3c0.2-0.1,0.4-0.2,0.7-0.2
					c0.5,0,0.6,0.4,0.6,0.6v0.1c-1,0-1.6,0.3-1.6,1c0,0.4,0.3,0.8,0.8,0.8c0.4,0,0.7-0.2,0.8-0.4l0,0v0.3h0.4c0-0.2,0-0.4,0-0.6
					L82.7,132.8L82.7,132.8z M82.3,133.6c0,0,0,0.1,0,0.2c-0.1,0.2-0.3,0.4-0.6,0.4c-0.2,0-0.5-0.1-0.5-0.5c0-0.5,0.6-0.6,1.1-0.6
					V133.6z"/>
				<rect x="83.5" y="130.6" class="st6" width="0.5" height="3.9"/>
				<rect x="84.6" y="132.8" class="st6" width="1.4" height="0.4"/>
				<path class="st6" d="M87.1,131l-0.5,0.1v0.6h-0.4v0.4h0.4v1.4c0,0.3,0,0.5,0.2,0.7c0.1,0.1,0.3,0.2,0.5,0.2s0.3,0,0.4-0.1v-0.4
					c-0.1,0-0.2,0-0.3,0c-0.3,0-0.4-0.2-0.4-0.5V132h0.7v-0.4H87V131H87.1z"/>
				<path class="st6" d="M88.5,131.3c0.2,0,0.3-0.1,0.3-0.3s-0.1-0.3-0.3-0.3c-0.2,0-0.3,0.1-0.3,0.3S88.4,131.3,88.5,131.3z"/>
				<rect x="88.3" y="131.8" class="st6" width="0.5" height="2.7"/>
				<path class="st6" d="M92.5,131.7c-0.3,0-0.4,0.1-0.6,0.2c-0.1,0.1-0.2,0.2-0.3,0.3l0,0c-0.1-0.3-0.4-0.5-0.8-0.5
					s-0.7,0.2-0.8,0.5l0,0v-0.4h-0.4c0,0.2,0,0.4,0,0.7v1.9h0.5v-1.6c0-0.1,0-0.2,0-0.2c0.1-0.2,0.3-0.5,0.6-0.5
					c0.4,0,0.6,0.3,0.6,0.7v1.6h0.5v-1.6c0-0.1,0-0.2,0-0.2c0.1-0.2,0.3-0.4,0.6-0.4c0.4,0,0.6,0.3,0.6,0.8v1.5h0.5v-1.6
					C93.4,132,92.9,131.7,92.5,131.7z"/>
				<path class="st6" d="M95.2,131.7c-0.8,0-1.2,0.6-1.2,1.4s0.5,1.3,1.3,1.3c0.4,0,0.7-0.1,0.9-0.2l-0.1-0.3
					c-0.2,0.1-0.4,0.1-0.7,0.1c-0.5,0-0.9-0.3-0.9-0.9h1.9c0,0,0-0.1,0-0.2C96.3,132.5,96.1,131.7,95.2,131.7z M94.4,132.9
					c0-0.3,0.3-0.8,0.7-0.8c0.5,0,0.7,0.5,0.7,0.8H94.4z"/>
				<path class="st6" d="M99.2,133.3c-0.1,0.2-0.2,0.5-0.2,0.7l0,0c-0.1-0.2-0.1-0.4-0.2-0.7l-0.5-1.5h-0.5l1,2.7h0.5l1-2.7h-0.5
					L99.2,133.3z"/>
				<rect x="100.7" y="131.8" class="st6" width="0.5" height="2.7"/>
				<path class="st6" d="M101,130.8c-0.2,0-0.3,0.1-0.3,0.3s0.1,0.3,0.3,0.3c0.2,0,0.3-0.1,0.3-0.3
					C101.2,130.9,101.1,130.8,101,130.8z"/>
				<path class="st6" d="M102.8,132.9c-0.3-0.1-0.5-0.2-0.5-0.4s0.2-0.4,0.4-0.4c0.2,0,0.4,0.1,0.5,0.2l0.1-0.4
					c-0.1-0.1-0.4-0.2-0.7-0.2c-0.6,0-0.9,0.4-0.9,0.8c0,0.3,0.2,0.6,0.7,0.8c0.4,0.1,0.5,0.3,0.5,0.5s-0.2,0.4-0.5,0.4
					c-0.2,0-0.5-0.1-0.6-0.2l-0.1,0.4c0.2,0.1,0.5,0.2,0.7,0.2c0.6,0,1-0.3,1-0.8C103.5,133.3,103.3,133.1,102.8,132.9z"/>
				<path class="st6" d="M104.4,130.8c-0.2,0-0.3,0.1-0.3,0.3s0.1,0.3,0.3,0.3c0.2,0,0.3-0.1,0.3-0.3
					C104.7,130.9,104.6,130.8,104.4,130.8z"/>
				<rect x="104.2" y="131.8" class="st6" width="0.5" height="2.7"/>
				<path class="st6" d="M106.8,131.7c-0.4,0-0.7,0.2-0.9,0.5l0,0v-1.7h-0.5v3.2c0,0.2,0,0.5,0,0.7h0.4V134l0,0
					c0.2,0.4,0.5,0.5,0.9,0.5c0.6,0,1.2-0.5,1.2-1.4C108,132.3,107.5,131.7,106.8,131.7z M106.7,134.1c-0.4,0-0.6-0.2-0.7-0.6
					c0-0.1,0-0.1,0-0.2v-0.5c0-0.1,0-0.1,0-0.2c0.1-0.4,0.4-0.6,0.7-0.6c0.5,0,0.8,0.5,0.8,1C107.5,133.7,107.2,134.1,106.7,134.1z"
					/>
				<rect x="108.6" y="131.8" class="st6" width="0.5" height="2.7"/>
				<path class="st6" d="M108.8,130.8c-0.2,0-0.3,0.1-0.3,0.3s0.1,0.3,0.3,0.3c0.2,0,0.3-0.1,0.3-0.3
					C109.1,130.9,109,130.8,108.8,130.8z"/>
				<rect x="109.9" y="130.6" class="st6" width="0.5" height="3.9"/>
				<rect x="111.1" y="131.8" class="st6" width="0.5" height="2.7"/>
				<path class="st6" d="M111.4,130.8c-0.2,0-0.3,0.1-0.3,0.3s0.1,0.3,0.3,0.3c0.2,0,0.3-0.1,0.3-0.3
					C111.7,130.9,111.6,130.8,111.4,130.8z"/>
				<path class="st6" d="M113,131l-0.5,0.1v0.6h-0.4v0.4h0.4v1.4c0,0.3,0,0.5,0.2,0.7c0.1,0.1,0.3,0.2,0.5,0.2s0.3,0,0.4-0.1v-0.4
					c-0.1,0-0.2,0-0.3,0c-0.3,0-0.4-0.2-0.4-0.5V132h0.7v-0.4H113V131z"/>
				<path class="st6" d="M115.9,131.8l-0.5,1.6c-0.1,0.2-0.1,0.4-0.2,0.6l0,0c0-0.2-0.1-0.4-0.2-0.5l-0.6-1.6h-0.5l1,2.4
					c0,0.1,0,0.1,0,0.1v0.1c-0.1,0.2-0.3,0.4-0.4,0.5s-0.3,0.2-0.4,0.2l0.1,0.4c0.1,0,0.4-0.1,0.6-0.3c0.3-0.3,0.6-0.8,0.9-1.7
					l0.7-1.9L115.9,131.8L115.9,131.8z"/>
				<path class="st6" d="M67.9,138.3c-0.7,0-1.3,0.5-1.3,1.4c0,0.8,0.6,1.4,1.3,1.4c0.6,0,1.3-0.4,1.3-1.4
					C69.2,138.9,68.7,138.3,67.9,138.3z M67.9,140.7c-0.5,0-0.8-0.4-0.8-1c0-0.5,0.2-1,0.8-1c0.6,0,0.8,0.6,0.8,1
					C68.7,140.3,68.3,140.7,67.9,140.7z"/>
				<path class="st6" d="M70.1,137.3c-0.2,0.2-0.3,0.6-0.3,0.9v0.1h-0.4v0.4h0.4v2.3h0.5v-2.3H71v-0.4h-0.6v-0.1
					c0-0.4,0.1-0.8,0.5-0.8c0.1,0,0.2,0,0.3,0.1l0.1-0.4c-0.1,0-0.2-0.1-0.4-0.1C70.6,137.1,70.3,137.2,70.1,137.3z"/>
				<path class="st6" d="M73.7,139.9c-0.1,0.2-0.1,0.4-0.2,0.6l0,0c0-0.2-0.1-0.4-0.2-0.5l-0.6-1.6h-0.5l1,2.4c0,0.1,0,0.1,0,0.1
					v0.1c-0.1,0.2-0.3,0.4-0.4,0.5s-0.3,0.2-0.4,0.2l0.1,0.4c0.1,0,0.4-0.1,0.6-0.3c0.3-0.3,0.6-0.8,0.9-1.7l0.7-1.9h-0.5
					L73.7,139.9z"/>
				<path class="st6" d="M76.2,138.3c-0.7,0-1.3,0.5-1.3,1.4c0,0.8,0.6,1.4,1.3,1.4c0.6,0,1.3-0.4,1.3-1.4
					C77.5,138.9,77,138.3,76.2,138.3z M76.2,140.7c-0.5,0-0.8-0.4-0.8-1c0-0.5,0.2-1,0.8-1s0.8,0.6,0.8,1
					C77,140.3,76.6,140.7,76.2,140.7z"/>
				<path class="st6" d="M80.3,138.4h-0.5v1.6c0,0.1,0,0.2,0,0.2c-0.1,0.2-0.3,0.4-0.6,0.4c-0.4,0-0.6-0.3-0.6-0.8v-1.5h-0.5v1.6
					c0,0.9,0.5,1.2,0.9,1.2c0.5,0,0.8-0.3,0.9-0.5l0,0v0.4h0.4c0-0.2,0-0.4,0-0.7C80.3,140.3,80.3,138.4,80.3,138.4z"/>
				<path class="st6" d="M81.6,138.9L81.6,138.9v-0.5h-0.4c0,0.2,0,0.5,0,0.8v1.8h0.5v-1.4c0-0.1,0-0.2,0-0.2
					c0.1-0.4,0.3-0.6,0.6-0.6c0.1,0,0.1,0,0.2,0v-0.5h-0.1C82,138.3,81.7,138.5,81.6,138.9z"/>
				<path class="st6" d="M85.7,139.3L85.7,139.3c0.4-0.1,0.7-0.5,0.7-1c0-0.3-0.1-0.5-0.3-0.7c-0.2-0.2-0.6-0.3-1.1-0.3
					c-0.3,0-0.7,0-0.9,0.1v3.6h0.5v-1.6H85c0.4,0,0.6,0.2,0.7,0.7s0.2,0.8,0.2,0.9h0.5c-0.1-0.1-0.2-0.5-0.3-1
					C86.1,139.6,86,139.4,85.7,139.3z M85.1,139.1h-0.5v-1.3c0.1,0,0.2,0,0.5,0c0.5,0,0.8,0.2,0.8,0.7
					C85.9,138.8,85.6,139.1,85.1,139.1z"/>
				<rect x="91" y="137.3" class="st6" width="0.5" height="3.7"/>
				<path class="st6" d="M88.5,137.3c-1,0-1.7,0.8-1.7,1.9c0,1.1,0.7,1.9,1.7,1.9c0.9,0,1.7-0.7,1.7-1.9
					C90.2,138.1,89.6,137.3,88.5,137.3z M88.5,140.7c-0.8,0-1.2-0.7-1.2-1.5s0.4-1.5,1.2-1.5c0.8,0,1.2,0.8,1.2,1.5
					C89.7,140,89.3,140.7,88.5,140.7z"/>
				<polygon class="st6" points="92.5,140 92.6,137.3 92.1,137.3 92.2,140 				"/>
				<ellipse class="st6" cx="92.3" cy="140.8" rx="0.3" ry="0.3"/>
			</g>
		</g>
	</g>
</g>
<text transform="matrix(1 0 0 1 -114.876 -384.0462)" style="font-family:'ArialMT'; font-size:5.4847px;">Lorem ipsum</text>
</svg>
