<?xml version="1.0" encoding="utf-8"?>
<!-- Generator: Adobe Illustrator 26.1.0, SVG Export Plug-In . SVG Version: 6.00 Build 0)  -->
<svg version="1.1" id="Layer_2_00000041291275139237779260000009012454324667776940_"
	 xmlns="http://www.w3.org/2000/svg" xmlns:xlink="http://www.w3.org/1999/xlink" x="0px" y="0px" viewBox="0 0 280.6 146.2"
	 style="enable-background:new 0 0 280.6 146.2;" xml:space="preserve">
<style type="text/css">
	.st0{opacity:0.9;fill:#FFFFFF;enable-background:new    ;}
	.st1{fill:#FEE8DC;}
	.st2{fill:#6469B0;}
	.st3{fill:#67C7C1;}
	.st4{fill:#FFD467;}
	.st5{fill:#7C7D93;}
</style>
<g id="Layer_1-2">
	<g>
		<path class="st0" d="M28,14.1h222.6c7.7,0,13.9,6.2,13.9,13.9v88.2c0,7.7-6.2,13.9-13.9,13.9H28c-7.7,0-13.9-6.2-13.9-13.9V27.9
			C14.1,20.3,20.3,14.1,28,14.1z"/>
		<g>
			<g>
				<path class="st1" d="M250.2,108H37.8c-0.1,0-0.2-0.1-0.2-0.2s0.1-0.2,0.2-0.2h212.4c0.1,0,0.2,0.1,0.2,0.2S250.3,108,250.2,108z
					"/>
				<path class="st1" d="M250.2,88.2H37.8c-0.1,0-0.2-0.1-0.2-0.2s0.1-0.2,0.2-0.2h212.4c0.1,0,0.2,0.1,0.2,0.2
					S250.3,88.2,250.2,88.2z"/>
				<path class="st1" d="M250.2,68.4H37.8c-0.1,0-0.2-0.1-0.2-0.2s0.1-0.2,0.2-0.2h212.4c0.1,0,0.2,0.1,0.2,0.2
					S250.3,68.4,250.2,68.4z"/>
				<path class="st1" d="M250.2,48.5H37.8c-0.1,0-0.2-0.1-0.2-0.2s0.1-0.2,0.2-0.2h212.4c0.1,0,0.2,0.1,0.2,0.2
					S250.3,48.5,250.2,48.5z"/>
			</g>
			<g>
				<rect x="42.2" y="63.8" class="st2" width="6.1" height="44.1"/>
				<rect x="48.3" y="82.2" class="st3" width="6.1" height="25.6"/>
				<rect x="54.5" y="45.1" class="st4" width="6.1" height="62.7"/>
			</g>
			<g>
				<rect x="73" y="78.5" class="st2" width="6.1" height="29.4"/>
				<rect x="79.2" y="66.5" class="st3" width="6.1" height="41.4"/>
				<rect x="85.3" y="98.5" class="st4" width="6.1" height="9.3"/>
			</g>
			<g>
				<rect x="103.9" y="53" class="st2" width="6.1" height="54.9"/>
				<rect x="110" y="73" class="st3" width="6.1" height="34.8"/>
				<rect x="116.2" y="61.7" class="st4" width="6.1" height="46.1"/>
			</g>
			<g>
				<rect x="134.7" y="92.3" class="st2" width="6.1" height="15.6"/>
				<rect x="140.9" y="82.2" class="st3" width="6.1" height="25.6"/>
				<rect x="147" y="99.8" class="st4" width="6.1" height="8"/>
			</g>
			<g>
				<rect x="165.6" y="46" class="st2" width="6.1" height="61.9"/>
				<rect x="171.7" y="60.5" class="st3" width="6.1" height="47.4"/>
				<rect x="177.9" y="79.2" class="st4" width="6.1" height="28.7"/>
			</g>
			<g>
				<rect x="196.4" y="71.7" class="st2" width="6.1" height="36.2"/>
				<rect x="202.6" y="99.8" class="st3" width="6.1" height="8"/>
				<rect x="208.7" y="88" class="st4" width="6.1" height="19.8"/>
			</g>
			<g>
				<rect x="227.3" y="60.5" class="st2" width="6.1" height="47.4"/>
				<rect x="233.4" y="71.6" class="st3" width="6.1" height="36.2"/>
				<rect x="239.6" y="45.2" class="st4" width="6.1" height="62.7"/>
			</g>
			<g>
				<path class="st5" d="M30.3,87.8C30.3,87.8,30.4,87.9,30.3,87.8c0,0.1,0,0.1,0,0.2s0,0-0.1,0h-1.4h-0.1v-0.1v-0.1c0,0,0,0,0.1,0
					h0.5v-2.4l-0.5,0.3c-0.1,0-0.1,0-0.1,0v-0.1v-0.1l0.6-0.4h0.1h0.1v0.1v2.6H30C30.2,87.8,30.3,87.8,30.3,87.8L30.3,87.8z"/>
				<path class="st5" d="M31.2,87.7c-0.2-0.2-0.3-0.6-0.3-1.1s0.1-0.9,0.3-1.1s0.4-0.4,0.8-0.4c0.3,0,0.6,0.1,0.8,0.4
					s0.3,0.6,0.3,1.1s-0.1,0.9-0.3,1.1s-0.4,0.4-0.8,0.4S31.4,87.9,31.2,87.7z M32.5,87.5c0.1-0.2,0.2-0.5,0.2-1s-0.1-0.8-0.2-1
					c-0.1-0.2-0.3-0.3-0.6-0.3s-0.4,0.1-0.6,0.3c-0.1,0.2-0.2,0.5-0.2,1s0.1,0.8,0.2,1s0.3,0.3,0.6,0.3S32.4,87.7,32.5,87.5z"/>
				<path class="st5" d="M33.7,87.7c-0.2-0.2-0.3-0.6-0.3-1.1s0.1-0.9,0.3-1.1s0.4-0.4,0.8-0.4s0.6,0.1,0.8,0.4s0.3,0.6,0.3,1.1
					s-0.1,0.9-0.3,1.1s-0.4,0.4-0.8,0.4S33.9,87.9,33.7,87.7z M35,87.5c0.1-0.2,0.2-0.5,0.2-1s-0.1-0.8-0.2-1
					c-0.1-0.2-0.3-0.3-0.6-0.3s-0.4,0.1-0.6,0.3c-0.1,0.2-0.2,0.5-0.2,1s0.1,0.8,0.2,1s0.3,0.3,0.6,0.3S34.9,87.7,35,87.5z"/>
			</g>
			<path class="st5" d="M33.7,107.5c-0.2-0.2-0.3-0.6-0.3-1.1s0.1-0.9,0.3-1.1s0.4-0.4,0.8-0.4s0.6,0.1,0.8,0.4s0.3,0.6,0.3,1.1
				s-0.1,0.9-0.3,1.1s-0.4,0.4-0.8,0.4S33.9,107.8,33.7,107.5z M35,107.4c0.1-0.2,0.2-0.5,0.2-1s-0.1-0.8-0.2-1
				c-0.1-0.2-0.3-0.3-0.6-0.3s-0.4,0.1-0.6,0.3c-0.1,0.2-0.2,0.5-0.2,1s0.1,0.8,0.2,1s0.3,0.3,0.6,0.3S34.9,107.6,35,107.4z"/>
			<g>
				<path class="st5" d="M30.4,68C30.4,68,30.5,68.1,30.4,68c0,0.2,0,0.2-0.1,0.2h-1.7h-0.1v-0.1V68l1-1.1c0.1-0.2,0.2-0.3,0.3-0.4
					S30,66.1,30,66c0-0.2,0-0.3-0.1-0.4s-0.2-0.1-0.4-0.1c-0.1,0-0.3,0-0.4,0.1s-0.3,0.1-0.4,0.2h-0.1c0,0,0,0-0.1,0v-0.1
					c0-0.1,0-0.1,0-0.1c0.1-0.1,0.2-0.2,0.4-0.3c0.2-0.1,0.3-0.1,0.5-0.1c0.3,0,0.5,0.1,0.6,0.2s0.2,0.3,0.2,0.6
					c0,0.2,0,0.3-0.1,0.5s-0.2,0.3-0.4,0.5l-0.9,1h1.4C30.3,68,30.4,68,30.4,68L30.4,68z"/>
				<path class="st5" d="M31.2,67.8c-0.2-0.2-0.3-0.6-0.3-1.1s0.1-0.9,0.3-1.1s0.4-0.4,0.8-0.4c0.3,0,0.6,0.1,0.8,0.4
					s0.3,0.6,0.3,1.1s-0.1,0.9-0.3,1.1s-0.4,0.4-0.8,0.4S31.4,68.1,31.2,67.8z M32.5,67.7c0.1-0.2,0.2-0.5,0.2-1s-0.1-0.8-0.2-1
					c-0.1-0.2-0.3-0.3-0.6-0.3s-0.4,0.1-0.6,0.3c-0.1,0.2-0.2,0.5-0.2,1s0.1,0.8,0.2,1S31.7,68,32,68C32.2,68,32.4,67.9,32.5,67.7z"
					/>
				<path class="st5" d="M33.7,67.8c-0.2-0.2-0.3-0.6-0.3-1.1s0.1-0.9,0.3-1.1s0.4-0.4,0.8-0.4s0.6,0.1,0.8,0.4s0.3,0.6,0.3,1.1
					s-0.1,0.9-0.3,1.1s-0.4,0.4-0.8,0.4S33.9,68.1,33.7,67.8z M35,67.7c0.1-0.2,0.2-0.5,0.2-1s-0.1-0.8-0.2-1
					c-0.1-0.2-0.3-0.3-0.6-0.3s-0.4,0.1-0.6,0.3c-0.1,0.2-0.2,0.5-0.2,1s0.1,0.8,0.2,1s0.3,0.3,0.6,0.3S34.9,67.9,35,67.7z"/>
			</g>
			<g>
				<path class="st5" d="M30.2,47.1c0.1,0.1,0.1,0.3,0.1,0.5s-0.1,0.5-0.2,0.6c-0.2,0.2-0.4,0.2-0.7,0.2c-0.2,0-0.4,0-0.5-0.1
					c-0.2-0.1-0.3-0.2-0.4-0.3l-0.1-0.1v-0.1c0,0,0,0,0.1,0h0.1c0.1,0.1,0.3,0.2,0.4,0.2s0.3,0.1,0.4,0.1c0.2,0,0.4,0,0.5-0.2
					c0.1-0.1,0.2-0.2,0.2-0.4c0-0.4-0.2-0.6-0.7-0.6h-0.2h-0.1c0,0,0,0,0-0.1s0-0.1,0-0.1s0,0,0.1,0h0.1c0.2,0,0.4,0,0.5-0.2
					c0.1-0.1,0.2-0.3,0.2-0.5s0-0.3-0.1-0.4s-0.2-0.1-0.4-0.1c-0.1,0-0.3,0-0.4,0.1s-0.3,0.1-0.4,0.2h-0.1c0,0,0,0-0.1,0
					c0,0,0,0,0-0.1v-0.1c0.1-0.1,0.2-0.2,0.4-0.3c0.2-0.1,0.3-0.1,0.5-0.1c0.3,0,0.5,0.1,0.6,0.2c0.1,0.1,0.2,0.3,0.2,0.5
					s0,0.3-0.1,0.5c-0.1,0.1-0.2,0.2-0.4,0.3C30,46.9,30.2,47,30.2,47.1L30.2,47.1z"/>
				<path class="st5" d="M31.2,48c-0.2-0.2-0.3-0.6-0.3-1.1s0.1-0.9,0.3-1.1s0.4-0.4,0.8-0.4c0.3,0,0.6,0.1,0.8,0.4s0.3,0.6,0.3,1.1
					S33,47.8,32.8,48s-0.4,0.4-0.8,0.4S31.4,48.3,31.2,48z M32.5,47.8c0.1-0.2,0.2-0.5,0.2-1s-0.1-0.8-0.2-1
					c-0.1-0.2-0.3-0.3-0.6-0.3s-0.4,0.1-0.6,0.3c-0.1,0.2-0.2,0.5-0.2,1s0.1,0.8,0.2,1s0.3,0.3,0.6,0.3
					C32.2,48.2,32.4,48.1,32.5,47.8z"/>
				<path class="st5" d="M33.7,48c-0.2-0.2-0.3-0.6-0.3-1.1s0.1-0.9,0.3-1.1s0.4-0.4,0.8-0.4s0.6,0.1,0.8,0.4s0.3,0.6,0.3,1.1
					s-0.1,0.9-0.3,1.1s-0.4,0.4-0.8,0.4S33.9,48.3,33.7,48z M35,47.8c0.1-0.2,0.2-0.5,0.2-1s-0.1-0.8-0.2-1
					c-0.1-0.2-0.3-0.3-0.6-0.3s-0.4,0.1-0.6,0.3c-0.1,0.2-0.2,0.5-0.2,1s0.1,0.8,0.2,1s0.3,0.3,0.6,0.3S34.9,48.1,35,47.8z"/>
			</g>
			<g>
				<path class="st5" d="M32.9,21.2h-0.4c-0.2,0-0.4,0-0.5,0.1s-0.2,0.1-0.2,0.2c-0.1,0.1-0.1,0.3-0.2,0.6l-1,3.6l-1-3.6
					c-0.1-0.3-0.1-0.5-0.2-0.6c-0.1-0.1-0.1-0.2-0.2-0.2c-0.1,0-0.3-0.1-0.5-0.1h-0.4c-0.3,0-0.5,0.1-0.6,0.2
					c-0.1,0.1-0.2,0.3-0.2,0.6v5.2c0,0.3,0.1,0.4,0.2,0.6s0.3,0.2,0.4,0.2c0.2,0,0.3-0.1,0.4-0.2c0.1-0.1,0.2-0.3,0.2-0.6v-4.5
					l1.1,4.2c0,0.1,0.1,0.3,0.1,0.4c0,0.1,0.1,0.2,0.1,0.3c0.1,0.1,0.1,0.2,0.3,0.3c0.1,0.1,0.2,0.1,0.4,0.1c0.2,0,0.4-0.1,0.5-0.2
					s0.2-0.2,0.2-0.3s0.1-0.3,0.2-0.6l1.1-4.2v4.5c0,0.3,0.1,0.4,0.2,0.6s0.3,0.2,0.4,0.2c0.2,0,0.3-0.1,0.5-0.2s0.2-0.3,0.2-0.6V22
					c0-0.3-0.1-0.5-0.2-0.6C33.3,21.3,33.1,21.2,32.9,21.2z"/>
				<path class="st5" d="M38.9,23.6c-0.2-0.2-0.5-0.4-0.8-0.5c-0.3-0.1-0.6-0.2-1-0.2c-0.4,0-0.7,0.1-1,0.2s-0.6,0.3-0.8,0.5
					c-0.2,0.2-0.4,0.5-0.5,0.8c-0.1,0.3-0.2,0.6-0.2,1c0,0.4,0.1,0.7,0.2,1s0.3,0.6,0.5,0.8s0.5,0.4,0.8,0.5c0.3,0.1,0.6,0.2,1,0.2
					c0.4,0,0.7-0.1,1-0.2c0.3-0.1,0.6-0.3,0.8-0.5c0.2-0.2,0.4-0.5,0.5-0.8c0.1-0.3,0.2-0.6,0.2-1c0-0.4-0.1-0.7-0.2-1
					C39.3,24.1,39.1,23.9,38.9,23.6z M38,26.6c-0.2,0.3-0.5,0.4-0.9,0.4c-0.2,0-0.5-0.1-0.6-0.2s-0.3-0.3-0.4-0.5s-0.1-0.5-0.1-0.8
					c0-0.3,0-0.6,0.1-0.8s0.2-0.4,0.4-0.5s0.4-0.2,0.6-0.2c0.4,0,0.7,0.1,0.9,0.4s0.3,0.7,0.3,1.2C38.3,25.9,38.2,26.3,38,26.6z"/>
				<path class="st5" d="M44.7,23.8c-0.1-0.3-0.3-0.5-0.6-0.6C43.8,23,43.6,23,43.2,23c-0.3,0-0.6,0.1-0.9,0.2
					c-0.3,0.1-0.5,0.3-0.7,0.6v-0.1c0-0.1,0-0.3-0.1-0.4c-0.1-0.1-0.1-0.2-0.2-0.2S41.2,23,41.1,23c-0.2,0-0.3,0.1-0.4,0.2
					c-0.1,0.1-0.2,0.3-0.2,0.5v3.5c0,0.2,0.1,0.4,0.2,0.6c0.1,0.1,0.3,0.2,0.4,0.2c0.2,0,0.3-0.1,0.4-0.2c0.1-0.1,0.2-0.3,0.2-0.6
					v-1.5c0-0.5,0-0.8,0.1-1c0.1-0.2,0.2-0.4,0.4-0.5c0.2-0.1,0.4-0.2,0.6-0.2c0.3,0,0.6,0.1,0.7,0.3c0.1,0.2,0.2,0.5,0.2,0.9v2
					c0,0.2,0.1,0.4,0.2,0.6c0.1,0.1,0.3,0.2,0.4,0.2c0.2,0,0.3-0.1,0.4-0.2s0.2-0.3,0.2-0.6v-2.3c0-0.3,0-0.5,0-0.7
					C44.8,24.1,44.7,23.9,44.7,23.8z"/>
				<path class="st5" d="M48.5,26.9c-0.1,0-0.2,0-0.3,0c-0.1,0-0.2,0-0.3,0c-0.1,0-0.2,0-0.3-0.1c-0.1-0.1-0.1-0.1-0.1-0.3
					c0-0.1,0-0.2,0-0.4v-2.3h0.2c0.2,0,0.4,0,0.6-0.1c0.1-0.1,0.2-0.2,0.2-0.3c0-0.1,0-0.2-0.1-0.3s-0.2-0.1-0.4-0.1h-0.4v-0.8
					c0-0.2,0-0.4,0-0.5s-0.1-0.2-0.2-0.3c-0.1-0.1-0.3-0.2-0.4-0.2c-0.1,0-0.2,0-0.3,0.1c-0.1,0.1-0.2,0.1-0.2,0.2
					c0,0.1-0.1,0.2-0.1,0.3c0,0.1,0,0.3,0,0.5v0.7h-0.1c-0.2,0-0.3,0-0.4,0.1s-0.1,0.2-0.1,0.3c0,0.1,0,0.2,0.1,0.3s0.2,0.1,0.4,0.1
					h0.2v2.4c0,0.4,0,0.7,0.1,0.9c0.1,0.2,0.2,0.4,0.4,0.5c0.2,0.1,0.5,0.2,0.9,0.2c0.4,0,0.7-0.1,0.9-0.2s0.3-0.3,0.3-0.5
					c0-0.1,0-0.2-0.1-0.3C48.7,27,48.6,26.9,48.5,26.9z"/>
				<path class="st5" d="M53.5,23.7c-0.1-0.3-0.3-0.4-0.6-0.6C52.6,23,52.4,23,52.1,23c-0.2,0-0.4,0-0.6,0.1
					c-0.2,0.1-0.3,0.1-0.5,0.2c-0.1,0.1-0.3,0.2-0.5,0.4v-1.8c0-0.2-0.1-0.4-0.2-0.6c-0.1-0.1-0.3-0.2-0.5-0.2
					c-0.2,0-0.3,0.1-0.4,0.2c-0.1,0.1-0.2,0.3-0.2,0.6v5.3c0,0.5,0.2,0.7,0.6,0.7c0.2,0,0.3-0.1,0.5-0.2c0.1-0.1,0.2-0.3,0.2-0.6
					v-1.6c0-0.5,0-0.8,0.1-1c0.1-0.2,0.2-0.4,0.4-0.5c0.2-0.1,0.4-0.2,0.6-0.2c0.3,0,0.5,0.1,0.7,0.3s0.2,0.5,0.2,0.9v2.1
					c0,0.5,0.2,0.7,0.6,0.7c0.2,0,0.3-0.1,0.4-0.2c0.1-0.1,0.2-0.3,0.2-0.6v-2.3c0-0.2,0-0.4,0-0.6C53.6,24,53.5,23.9,53.5,23.7z"/>
				<path class="st5" d="M55.5,21.1c-0.2,0-0.3,0.1-0.4,0.2c-0.1,0.1-0.2,0.3-0.2,0.6v5.3c0,0.2,0.1,0.4,0.2,0.6
					c0.1,0.1,0.3,0.2,0.4,0.2c0.2,0,0.3-0.1,0.4-0.2s0.2-0.3,0.2-0.6v-5.3c0-0.2-0.1-0.4-0.2-0.6C55.8,21.2,55.7,21.1,55.5,21.1z"/>
				<path class="st5" d="M61.2,23C61.1,23,61,23,60.9,23c-0.1,0-0.2,0-0.3,0.1s-0.1,0.1-0.2,0.3c-0.1,0.1-0.1,0.3-0.2,0.5l-1,2.8
					l-1-3c-0.1-0.2-0.1-0.4-0.2-0.5C57.9,23,57.7,23,57.6,23c-0.1,0-0.2,0-0.3,0.1s-0.2,0.1-0.2,0.2S57,23.4,57,23.5
					c0,0.1,0,0.3,0.1,0.5l1.5,3.8l-0.1,0.3c-0.1,0.2-0.2,0.4-0.2,0.5c-0.1,0.1-0.1,0.2-0.2,0.2c-0.1,0-0.2,0.1-0.3,0.1
					c-0.1,0-0.1,0-0.2,0c-0.1,0-0.1,0-0.2,0c-0.2,0-0.3,0-0.4,0.1c-0.1,0.1-0.1,0.2-0.1,0.3c0,0.2,0.1,0.3,0.3,0.4
					c0.2,0.1,0.4,0.1,0.8,0.1c0.4,0,0.7-0.1,0.9-0.2s0.4-0.3,0.5-0.5c0.1-0.2,0.3-0.5,0.4-0.9l1.6-4.2c0-0.1,0.1-0.2,0.1-0.3
					c0-0.1,0-0.2,0.1-0.2c0-0.1,0-0.2-0.1-0.3C61.3,23.1,61.3,23.1,61.2,23z"/>
				<path class="st5" d="M69.1,24.4c-0.2-0.1-0.5-0.3-0.8-0.4c-0.3-0.1-0.6-0.2-1-0.3c-0.3-0.1-0.5-0.1-0.6-0.2
					c-0.1,0-0.3-0.1-0.4-0.2c-0.1-0.1-0.2-0.2-0.3-0.2s-0.1-0.2-0.1-0.3c0-0.2,0.1-0.4,0.3-0.5c0.2-0.2,0.5-0.2,0.8-0.2
					c0.4,0,0.6,0.1,0.8,0.2c0.2,0.1,0.3,0.3,0.4,0.6c0.1,0.2,0.2,0.3,0.3,0.4c0.1,0.1,0.2,0.1,0.3,0.1c0.2,0,0.3-0.1,0.4-0.2
					c0.1-0.1,0.2-0.3,0.2-0.4c0-0.2,0-0.4-0.1-0.5s-0.2-0.4-0.4-0.5c-0.2-0.2-0.4-0.3-0.7-0.4c-0.3-0.1-0.6-0.2-1-0.2
					c-0.5,0-0.9,0.1-1.3,0.2c-0.4,0.2-0.7,0.4-0.9,0.6c-0.2,0.3-0.3,0.6-0.3,1c0,0.4,0.1,0.7,0.3,1c0.2,0.3,0.4,0.5,0.8,0.6
					c0.3,0.1,0.7,0.3,1.2,0.4c0.4,0.1,0.6,0.2,0.8,0.2c0.2,0.1,0.4,0.2,0.5,0.3c0.1,0.1,0.2,0.3,0.2,0.5c0,0.3-0.1,0.5-0.4,0.7
					c-0.2,0.2-0.6,0.3-1,0.3c-0.3,0-0.5,0-0.7-0.1c-0.2-0.1-0.3-0.2-0.4-0.3s-0.2-0.3-0.3-0.5c-0.1-0.2-0.2-0.3-0.2-0.4
					s-0.2-0.1-0.4-0.1c-0.2,0-0.3,0.1-0.4,0.2c-0.1,0.1-0.2,0.3-0.2,0.4c0,0.3,0.1,0.6,0.3,0.9c0.2,0.3,0.4,0.5,0.7,0.7
					c0.4,0.2,1,0.4,1.6,0.4c0.5,0,1-0.1,1.4-0.3c0.4-0.2,0.7-0.4,0.9-0.7c0.2-0.3,0.3-0.7,0.3-1.1c0-0.3-0.1-0.6-0.2-0.8
					C69.4,24.8,69.3,24.6,69.1,24.4z"/>
				<path class="st5" d="M73.2,26.9c-0.1,0-0.2,0-0.3,0c-0.1,0-0.2,0-0.3,0c-0.1,0-0.2,0-0.3-0.1c-0.1-0.1-0.1-0.1-0.1-0.3
					c0-0.1,0-0.2,0-0.4v-2.3h0.2c0.2,0,0.4,0,0.6-0.1c0.1-0.1,0.2-0.2,0.2-0.3c0-0.1,0-0.2-0.1-0.3s-0.2-0.1-0.4-0.1h-0.4v-0.8
					c0-0.2,0-0.4,0-0.5s-0.1-0.2-0.2-0.3c-0.1-0.1-0.3-0.2-0.4-0.2c-0.1,0-0.2,0-0.3,0.1c-0.1,0.1-0.2,0.1-0.2,0.2
					c0,0.1-0.1,0.2-0.1,0.3c0,0.1,0,0.3,0,0.5v0.7h-0.1c-0.2,0-0.3,0-0.4,0.1s-0.1,0.2-0.1,0.3c0,0.1,0,0.2,0.1,0.3s0.2,0.1,0.4,0.1
					H71v2.4c0,0.4,0,0.7,0.1,0.9c0.1,0.2,0.2,0.4,0.4,0.5c0.2,0.1,0.5,0.2,0.9,0.2c0.4,0,0.7-0.1,0.9-0.2s0.3-0.3,0.3-0.5
					c0-0.1,0-0.2-0.1-0.3C73.4,27,73.3,26.9,73.2,26.9z"/>
				<path class="st5" d="M78.2,26.2c0-0.2,0-0.5,0-0.7c0-0.2,0-0.4,0-0.7c0-0.5-0.1-0.8-0.2-1.1c-0.1-0.3-0.3-0.5-0.7-0.6
					s-0.7-0.2-1.3-0.2c-0.5,0-0.9,0.1-1.2,0.2s-0.6,0.3-0.7,0.5c-0.2,0.2-0.2,0.4-0.2,0.6c0,0.1,0.1,0.3,0.2,0.3s0.2,0.1,0.4,0.1
					c0.2,0,0.3,0,0.3-0.1c0-0.1,0.1-0.2,0.2-0.3s0.2-0.3,0.4-0.4s0.4-0.1,0.7-0.1c0.4,0,0.6,0.1,0.7,0.2s0.2,0.4,0.2,0.7
					c-0.3,0.1-0.5,0.1-0.7,0.2c-0.2,0.1-0.5,0.1-0.8,0.2c-0.3,0.1-0.5,0.1-0.6,0.1c-0.4,0.1-0.7,0.2-0.9,0.5s-0.3,0.5-0.3,0.9
					c0,0.2,0.1,0.5,0.2,0.7c0.1,0.2,0.3,0.4,0.5,0.5s0.5,0.2,0.8,0.2c0.3,0,0.7-0.1,0.9-0.2c0.3-0.1,0.6-0.3,0.9-0.5
					c0.1,0.2,0.3,0.4,0.4,0.5s0.2,0.2,0.4,0.2c0.1,0,0.3-0.1,0.4-0.2c0.1-0.1,0.2-0.2,0.2-0.3c0-0.1,0-0.2-0.1-0.5
					S78.2,26.5,78.2,26.2z M77.1,25.6c0,0.4-0.1,0.7-0.2,0.9c-0.1,0.2-0.2,0.3-0.5,0.4s-0.4,0.2-0.7,0.2c-0.2,0-0.4-0.1-0.6-0.2
					c-0.1-0.1-0.2-0.3-0.2-0.5c0-0.2,0.1-0.3,0.2-0.4s0.2-0.2,0.4-0.2c0.1,0,0.4-0.1,0.7-0.2c0.3-0.1,0.6-0.1,0.8-0.2V25.6z"/>
				<path class="st5" d="M81.7,26.9c-0.1,0-0.2,0-0.3,0c-0.1,0-0.2,0-0.3,0c-0.1,0-0.2,0-0.3-0.1c-0.1-0.1-0.1-0.1-0.1-0.3
					c0-0.1,0-0.2,0-0.4v-2.3h0.2c0.2,0,0.4,0,0.6-0.1c0.1-0.1,0.2-0.2,0.2-0.3c0-0.1,0-0.2-0.1-0.3s-0.2-0.1-0.4-0.1h-0.4v-0.8
					c0-0.2,0-0.4,0-0.5s-0.1-0.2-0.2-0.3c-0.1-0.1-0.3-0.2-0.4-0.2c-0.1,0-0.2,0-0.3,0.1c-0.1,0.1-0.2,0.1-0.2,0.2
					c0,0.1-0.1,0.2-0.1,0.3c0,0.1,0,0.3,0,0.5v0.7h-0.1c-0.2,0-0.3,0-0.4,0.1s-0.1,0.2-0.1,0.3c0,0.1,0,0.2,0.1,0.3s0.2,0.1,0.4,0.1
					h0.2v2.4c0,0.4,0,0.7,0.1,0.9c0.1,0.2,0.2,0.4,0.4,0.5c0.2,0.1,0.5,0.2,0.9,0.2c0.4,0,0.7-0.1,0.9-0.2s0.3-0.3,0.3-0.5
					c0-0.1,0-0.2-0.1-0.3C81.9,27,81.8,26.9,81.7,26.9z"/>
				<path class="st5" d="M83.1,21.2c-0.2,0-0.3,0.1-0.4,0.2s-0.2,0.3-0.2,0.4c0,0.2,0.1,0.3,0.2,0.4c0.1,0.1,0.3,0.2,0.4,0.2
					c0.2,0,0.3-0.1,0.4-0.2c0.1-0.1,0.2-0.3,0.2-0.4c0-0.2-0.1-0.3-0.2-0.4S83.3,21.2,83.1,21.2z"/>
				<path class="st5" d="M83.1,23c-0.2,0-0.3,0.1-0.4,0.2c-0.1,0.1-0.2,0.3-0.2,0.5v3.5c0,0.2,0.1,0.4,0.2,0.6
					c0.1,0.1,0.3,0.2,0.4,0.2c0.2,0,0.3-0.1,0.4-0.2c0.1-0.1,0.2-0.3,0.2-0.6v-3.5c0-0.2-0.1-0.4-0.2-0.5C83.5,23,83.3,23,83.1,23z"
					/>
				<path class="st5" d="M88.2,25.3c-0.2-0.1-0.6-0.2-0.9-0.3c-0.3-0.1-0.6-0.1-0.8-0.2c-0.2-0.1-0.3-0.1-0.4-0.2
					c-0.1-0.1-0.2-0.2-0.2-0.3c0-0.1,0.1-0.3,0.2-0.4c0.1-0.1,0.3-0.1,0.6-0.1c0.2,0,0.4,0,0.5,0.1c0.1,0.1,0.2,0.2,0.3,0.3
					c0.1,0.1,0.2,0.3,0.3,0.3c0.1,0.1,0.2,0.1,0.3,0.1c0.2,0,0.3,0,0.4-0.1s0.1-0.2,0.1-0.3c0-0.1,0-0.3-0.1-0.4s-0.2-0.3-0.4-0.4
					c-0.2-0.1-0.4-0.2-0.6-0.3C87.3,23,87,23,86.7,23c-0.4,0-0.7,0.1-1,0.2c-0.3,0.1-0.5,0.3-0.6,0.5c-0.1,0.2-0.2,0.5-0.2,0.7
					c0,0.3,0.1,0.5,0.2,0.7c0.2,0.2,0.4,0.3,0.6,0.5s0.6,0.2,1,0.3c0.4,0.1,0.6,0.2,0.8,0.3c0.2,0.1,0.2,0.3,0.2,0.5
					c0,0.1-0.1,0.3-0.2,0.4c-0.2,0.1-0.4,0.2-0.6,0.2c-0.3,0-0.5-0.1-0.7-0.2c-0.2-0.1-0.3-0.3-0.5-0.5c-0.1-0.1-0.1-0.2-0.2-0.3
					s-0.2-0.1-0.3-0.1c-0.1,0-0.3,0-0.4,0.1s-0.1,0.2-0.1,0.3c0,0.2,0.1,0.4,0.2,0.6c0.1,0.2,0.4,0.4,0.7,0.5s0.7,0.2,1.1,0.2
					c0.5,0,0.9-0.1,1.2-0.2c0.3-0.1,0.6-0.3,0.7-0.5c0.2-0.2,0.2-0.5,0.2-0.9c0-0.2-0.1-0.4-0.2-0.6S88.5,25.4,88.2,25.3z"/>
				<path class="st5" d="M92.4,26.9c-0.1,0-0.2,0-0.3,0c-0.1,0-0.2,0-0.3,0c-0.1,0-0.2,0-0.3-0.1c-0.1-0.1-0.1-0.1-0.1-0.3
					c0-0.1,0-0.2,0-0.4v-2.3h0.2c0.2,0,0.4,0,0.6-0.1c0.1-0.1,0.2-0.2,0.2-0.3c0-0.1,0-0.2-0.1-0.3s-0.2-0.1-0.4-0.1h-0.4v-0.8
					c0-0.2,0-0.4,0-0.5s-0.1-0.2-0.2-0.3c-0.1-0.1-0.3-0.2-0.4-0.2c-0.1,0-0.2,0-0.3,0.1c-0.1,0.1-0.2,0.1-0.2,0.2
					c0,0.1-0.1,0.2-0.1,0.3c0,0.1,0,0.3,0,0.5v0.7h-0.1c-0.2,0-0.3,0-0.4,0.1s-0.1,0.2-0.1,0.3c0,0.1,0,0.2,0.1,0.3s0.2,0.1,0.4,0.1
					h0.2v2.4c0,0.4,0,0.7,0.1,0.9c0.1,0.2,0.2,0.4,0.4,0.5c0.2,0.1,0.5,0.2,0.9,0.2c0.4,0,0.7-0.1,0.9-0.2s0.3-0.3,0.3-0.5
					c0-0.1,0-0.2-0.1-0.3C92.6,27,92.5,26.9,92.4,26.9z"/>
				<path class="st5" d="M93.9,21.2c-0.2,0-0.3,0.1-0.4,0.2s-0.2,0.3-0.2,0.4c0,0.2,0.1,0.3,0.2,0.4c0.1,0.1,0.3,0.2,0.4,0.2
					c0.2,0,0.3-0.1,0.4-0.2c0.1-0.1,0.2-0.3,0.2-0.4c0-0.2-0.1-0.3-0.2-0.4S94,21.2,93.9,21.2z"/>
				<path class="st5" d="M93.9,23c-0.2,0-0.3,0.1-0.4,0.2c-0.1,0.1-0.2,0.3-0.2,0.5v3.5c0,0.2,0.1,0.4,0.2,0.6
					c0.1,0.1,0.3,0.2,0.4,0.2c0.2,0,0.3-0.1,0.4-0.2c0.1-0.1,0.2-0.3,0.2-0.6v-3.5c0-0.2-0.1-0.4-0.2-0.5C94.2,23,94,23,93.9,23z"/>
				<path class="st5" d="M99.6,25.9c-0.1,0-0.2,0-0.3,0.1c-0.1,0.1-0.2,0.2-0.2,0.3c-0.1,0.2-0.3,0.4-0.5,0.5C98.4,27,98.2,27,98,27
					c-0.2,0-0.4,0-0.5-0.1c-0.2-0.1-0.3-0.2-0.4-0.3c-0.1-0.1-0.2-0.3-0.2-0.5c-0.1-0.2-0.1-0.4-0.1-0.6c0-0.5,0.1-0.9,0.3-1.2
					c0.2-0.3,0.5-0.4,0.9-0.4c0.3,0,0.5,0.1,0.6,0.2c0.2,0.1,0.3,0.3,0.5,0.5c0.1,0.1,0.2,0.2,0.2,0.3s0.2,0.1,0.3,0.1
					c0.2,0,0.3-0.1,0.4-0.2c0.1-0.1,0.2-0.2,0.2-0.4c0-0.1,0-0.3-0.1-0.5s-0.2-0.3-0.4-0.5s-0.4-0.3-0.7-0.4
					c-0.3-0.1-0.6-0.1-0.9-0.1c-0.5,0-1,0.1-1.3,0.3s-0.6,0.5-0.8,0.9c-0.2,0.4-0.3,0.8-0.3,1.3c0,0.7,0.2,1.3,0.6,1.8
					s1,0.7,1.8,0.7c0.4,0,0.7,0,1-0.1s0.5-0.2,0.7-0.4c0.2-0.2,0.3-0.3,0.4-0.5c0.1-0.2,0.1-0.3,0.1-0.5c0-0.1,0-0.2-0.1-0.4
					C99.9,25.9,99.8,25.9,99.6,25.9z"/>
				<path class="st5" d="M105,25.7c-0.1-0.2-0.3-0.3-0.5-0.5c-0.2-0.1-0.6-0.2-0.9-0.3c-0.3-0.1-0.6-0.1-0.8-0.2
					c-0.2-0.1-0.3-0.1-0.4-0.2c-0.1-0.1-0.2-0.2-0.2-0.3c0-0.1,0.1-0.3,0.2-0.4c0.1-0.1,0.3-0.1,0.6-0.1c0.2,0,0.4,0,0.5,0.1
					c0.1,0.1,0.2,0.2,0.3,0.3c0.1,0.1,0.2,0.3,0.3,0.3c0.1,0.1,0.2,0.1,0.3,0.1c0.2,0,0.3,0,0.4-0.1s0.1-0.2,0.1-0.3
					c0-0.1,0-0.3-0.1-0.4s-0.2-0.3-0.4-0.4c-0.2-0.1-0.4-0.2-0.6-0.3c-0.3-0.1-0.5-0.1-0.9-0.1c-0.4,0-0.7,0.1-1,0.2
					c-0.3,0.1-0.5,0.3-0.6,0.5c-0.1,0.2-0.2,0.5-0.2,0.7c0,0.3,0.1,0.5,0.2,0.7c0.2,0.2,0.4,0.3,0.6,0.5s0.6,0.2,1,0.3
					c0.4,0.1,0.6,0.2,0.8,0.3c0.2,0.1,0.2,0.3,0.2,0.5c0,0.1-0.1,0.3-0.2,0.4c-0.2,0.1-0.4,0.2-0.6,0.2c-0.3,0-0.5-0.1-0.7-0.2
					c-0.2-0.1-0.3-0.3-0.5-0.5c-0.1-0.1-0.1-0.2-0.2-0.3s-0.2-0.1-0.3-0.1c-0.1,0-0.3,0-0.4,0.1s-0.1,0.2-0.1,0.3
					c0,0.2,0.1,0.4,0.2,0.6c0.1,0.2,0.4,0.4,0.7,0.5s0.7,0.2,1.1,0.2c0.5,0,0.9-0.1,1.2-0.2c0.3-0.1,0.6-0.3,0.7-0.5
					c0.2-0.2,0.2-0.5,0.2-0.9C105.1,26.1,105.1,25.9,105,25.7z"/>
			</g>
			<g>
				<path class="st5" d="M46.6,112.8h1.6v2.2c0,0.6-0.2,0.9-0.8,0.9c-0.3,0-0.6-0.2-0.8-0.5l-0.3,0.3c0.3,0.4,0.7,0.6,1.2,0.6
					c1,0,1.3-0.6,1.3-1.3v-2.6h-2.1V112.8z"/>
				<path class="st5" d="M51.3,113.3c-0.5,0-1,0.2-1.3,0.4l0.2,0.3c0.3-0.2,0.6-0.3,1-0.3c0.6,0,0.7,0.3,0.8,0.7
					c-1.5,0.1-2.1,0.4-2.1,1.1c0,0.5,0.4,0.8,1,0.8c0.4,0,0.8-0.2,1.1-0.5h0l0,0.4h0.4v-1.8C52.4,113.8,52,113.3,51.3,113.3z
					 M51.9,115.5c-0.3,0.3-0.6,0.4-1,0.4c-0.3,0-0.6-0.1-0.6-0.5c0-0.4,0.4-0.6,1.6-0.7V115.5z"/>
				<path class="st5" d="M55,113.3c-0.4,0-0.8,0.2-1.1,0.6h0l0-0.5h-0.4v2.9h0.5v-2c0.3-0.3,0.6-0.5,0.9-0.5c0.5,0,0.7,0.3,0.7,0.8
					v1.7H56v-1.8C56,113.7,55.7,113.3,55,113.3z"/>
			</g>
			<g>
				<polygon class="st5" points="77.5,116.3 78,116.3 78,114.5 79.6,114.5 79.6,114.1 78,114.1 78,112.8 79.9,112.8 79.9,112.4 
					77.5,112.4 				"/>
				<path class="st5" d="M82.1,113.3c-0.8,0-1.5,0.6-1.5,1.5c0,1,0.7,1.5,1.5,1.5c0.5,0,0.8-0.2,1.1-0.3l-0.2-0.3
					c-0.3,0.2-0.5,0.3-0.9,0.3c-0.6,0-1-0.3-1.1-1h2.2c0-0.1,0-0.2,0-0.3C83.4,113.9,83,113.3,82.1,113.3z M82.2,113.7
					c0.5,0,0.8,0.3,0.8,0.9h-1.8C81.3,114,81.7,113.7,82.2,113.7z"/>
				<path class="st5" d="M85.8,113.3c-0.3,0-0.7,0.2-1,0.4h0l0-0.6v-1.1h-0.5v4.2h0.4l0-0.3h0c0.3,0.2,0.6,0.4,0.9,0.4
					c0.7,0,1.3-0.6,1.3-1.5C87,113.9,86.6,113.3,85.8,113.3z M85.6,115.9c-0.2,0-0.5-0.1-0.8-0.3v-1.4c0.3-0.3,0.6-0.4,0.8-0.4
					c0.6,0,0.8,0.4,0.8,1C86.5,115.5,86.1,115.9,85.6,115.9z"/>
			</g>
			<g>
				<path class="st5" d="M109.6,114l-0.2,0.6h0l-0.2-0.6l-0.5-1.6h-0.6v3.9h0.5v-1.9c0-0.4,0-1-0.1-1.4h0l0.2,0.8l0.5,1.5h0.4
					l0.6-1.5l0.2-0.8h0c0,0.3-0.1,1-0.1,1.4v1.9h0.5v-3.9h-0.6L109.6,114z"/>
				<path class="st5" d="M113.1,113.3c-0.5,0-1,0.2-1.3,0.4l0.2,0.3c0.3-0.2,0.6-0.3,1-0.3c0.6,0,0.7,0.3,0.8,0.7
					c-1.5,0.1-2.1,0.4-2.1,1.1c0,0.5,0.4,0.8,1,0.8c0.4,0,0.8-0.2,1.1-0.5h0l0,0.4h0.4v-1.8C114.2,113.8,113.8,113.3,113.1,113.3z
					 M113.7,115.5c-0.3,0.3-0.6,0.4-1,0.4c-0.3,0-0.6-0.1-0.6-0.5c0-0.4,0.4-0.6,1.6-0.7V115.5z"/>
				<path class="st5" d="M117.3,113.3c-0.5,0-1,0.3-1.3,0.7h0l0-0.7h-0.4v2.9h0.5v-1.7c0.3-0.6,0.7-0.8,1.2-0.8c0.2,0,0.3,0,0.5,0.1
					l0.1-0.4C117.7,113.4,117.5,113.3,117.3,113.3z"/>
			</g>
			<g>
				<path class="st5" d="M140,112.4l-1.3,3.9h0.5l0.4-1.2h1.4l0.4,1.2h0.5l-1.3-3.9H140z M140.9,114.7h-1.1l0.2-0.6
					c0.1-0.4,0.3-0.9,0.4-1.3h0c0.1,0.4,0.2,0.9,0.4,1.3L140.9,114.7z"/>
				<path class="st5" d="M144.1,113.3c-0.3,0-0.7,0.2-1,0.4h0l0-0.4h-0.4v4.1h0.5v-1l0-0.5h0c0.3,0.2,0.6,0.4,0.9,0.4
					c0.7,0,1.3-0.6,1.3-1.5C145.3,113.9,144.8,113.3,144.1,113.3z M143.9,115.9c-0.2,0-0.5-0.1-0.8-0.3v-1.4
					c0.3-0.3,0.6-0.4,0.8-0.4c0.6,0,0.8,0.4,0.8,1C144.8,115.5,144.4,115.9,143.9,115.9z"/>
				<path class="st5" d="M148.2,113.3c-0.5,0-1,0.3-1.3,0.7h0l0-0.7h-0.4v2.9h0.5v-1.7c0.3-0.6,0.7-0.8,1.2-0.8c0.2,0,0.3,0,0.5,0.1
					l0.1-0.4C148.6,113.4,148.4,113.3,148.2,113.3z"/>
			</g>
			<g>
				<path class="st5" d="M171.4,114l-0.2,0.6h0L171,114l-0.5-1.6h-0.6v3.9h0.5v-1.9c0-0.4,0-1-0.1-1.4h0l0.2,0.8l0.5,1.5h0.4
					l0.6-1.5l0.2-0.8h0c0,0.3-0.1,1-0.1,1.4v1.9h0.5v-3.9H172L171.4,114z"/>
				<path class="st5" d="M174.9,113.3c-0.5,0-1,0.2-1.3,0.4l0.2,0.3c0.3-0.2,0.6-0.3,1-0.3c0.6,0,0.7,0.3,0.8,0.7
					c-1.5,0.1-2.1,0.4-2.1,1.1c0,0.5,0.4,0.8,1,0.8c0.4,0,0.8-0.2,1.1-0.5h0l0,0.4h0.4v-1.8C176,113.8,175.6,113.3,174.9,113.3z
					 M175.5,115.5c-0.3,0.3-0.6,0.4-1,0.4c-0.3,0-0.6-0.1-0.6-0.5c0-0.4,0.4-0.6,1.6-0.7V115.5z"/>
				<path class="st5" d="M179.3,113.4l-0.6,1.6c-0.1,0.3-0.2,0.6-0.3,0.8h0c-0.1-0.3-0.2-0.6-0.4-0.8l-0.7-1.6h-0.5l1.3,2.9
					l-0.1,0.2c-0.1,0.4-0.4,0.6-0.8,0.6c-0.1,0-0.2,0-0.3,0l-0.1,0.4c0.1,0,0.2,0.1,0.4,0.1c0.7,0,1-0.4,1.2-1l1.3-3.1H179.3z"/>
			</g>
			<g>
				<path class="st5" d="M201.1,112.8h1.6v2.2c0,0.6-0.2,0.9-0.8,0.9c-0.3,0-0.6-0.2-0.8-0.5l-0.3,0.3c0.3,0.4,0.7,0.6,1.2,0.6
					c1,0,1.3-0.6,1.3-1.3v-2.6h-2.1V112.8z"/>
				<path class="st5" d="M206.4,115.4c-0.3,0.4-0.6,0.5-0.9,0.5c-0.5,0-0.7-0.3-0.7-0.8v-1.7h-0.5v1.8c0,0.8,0.3,1.2,1,1.2
					c0.4,0,0.8-0.2,1.1-0.6h0l0,0.5h0.4v-2.9h-0.5V115.4z"/>
				<path class="st5" d="M209.5,113.3c-0.4,0-0.8,0.2-1.1,0.6h0l0-0.5H208v2.9h0.5v-2c0.3-0.3,0.6-0.5,0.9-0.5
					c0.5,0,0.7,0.3,0.7,0.8v1.7h0.5v-1.8C210.5,113.7,210.2,113.3,209.5,113.3z"/>
			</g>
			<g>
				<path class="st5" d="M232,112.8h1.6v2.2c0,0.6-0.2,0.9-0.8,0.9c-0.3,0-0.6-0.2-0.8-0.5l-0.3,0.3c0.3,0.4,0.7,0.6,1.2,0.6
					c1,0,1.3-0.6,1.3-1.3v-2.6H232V112.8z"/>
				<path class="st5" d="M237.3,115.4c-0.3,0.4-0.6,0.5-0.9,0.5c-0.5,0-0.7-0.3-0.7-0.8v-1.7h-0.5v1.8c0,0.8,0.3,1.2,1,1.2
					c0.4,0,0.8-0.2,1.1-0.6h0l0,0.5h0.4v-2.9h-0.5V115.4z"/>
				<path class="st5" d="M241.3,115.8c-0.2,0.1-0.4,0.1-0.5,0.1c-0.3,0-0.6-0.2-0.6-0.6v-3.3h-1.5v0.4h1v2.8c0,0.7,0.3,1,0.9,1
					c0.3,0,0.5-0.1,0.8-0.2L241.3,115.8z"/>
			</g>
		</g>
	</g>
</g>
</svg>
