<?xml version="1.0" encoding="utf-8"?>
<!-- Generator: Adobe Illustrator 26.1.0, SVG Export Plug-In . SVG Version: 6.00 Build 0)  -->
<svg version="1.1" id="Layer_2_00000075134299682518257460000003038237991793376682_"
	 xmlns="http://www.w3.org/2000/svg" xmlns:xlink="http://www.w3.org/1999/xlink" x="0px" y="0px" viewBox="0 0 299.8 142.8"
	 style="enable-background:new 0 0 299.8 142.8;" xml:space="preserve">
<style type="text/css">
	.st0{opacity:0.8;fill:#FFFFFF;enable-background:new    ;}
	.st1{fill:#E9E1EE;}
	.st2{fill:#D5D2E9;}
	.st3{opacity:0.2;fill:url(#SVGID_1_);enable-background:new    ;}
	.st4{fill:#FDBB40;}
	.st5{fill:#6469B0;}
	.st6{fill:#FFFFFF;}
	.st7{fill:#7C7D93;}
	.st8{fill:#023E8A;}
</style>
<g id="Layer_1-2">
	<g>
		<path class="st0" d="M25.2,14.1h247.4c6.1,0,11,4.9,11,11v90.6c0,6.1-4.9,11-11,11H25.2c-6.1,0-11-4.9-11-11V25.1
			C14.2,19,19.1,14.1,25.2,14.1z"/>
		<g>
			<g>
				<g>
					<g>
						<rect x="36.4" y="85.1" class="st1" width="232.8" height="0.6"/>
						<rect x="36.4" y="105.4" class="st2" width="232.8" height="0.3"/>
						<rect x="36.4" y="65" class="st1" width="232.8" height="0.6"/>
						<rect x="36.4" y="44.8" class="st1" width="232.8" height="0.5"/>
					</g>
					
						<linearGradient id="SVGID_1_" gradientUnits="userSpaceOnUse" x1="152.785" y1="38.3298" x2="152.785" y2="89.1718" gradientTransform="matrix(1 0 0 -1 0 143.8898)">
						<stop  offset="0" style="stop-color:#FFFFFF"/>
						<stop  offset="0.15" style="stop-color:#FEF0D5"/>
						<stop  offset="0.36" style="stop-color:#FEDDA0"/>
						<stop  offset="0.56" style="stop-color:#FDCE76"/>
						<stop  offset="0.74" style="stop-color:#FDC358"/>
						<stop  offset="0.89" style="stop-color:#FDBD46"/>
						<stop  offset="1" style="stop-color:#FDBB40"/>
						<stop  offset="1" style="stop-color:#FDBB40"/>
					</linearGradient>
					<path class="st3" d="M269.2,84.2c-12,0-19.9-29.2-37.1-29.4c-22-0.3-22.4,37-44.6,43.3c-17.7,5.1-19.8-19.6-40.8-16.9
						c-11.8,1.5-14.5,11.1-28.5,12.2c-16.4,1.3-36.1-31.1-52.1-35c-15-3.6-25.2,5.1-29.8,11.9v35.4h232.8
						C269.2,105.6,269.2,84.2,269.2,84.2z"/>
					<path class="st4" d="M182.9,99.3c-6.3,0-10.4-4-14.8-8.3c-5.4-5.2-11-10.7-21.3-9.3c-5.4,0.7-8.8,3.1-12.5,5.7
						c-4.2,2.9-8.5,5.9-16,6.6C109,94.6,98.9,85,89,75.7c-7.8-7.4-15.9-15-22.9-16.8c-16.9-4.1-26.6,7.9-29.2,11.6
						c-0.2,0.2-0.5,0.3-0.8,0.1s-0.3-0.5-0.1-0.8c2.7-3.9,12.8-16.3,30.4-12.1c7.3,1.8,15.2,9.2,23.4,17
						c9.7,9.2,19.7,18.7,28.5,17.9c7.3-0.6,11.4-3.5,15.5-6.4c3.6-2.5,7.3-5.1,13-5.8c10.9-1.4,16.9,4.5,22.2,9.6
						c5.4,5.2,10,9.7,18.5,7.3c10.4-3,15.9-12.9,21.2-22.5c5.9-10.7,11.6-20.8,23.2-20.8c0.1,0,0.2,0,0.3,0
						c9.6,0.1,16.4,9.1,22.4,16.9c4.9,6.4,9.5,12.5,14.7,12.5c0.3,0,0.5,0.2,0.5,0.6s-0.2,0.6-0.5,0.6c-5.8,0-10.5-6.3-15.6-12.9
						c-5.8-7.7-12.4-16.4-21.5-16.5c-0.1,0-0.2,0-0.3,0c-11,0-16.4,9.8-22.2,20.2c-5.5,9.8-11.1,20-21.9,23.1
						C186,99.1,184.4,99.3,182.9,99.3L182.9,99.3z"/>
					<path class="st5" d="M269.2,106.1c-0.1,0-0.1,0-0.2,0c-5.9-2.1-8.6-7.3-11.4-12.3c-2.9-5.5-5.7-10.6-12.2-12.1
						c-2.8-0.7-6.2,0-9.9,0.8c-5.8,1.2-11.7,2.4-15.5-2.1c-3.6-4.2-3.4-10.8-3.2-16.2l0.1-1.3c0.2-6.3,0.4-12.6-2.6-18.1
						c-1.4-2.6-3.6-4.4-6.2-5.1c-3.4-1-7.5-0.3-11.2,1.8c-5.2,3-9.2,8.5-13.1,13.8c-6,8.2-12.1,16.8-23.1,16.8c-0.1,0-0.2,0-0.4,0
						c-6.6-0.1-12.8-2.5-18.7-4.8c-5.3-2-10.8-4.1-16.5-4.6c-8.8-0.8-16,3.4-22.6,13l-0.5,0.7c-4.5,6.7-9.2,13.6-18.8,13
						c-5-0.3-9.4-3.3-13.8-6.2c-3.1-2.1-6.2-4.2-9.5-5.3c-9.9-3.2-18.1,1.8-23.3,6.6c-0.2,0.2-0.6,0.2-0.8,0c-0.2-0.2-0.2-0.6,0-0.8
						c5.4-5,13.9-10.2,24.4-6.8c3.4,1.1,6.7,3.3,9.8,5.4c4.2,2.8,8.5,5.7,13.2,6c9,0.5,13.3-5.8,17.8-12.6l0.5-0.7
						c6.8-10,14.3-14.3,23.6-13.5c5.9,0.5,11.4,2.6,16.8,4.7c5.9,2.3,12,4.6,18.4,4.7c10.6,0.2,16.4-7.8,22.5-16.3
						c3.9-5.4,8-11,13.4-14.1c4-2.3,8.4-3,12-1.9c3,0.8,5.4,2.8,6.9,5.7c3.1,5.7,2.9,12.5,2.7,18.6l-0.1,1.4
						c-0.2,5.1-0.4,11.5,2.9,15.4c3.4,4,8.8,2.9,14.4,1.7c3.6-0.7,7.3-1.5,10.3-0.8c7,1.6,10,7.2,12.9,12.7c2.7,5,5.3,9.8,10.8,11.8
						c0.3,0.1,0.4,0.4,0.3,0.7C269.6,106,269.4,106.1,269.2,106.1L269.2,106.1z"/>
					<g>
						<g>
							<path class="st6" d="M201.4,41.5c-1.6,0-3-1.3-3-2.8s1.3-2.8,3-2.8s3,1.3,3,2.8S203,41.5,201.4,41.5z"/>
							<path class="st5" d="M201.4,36.4c1.3,0,2.4,1,2.4,2.3s-1.1,2.3-2.4,2.3s-2.4-1-2.4-2.3S200,36.4,201.4,36.4L201.4,36.4z
								 M201.4,35.3c-1.9,0-3.5,1.5-3.5,3.4s1.6,3.4,3.5,3.4s3.5-1.5,3.5-3.4S203.3,35.3,201.4,35.3L201.4,35.3z"/>
						</g>
						<g>
							<path class="st6" d="M72.2,87.4c-1.6,0-3-1.3-3-2.8s1.3-2.8,3-2.8s3,1.3,3,2.8S73.8,87.4,72.2,87.4z"/>
							<path class="st5" d="M72.2,82.3c1.3,0,2.4,1,2.4,2.3s-1.1,2.3-2.4,2.3s-2.4-1-2.4-2.3S70.8,82.3,72.2,82.3L72.2,82.3z
								 M72.2,81.2c-1.9,0-3.5,1.5-3.5,3.4s1.6,3.4,3.5,3.4s3.5-1.5,3.5-3.4S74.1,81.2,72.2,81.2L72.2,81.2z"/>
						</g>
						<g>
							<path class="st6" d="M166.1,90.8c-1.6,0-3-1.3-3-2.8s1.3-2.8,3-2.8s3,1.3,3,2.8S167.7,90.8,166.1,90.8z"/>
							<path class="st4" d="M166.1,85.7c1.3,0,2.4,1,2.4,2.3s-1.1,2.3-2.4,2.3s-2.4-1-2.4-2.3S164.8,85.7,166.1,85.7L166.1,85.7z
								 M166.1,84.6c-1.9,0-3.5,1.5-3.5,3.4s1.6,3.4,3.5,3.4s3.5-1.5,3.5-3.4S168,84.6,166.1,84.6L166.1,84.6z"/>
						</g>
						<g>
							<path class="st6" d="M246.9,65.7c-1.6,0-3-1.3-3-2.8s1.3-2.8,3-2.8s3,1.3,3,2.8C249.8,64.4,248.5,65.7,246.9,65.7z"/>
							<path class="st4" d="M246.9,60.5c1.3,0,2.4,1,2.4,2.3s-1.1,2.3-2.4,2.3s-2.4-1-2.4-2.3S245.5,60.5,246.9,60.5L246.9,60.5z
								 M246.9,59.4c-1.9,0-3.5,1.5-3.5,3.4c0,1.9,1.6,3.4,3.5,3.4s3.5-1.5,3.5-3.4S248.8,59.4,246.9,59.4L246.9,59.4z"/>
						</g>
					</g>
				</g>
				<g>
					<path class="st7" d="M31.7,105.3c-0.1-0.2-0.2-0.5-0.2-0.9s0.1-0.7,0.2-0.9s0.3-0.3,0.6-0.3s0.5,0.1,0.6,0.3
						c0.1,0.2,0.2,0.5,0.2,0.9s-0.1,0.7-0.2,0.9s-0.3,0.3-0.6,0.3S31.9,105.5,31.7,105.3z M32.8,105.2c0.1-0.2,0.1-0.4,0.1-0.8
						s0-0.6-0.1-0.8c-0.1-0.2-0.2-0.2-0.5-0.2s-0.4,0.1-0.5,0.2c-0.1,0.2-0.1,0.4-0.1,0.8s0,0.6,0.1,0.8s0.2,0.2,0.4,0.2
						S32.7,105.3,32.8,105.2L32.8,105.2z"/>
					<g>
						<path class="st7" d="M31,85.2C31,85.2,31.1,85.3,31,85.2c0,0.1,0,0.1,0,0.1s0,0-0.1,0h-1.1c0,0,0,0-0.1,0s0,0,0-0.1
							s0-0.1,0-0.1s0,0,0.1,0h0.4v-1.9l-0.4,0.2c-0.1,0-0.1,0-0.1,0s0-0.1,0-0.1s0-0.1,0-0.1l0.5-0.3c0,0,0.1,0,0.1,0c0,0,0,0,0.1,0
							c0,0,0,0.1,0,0.1v2.1L31,85.2C31,85.2,31,85.2,31,85.2L31,85.2z"/>
						<path class="st7" d="M31.7,85.1c-0.1-0.2-0.2-0.5-0.2-0.9s0.1-0.7,0.2-0.9s0.3-0.3,0.6-0.3s0.5,0.1,0.6,0.3
							c0.1,0.2,0.2,0.5,0.2,0.9s-0.1,0.7-0.2,0.9s-0.3,0.3-0.6,0.3S31.9,85.3,31.7,85.1z M32.8,85c0.1-0.2,0.1-0.4,0.1-0.8
							s0-0.6-0.1-0.8c-0.1-0.2-0.2-0.2-0.5-0.2s-0.4,0.1-0.5,0.2c-0.1,0.2-0.1,0.4-0.1,0.8s0,0.6,0.1,0.8s0.2,0.2,0.4,0.2
							S32.7,85.2,32.8,85L32.8,85z"/>
					</g>
					<g>
						<path class="st7" d="M31.1,65.1C31.1,65.1,31.1,65.1,31.1,65.1c0,0.1,0,0.1-0.1,0.1h-1.3c0,0,0,0-0.1,0c0,0,0,0,0-0.1
							c0,0,0-0.1,0-0.1l0.8-0.9c0.1-0.1,0.2-0.2,0.2-0.4c0-0.1,0.1-0.2,0.1-0.3c0-0.1,0-0.2-0.1-0.3c-0.1-0.1-0.2-0.1-0.3-0.1
							c-0.1,0-0.2,0-0.3,0.1s-0.2,0.1-0.3,0.2c0,0,0,0-0.1,0c0,0,0,0,0,0c0,0,0,0,0-0.1c0,0,0-0.1,0-0.1c0.1-0.1,0.2-0.2,0.3-0.2
							s0.3-0.1,0.4-0.1c0.2,0,0.4,0,0.5,0.2c0.1,0.1,0.2,0.2,0.2,0.4c0,0.1,0,0.3-0.1,0.4s-0.2,0.3-0.3,0.4L29.9,65L31.1,65.1
							C31,65,31.1,65,31.1,65.1L31.1,65.1z"/>
						<path class="st7" d="M31.7,65c-0.1-0.2-0.2-0.5-0.2-0.9s0.1-0.7,0.2-0.9s0.3-0.3,0.6-0.3s0.5,0.1,0.6,0.3s0.2,0.5,0.2,0.9
							s-0.1,0.7-0.2,0.9s-0.3,0.3-0.6,0.3S31.9,65.2,31.7,65z M32.8,64.8c0.1-0.2,0.1-0.4,0.1-0.8s0-0.6-0.1-0.8
							c-0.1-0.2-0.2-0.2-0.5-0.2s-0.4,0.1-0.5,0.2c-0.1,0.2-0.1,0.4-0.1,0.8c0,0.3,0,0.6,0.1,0.8s0.2,0.2,0.4,0.2S32.7,65,32.8,64.8
							L32.8,64.8z"/>
					</g>
					<g>
						<path class="st7" d="M31,44.1c0.1,0.1,0.1,0.2,0.1,0.4c0,0.2-0.1,0.4-0.2,0.5c-0.1,0.1-0.3,0.2-0.5,0.2c-0.1,0-0.3,0-0.4-0.1
							c-0.1,0-0.2-0.1-0.3-0.2c0,0,0-0.1,0-0.1c0,0,0,0,0-0.1c0,0,0,0,0,0c0,0,0,0,0.1,0c0.1,0.1,0.2,0.2,0.3,0.2s0.2,0.1,0.3,0.1
							c0.2,0,0.3,0,0.4-0.1c0.1-0.1,0.1-0.2,0.1-0.3c0-0.3-0.2-0.5-0.6-0.5h-0.2c0,0,0,0-0.1,0c0,0,0,0,0-0.1s0,0,0-0.1s0,0,0.1,0
							h0.1c0.2,0,0.3,0,0.4-0.1c0.1-0.1,0.1-0.2,0.1-0.4c0-0.1,0-0.2-0.1-0.3s-0.2-0.1-0.3-0.1c-0.1,0-0.2,0-0.3,0.1
							s-0.2,0.1-0.3,0.2c0,0,0,0-0.1,0c0,0,0,0,0,0c0,0,0,0,0-0.1c0,0,0-0.1,0-0.1c0.1-0.1,0.2-0.2,0.3-0.2c0.1,0,0.3-0.1,0.4-0.1
							c0.2,0,0.4,0,0.5,0.2c0.1,0.1,0.2,0.2,0.2,0.4c0,0.1,0,0.2-0.1,0.3s-0.2,0.2-0.3,0.2C30.8,43.9,30.9,44,31,44.1L31,44.1z"/>
						<path class="st7" d="M31.7,44.8c-0.1-0.2-0.2-0.5-0.2-0.9s0.1-0.7,0.2-0.9s0.3-0.3,0.6-0.3s0.5,0.1,0.6,0.3s0.2,0.5,0.2,0.9
							s-0.1,0.7-0.2,0.9s-0.3,0.3-0.6,0.3S31.9,45,31.7,44.8z M32.8,44.7c0.1-0.2,0.1-0.4,0.1-0.8s0-0.6-0.1-0.8
							c-0.1-0.2-0.2-0.2-0.5-0.2S32,43,31.9,43.1c-0.1,0.2-0.1,0.4-0.1,0.8s0,0.6,0.1,0.8c0.1,0.2,0.2,0.2,0.4,0.2
							S32.7,44.8,32.8,44.7L32.8,44.7z"/>
					</g>
				</g>
			</g>
			<g>
				<path class="st7" d="M33.7,28.9c-0.2-0.3-0.4-0.5-0.6-0.8c-0.2-0.2-0.4-0.4-0.7-0.6c0.6-0.1,1-0.3,1.3-0.6
					c0.3-0.3,0.4-0.7,0.4-1.2c0-0.2,0-0.5-0.1-0.7c-0.1-0.2-0.2-0.4-0.4-0.6s-0.3-0.3-0.5-0.4c-0.2-0.1-0.4-0.1-0.6-0.2
					s-0.5,0-0.8,0h-2.2c-0.3,0-0.5,0.1-0.6,0.2c-0.1,0.1-0.2,0.3-0.2,0.6v5.1c0,0.3,0.1,0.5,0.2,0.6c0.1,0.1,0.3,0.2,0.5,0.2
					c0.2,0,0.4-0.1,0.5-0.2c0.1-0.1,0.2-0.3,0.2-0.6v-2.1h0.5c0.2,0,0.4,0,0.6,0.1c0.2,0.1,0.3,0.2,0.5,0.3c0.2,0.2,0.3,0.4,0.5,0.7
					l0.5,0.9c0.1,0.2,0.2,0.4,0.3,0.5c0.1,0.1,0.2,0.2,0.3,0.3c0.1,0.1,0.2,0.1,0.4,0.1c0.1,0,0.2,0,0.3-0.1s0.2-0.1,0.2-0.2
					c0.1-0.1,0.1-0.2,0.1-0.3c0-0.1,0-0.2-0.1-0.5C34,29.5,33.9,29.2,33.7,28.9z M32.1,26.7c-0.2,0.1-0.5,0.1-0.8,0.1h-1.2V25h1.2
					c0.5,0,0.8,0,0.9,0.1c0.2,0.1,0.3,0.2,0.4,0.3s0.1,0.3,0.1,0.5c0,0.2-0.1,0.4-0.2,0.5S32.3,26.7,32.1,26.7z"/>
				<path class="st7" d="M39.2,28.4c0.2-0.1,0.3-0.3,0.3-0.6c0-0.3-0.1-0.7-0.3-1s-0.4-0.6-0.8-0.8c-0.3-0.2-0.8-0.3-1.2-0.3
					c-0.4,0-0.7,0.1-1,0.2s-0.6,0.3-0.8,0.5c-0.2,0.2-0.4,0.5-0.5,0.8s-0.2,0.6-0.2,1c0,0.8,0.2,1.4,0.7,1.8c0.4,0.4,1,0.7,1.8,0.7
					c0.3,0,0.6,0,0.9-0.1s0.5-0.2,0.7-0.3c0.2-0.1,0.3-0.3,0.4-0.4c0.1-0.1,0.1-0.3,0.1-0.4c0-0.1,0-0.2-0.1-0.3S39.1,29,39,29
					c-0.1,0-0.2,0-0.3,0.1c-0.2,0.1-0.3,0.3-0.4,0.3c-0.1,0.1-0.2,0.2-0.3,0.2s-0.2,0.1-0.4,0.2c-0.1,0-0.3,0.1-0.4,0.1
					c-0.2,0-0.4-0.1-0.6-0.2c-0.2-0.1-0.3-0.3-0.4-0.5s-0.2-0.5-0.2-0.7h2.4C38.8,28.5,39.1,28.4,39.2,28.4z M36.1,27.8
					c0-0.4,0.2-0.7,0.4-0.9s0.4-0.3,0.8-0.3c0.3,0,0.6,0.1,0.8,0.3c0.2,0.2,0.3,0.5,0.3,0.9H36.1z"/>
				<path class="st7" d="M43.8,25.7c-0.2,0-0.3,0-0.4,0.1c-0.1,0.1-0.2,0.3-0.2,0.5l-1.1,2.9l-1-2.8c-0.1-0.3-0.2-0.5-0.3-0.6
					c-0.1-0.1-0.2-0.2-0.4-0.2c-0.1,0-0.2,0-0.3,0.1C40.1,25.8,40,25.9,40,26c-0.1,0.1-0.1,0.2-0.1,0.2c0,0.1,0,0.1,0,0.2
					s0,0.1,0.1,0.2s0.1,0.1,0.1,0.2l1.2,2.9c0.1,0.3,0.2,0.5,0.2,0.6s0.1,0.2,0.2,0.3c0.1,0.1,0.2,0.1,0.4,0.1c0.1,0,0.2,0,0.3-0.1
					c0.1-0.1,0.2-0.1,0.2-0.2s0.1-0.2,0.2-0.3c0.1-0.1,0.1-0.2,0.1-0.3l1.2-2.9c0-0.1,0.1-0.2,0.1-0.2s0-0.1,0.1-0.2s0-0.1,0-0.2
					c0-0.1-0.1-0.3-0.2-0.4C44.1,25.8,44,25.7,43.8,25.7z"/>
				<path class="st7" d="M49.3,28.4c0.2-0.1,0.3-0.3,0.3-0.6c0-0.3-0.1-0.7-0.3-1s-0.4-0.6-0.8-0.8c-0.3-0.2-0.8-0.3-1.2-0.3
					c-0.4,0-0.7,0.1-1,0.2s-0.6,0.3-0.8,0.5c-0.2,0.2-0.4,0.5-0.5,0.8s-0.2,0.6-0.2,1c0,0.8,0.2,1.4,0.7,1.8c0.4,0.4,1,0.7,1.8,0.7
					c0.3,0,0.6,0,0.9-0.1s0.5-0.2,0.7-0.3c0.2-0.1,0.3-0.3,0.4-0.4c0.1-0.1,0.1-0.3,0.1-0.4c0-0.1,0-0.2-0.1-0.3S49.2,29,49.1,29
					c-0.1,0-0.2,0-0.3,0.1c-0.2,0.1-0.3,0.3-0.4,0.3c-0.1,0.1-0.2,0.2-0.3,0.2s-0.2,0.1-0.4,0.2c-0.1,0-0.3,0.1-0.4,0.1
					c-0.2,0-0.4-0.1-0.6-0.2c-0.2-0.1-0.3-0.3-0.4-0.5s-0.2-0.5-0.2-0.7h2.4C48.9,28.5,49.2,28.4,49.3,28.4z M46.2,27.8
					c0-0.4,0.2-0.7,0.4-0.9s0.4-0.3,0.8-0.3c0.3,0,0.6,0.1,0.8,0.3c0.2,0.2,0.3,0.5,0.3,0.9H46.2z"/>
				<path class="st7" d="M54.8,26.5c-0.1-0.3-0.3-0.5-0.6-0.6c-0.3-0.1-0.5-0.2-0.9-0.2c-0.3,0-0.6,0.1-0.9,0.2
					c-0.3,0.1-0.5,0.3-0.7,0.6v-0.1c0-0.1,0-0.3-0.1-0.4c-0.1-0.1-0.1-0.2-0.2-0.2c-0.1-0.1-0.2-0.1-0.3-0.1c-0.2,0-0.3,0.1-0.4,0.2
					c-0.1,0.1-0.2,0.3-0.2,0.5v3.5c0,0.2,0.1,0.4,0.2,0.6c0.1,0.1,0.3,0.2,0.4,0.2c0.2,0,0.3-0.1,0.4-0.2c0.1-0.1,0.2-0.3,0.2-0.6
					v-1.5c0-0.5,0-0.8,0.1-1c0.1-0.2,0.2-0.4,0.4-0.5c0.2-0.1,0.4-0.2,0.6-0.2c0.3,0,0.6,0.1,0.7,0.3c0.1,0.2,0.2,0.5,0.2,0.9v2
					c0,0.2,0.1,0.4,0.2,0.6c0.1,0.1,0.3,0.2,0.4,0.2c0.2,0,0.3-0.1,0.4-0.2c0.1-0.1,0.2-0.3,0.2-0.6v-2.3c0-0.3,0-0.5,0-0.7
					C54.9,26.8,54.8,26.7,54.8,26.5z"/>
				<path class="st7" d="M60.3,28.4c0.2-0.1,0.3-0.3,0.3-0.6c0-0.3-0.1-0.7-0.3-1s-0.4-0.6-0.8-0.8c-0.3-0.2-0.8-0.3-1.2-0.3
					c-0.4,0-0.7,0.1-1,0.2s-0.6,0.3-0.8,0.5c-0.2,0.2-0.4,0.5-0.5,0.8s-0.2,0.6-0.2,1c0,0.8,0.2,1.4,0.7,1.8c0.4,0.4,1,0.7,1.8,0.7
					c0.3,0,0.6,0,0.9-0.1s0.5-0.2,0.7-0.3c0.2-0.1,0.3-0.3,0.4-0.4c0.1-0.1,0.1-0.3,0.1-0.4c0-0.1,0-0.2-0.1-0.3S60.2,29,60.1,29
					c-0.1,0-0.2,0-0.3,0.1c-0.2,0.1-0.3,0.3-0.4,0.3c-0.1,0.1-0.2,0.2-0.3,0.2s-0.2,0.1-0.4,0.2c-0.1,0-0.3,0.1-0.4,0.1
					c-0.2,0-0.4-0.1-0.6-0.2c-0.2-0.1-0.3-0.3-0.4-0.5s-0.2-0.5-0.2-0.7h2.4C59.9,28.5,60.2,28.4,60.3,28.4z M57.2,27.8
					c0-0.4,0.2-0.7,0.4-0.9s0.4-0.3,0.8-0.3c0.3,0,0.6,0.1,0.8,0.3c0.2,0.2,0.3,0.5,0.3,0.9H57.2z"/>
				<path class="st7" d="M65.8,25.9c-0.1-0.1-0.3-0.2-0.4-0.2s-0.3,0.1-0.4,0.2s-0.2,0.3-0.2,0.5v1.5c0,0.6,0,1-0.1,1.1
					c-0.1,0.2-0.2,0.4-0.4,0.5c-0.2,0.1-0.4,0.2-0.6,0.2c-0.2,0-0.4-0.1-0.5-0.2c-0.1-0.1-0.2-0.3-0.3-0.5c0-0.2-0.1-0.4-0.1-0.7v-2
					c0-0.2-0.1-0.4-0.2-0.5s-0.3-0.2-0.4-0.2c-0.2,0-0.3,0.1-0.4,0.2c-0.1,0.1-0.2,0.3-0.2,0.5v2.4c0,0.5,0.1,0.9,0.2,1.1
					c0.1,0.2,0.3,0.4,0.5,0.5c0.2,0.1,0.5,0.2,0.8,0.2c0.2,0,0.5,0,0.7-0.1c0.2-0.1,0.4-0.2,0.5-0.3c0.2-0.1,0.3-0.3,0.5-0.5V30
					c0,0.2,0.1,0.4,0.2,0.5c0.1,0.1,0.2,0.2,0.4,0.2c0.2,0,0.3-0.1,0.4-0.2c0.1-0.1,0.2-0.3,0.2-0.5v-3.5C66,26.2,65.9,26,65.8,25.9
					z"/>
			</g>
			<g>
				<path class="st5" d="M107.7,114H91.4c-0.3,0-0.6-0.2-0.6-0.6s0.2-0.6,0.6-0.6h16.3c0.3,0,0.6,0.2,0.6,0.6S108,114,107.7,114z"/>
				<path class="st4" d="M185.9,114h-16.3c-0.3,0-0.6-0.2-0.6-0.6s0.2-0.6,0.6-0.6h16.3c0.3,0,0.6,0.2,0.6,0.6S186.2,114,185.9,114z
					"/>
				<g>
					<path class="st7" d="M113.8,113.1c-0.6-0.2-0.9-0.4-0.9-0.8c0-0.3,0.2-0.6,0.8-0.6c0.4,0,0.7,0.1,0.8,0.2l0.2-0.5
						c-0.2-0.1-0.5-0.2-0.9-0.2c-0.8,0-1.4,0.5-1.4,1.2c0,0.6,0.4,1,1.1,1.2c0.6,0.2,0.8,0.5,0.8,0.8c0,0.4-0.3,0.7-0.9,0.7
						c-0.4,0-0.7-0.1-1-0.3l-0.1,0.5c0.2,0.2,0.7,0.3,1.1,0.3c1,0,1.5-0.6,1.5-1.2C114.8,113.7,114.5,113.3,113.8,113.1z"/>
					<path class="st7" d="M116.8,112.3c-0.9,0-1.4,0.7-1.4,1.7s0.6,1.5,1.5,1.5c0.5,0,0.8-0.1,1-0.2l-0.1-0.4
						c-0.2,0.1-0.5,0.2-0.9,0.2c-0.6,0-1-0.3-1.1-1.1h2.2c0-0.1,0-0.1,0-0.3C118.1,113.2,117.8,112.3,116.8,112.3z M115.9,113.7
						c0-0.4,0.3-0.9,0.9-0.9c0.6,0,0.8,0.6,0.8,0.9H115.9z"/>
					<rect x="118.8" y="111" class="st7" width="0.6" height="4.5"/>
					<rect x="120.3" y="111" class="st7" width="0.6" height="4.5"/>
					<path class="st7" d="M123,112.3c-0.9,0-1.4,0.7-1.4,1.7s0.6,1.5,1.5,1.5c0.5,0,0.8-0.1,1-0.2L124,115c-0.2,0.1-0.5,0.2-0.9,0.2
						c-0.6,0-1-0.3-1.1-1.1h2.2c0-0.1,0-0.1,0-0.3C124.3,113.2,124,112.3,123,112.3z M122.1,113.7c0-0.4,0.3-0.9,0.9-0.9
						c0.6,0,0.8,0.6,0.8,0.9H122.1z"/>
					<path class="st7" d="M126.3,112.3c-0.4,0-0.7,0.3-0.9,0.7h0l0-0.6h-0.5c0,0.3,0,0.6,0,1v2.1h0.6v-1.6c0-0.1,0-0.2,0-0.3
						c0.1-0.4,0.4-0.7,0.7-0.7c0.1,0,0.1,0,0.2,0v-0.5C126.4,112.3,126.4,112.3,126.3,112.3z"/>
				</g>
				<g>
					<path class="st7" d="M192.2,111.2l-1.5,4.3h0.6l0.4-1.3h1.5l0.5,1.3h0.6l-1.5-4.3H192.2z M191.9,113.7l0.4-1.2
						c0.1-0.3,0.2-0.5,0.2-0.8h0c0.1,0.2,0.1,0.5,0.2,0.8l0.4,1.2H191.9z"/>
					<path class="st7" d="M197.4,112.3c0-0.5,0.2-0.9,0.8-0.9c0.3,0,0.5,0.1,0.6,0.2l0.2-0.4c-0.2-0.1-0.5-0.2-0.8-0.2
						c-0.9,0-1.3,0.5-1.3,1.3v0.2h-1.3v-0.1c0-0.3,0.1-0.5,0.2-0.7c0.1-0.1,0.2-0.2,0.4-0.2c0.1,0,0.3,0.1,0.4,0.1l0.2-0.4
						c-0.1-0.1-0.3-0.1-0.5-0.1c-0.3,0-0.6,0.1-0.8,0.3c-0.3,0.3-0.4,0.6-0.4,1v0.1h-0.4v0.4h0.4v2.6h0.6v-2.6h1.3v2.6h0.6v-2.6h1.2
						v2.6h0.6v-3.1h-1.8V112.3z"/>
					<rect x="200.1" y="111" class="st7" width="0.6" height="4.5"/>
					<rect x="201.6" y="112.4" class="st7" width="0.6" height="3.1"/>
					<path class="st7" d="M201.9,111.2c-0.2,0-0.3,0.2-0.3,0.3c0,0.2,0.1,0.3,0.3,0.3c0.2,0,0.4-0.2,0.4-0.3
						C202.2,111.4,202.1,111.2,201.9,111.2z"/>
					<path class="st7" d="M205.2,113.6c0-0.6-0.2-1.3-1.2-1.3c-0.4,0-0.8,0.1-1,0.3l0.1,0.4c0.2-0.1,0.5-0.2,0.8-0.2
						c0.6,0,0.7,0.5,0.7,0.7v0.1c-1.2,0-1.8,0.4-1.8,1.1c0,0.4,0.3,0.9,0.9,0.9c0.4,0,0.8-0.2,0.9-0.5h0l0,0.4h0.5
						c0-0.2-0.1-0.5-0.1-0.7V113.6z M204.7,114.5c0,0.1,0,0.1,0,0.2c-0.1,0.3-0.3,0.5-0.7,0.5c-0.3,0-0.5-0.2-0.5-0.5
						c0-0.6,0.7-0.7,1.3-0.7V114.5z"/>
					<path class="st7" d="M206.8,111.5l-0.5,0.1v0.7h-0.5v0.4h0.5v1.7c0,0.4,0.1,0.6,0.2,0.8c0.1,0.2,0.3,0.2,0.6,0.2
						c0.2,0,0.4,0,0.5-0.1l0-0.4c-0.1,0-0.2,0-0.3,0c-0.3,0-0.4-0.2-0.4-0.6v-1.7h0.8v-0.4h-0.8V111.5z"/>
					<path class="st7" d="M210.7,113.8c0-0.6-0.3-1.4-1.3-1.4c-0.9,0-1.4,0.7-1.4,1.7s0.6,1.5,1.5,1.5c0.5,0,0.8-0.1,1-0.2l-0.1-0.4
						c-0.2,0.1-0.5,0.2-0.9,0.2c-0.6,0-1-0.3-1.1-1.1h2.2C210.6,114,210.7,113.9,210.7,113.8z M208.5,113.7c0-0.4,0.3-0.9,0.9-0.9
						c0.6,0,0.8,0.6,0.8,0.9H208.5z"/>
				</g>
			</g>
			<g>
				<path class="st1" d="M269.1,34.6h-32.4c-3.3,0-6-2.7-6-6s2.7-6,6-6h32.4c3.3,0,6,2.7,6,6S272.4,34.6,269.1,34.6z M236.7,23.2
					c-3,0-5.5,2.5-5.5,5.5s2.4,5.5,5.5,5.5h32.4c3,0,5.5-2.5,5.5-5.5s-2.5-5.5-5.5-5.5H236.7z"/>
				<g>
					<path class="st7" d="M244.3,30.4c0,0,0,0.1-0.1,0.1s-0.1,0-0.1,0c0,0-0.1,0-0.1,0c0,0-0.1,0-0.1-0.1l-0.4-1h-2.1l-0.4,1
						c0,0.1-0.1,0.1-0.2,0.1c0,0-0.1,0-0.1,0s-0.1-0.1-0.1-0.1c0,0,0,0,0-0.1l1.6-3.6c0-0.1,0.1-0.1,0.2-0.1c0,0,0.1,0,0.1,0
						c0,0,0.1,0,0.1,0.1L244.3,30.4C244.3,30.3,244.3,30.4,244.3,30.4L244.3,30.4z M241.5,29.2h1.9l-0.9-2.1L241.5,29.2z"/>
					<path class="st7" d="M244.9,30.5c0,0-0.1-0.1-0.1-0.1v-3.6c0-0.1,0-0.1,0.1-0.1c0,0,0.1,0,0.1,0c0.1,0,0.1,0,0.1,0
						s0.1,0.1,0.1,0.1v3.6c0,0.1,0,0.1-0.1,0.1c0,0-0.1,0-0.1,0C245,30.6,245,30.5,244.9,30.5z"/>
					<path class="st7" d="M246.2,30.5c0,0-0.1-0.1-0.1-0.1v-3.6c0-0.1,0-0.1,0.1-0.1c0,0,0.1,0,0.1,0c0.1,0,0.1,0,0.1,0
						s0.1,0.1,0.1,0.1v3.6c0,0.1,0,0.1-0.1,0.1c0,0-0.1,0-0.1,0C246.2,30.6,246.2,30.5,246.2,30.5z"/>
					<path class="st7" d="M250.1,30.4c0,0,0,0.1-0.1,0.1s-0.1,0-0.2,0h-0.2c-0.3,0-0.5-0.1-0.6-0.3c-0.1-0.1-0.2-0.4-0.2-0.7v-1.5
						h-0.4c0,0-0.1,0-0.1,0c0,0,0-0.1,0-0.1s0-0.1,0-0.1s0.1,0,0.1,0h0.4v-0.7c0-0.1,0-0.1,0-0.1c0,0,0.1,0,0.1,0s0.1,0,0.1,0
						s0.1,0.1,0.1,0.1v0.7h0.7c0,0,0.1,0,0.1,0s0,0.1,0,0.1s0,0.1,0,0.1c0,0-0.1,0-0.1,0h-0.7v1.5c0,0.2,0,0.4,0.1,0.5
						c0.1,0.1,0.2,0.1,0.4,0.2h0.1C250,30.3,250,30.3,250.1,30.4L250.1,30.4z"/>
					<path class="st7" d="M250.5,27.1c0,0-0.1-0.1-0.1-0.2s0-0.1,0.1-0.2c0.1,0,0.1-0.1,0.2-0.1s0.1,0,0.2,0.1
						c0.1,0,0.1,0.1,0.1,0.2s0,0.1-0.1,0.2s-0.1,0.1-0.2,0.1S250.6,27.1,250.5,27.1z M250.6,30.5c0,0-0.1-0.1-0.1-0.1V28
						c0-0.1,0-0.1,0.1-0.1c0,0,0.1,0,0.1,0s0.1,0,0.1,0c0,0,0,0.1,0,0.1v2.4c0,0.1,0,0.1,0,0.1c0,0-0.1,0-0.1,0
						S250.6,30.5,250.6,30.5z"/>
					<path class="st7" d="M255.6,28.8v1.6c0,0,0,0.1,0,0.1s-0.1,0-0.1,0s-0.1,0-0.1,0s-0.1-0.1-0.1-0.1v-1.5c0-0.3-0.1-0.5-0.1-0.6
						c-0.1-0.1-0.2-0.2-0.5-0.2c-0.2,0-0.4,0.1-0.6,0.2s-0.2,0.4-0.2,0.6v1.4c0,0,0,0.1,0,0.1s-0.1,0-0.1,0s-0.1,0-0.1,0
						c0,0-0.1-0.1-0.1-0.1v-1.5c0-0.3-0.1-0.5-0.1-0.6c-0.1-0.1-0.2-0.2-0.5-0.2c-0.2,0-0.4,0.1-0.6,0.2s-0.2,0.4-0.2,0.6v1.4
						c0,0,0,0.1,0,0.1s-0.1,0-0.1,0s-0.1,0-0.1,0s-0.1-0.1-0.1-0.1V28c0-0.1,0-0.1,0.1-0.1c0,0,0.1,0,0.1,0s0.1,0,0.1,0
						c0,0,0,0.1,0,0.1v0.3c0.1-0.2,0.2-0.3,0.3-0.4s0.3-0.1,0.5-0.1c0.4,0,0.7,0.2,0.8,0.5c0.1-0.2,0.2-0.3,0.4-0.4
						c0.2-0.1,0.3-0.1,0.6-0.1C255.3,27.8,255.6,28.1,255.6,28.8L255.6,28.8z"/>
					<path class="st7" d="M258.6,30c0,0,0,0.1,0,0.1c0,0.1-0.1,0.2-0.2,0.2c-0.3,0.2-0.5,0.2-0.8,0.2c-0.4,0-0.7-0.1-1-0.4
						s-0.4-0.6-0.4-1c0-0.3,0-0.5,0.2-0.7c0.1-0.2,0.2-0.4,0.4-0.5c0.2-0.1,0.4-0.2,0.6-0.2c0.4,0,0.6,0.1,0.8,0.3s0.3,0.5,0.3,0.9
						c0,0.1,0,0.1,0,0.1c0,0-0.1,0-0.1,0h-1.8c0,0.3,0.1,0.6,0.3,0.8c0.2,0.2,0.4,0.3,0.7,0.3c0.2,0,0.3,0,0.4-0.1
						c0.1,0,0.2-0.1,0.3-0.2C258.4,30,258.5,30,258.6,30C258.5,30,258.5,30,258.6,30L258.6,30z M256.9,28.3
						c-0.2,0.2-0.2,0.4-0.3,0.7h1.7c0-0.3-0.1-0.5-0.2-0.7s-0.3-0.2-0.6-0.2S257.1,28.1,256.9,28.3z"/>
				</g>
				<polygon class="st1" points="267.8,30.5 264.8,27.6 265.2,27.2 267.8,29.8 270.4,27.2 270.8,27.6 				"/>
			</g>
		</g>
	</g>
</g>
<path class="st8" d="M-40.6,456.9c0,126.6,102.6,229.3,229.3,229.3"/>
</svg>
