<?xml version="1.0" encoding="UTF-8"?>
<svg id="Layer_1" data-name="Layer 1" xmlns="http://www.w3.org/2000/svg" viewBox="0 0 512 448">
  <defs>
    <style>
      .cls-1 {
        fill: #023e8a;
      }
    </style>
  </defs>
  <g id="_23-teamwork" data-name=" 23-teamwork">
    <g id="Glyph">
      <circle class="cls-1" cx="405.33" cy="128" r="64"/>
      <circle class="cls-1" cx="106.67" cy="128" r="64"/>
      <circle class="cls-1" cx="256" cy="85.33" r="85.33"/>
      <path class="cls-1" d="M469.33,213.33h-75.47c7.53,12.96,11.48,27.68,11.47,42.67v149.33h85.33c11.78,0,21.33-9.55,21.33-21.33v-128c0-23.56-19.1-42.67-42.67-42.67Z"/>
      <path class="cls-1" d="M118.15,213.33H42.67c-23.56,0-42.67,19.1-42.67,42.67v128c0,11.78,9.55,21.33,21.33,21.33H106.67v-149.33c-.01-14.99,3.95-29.71,11.48-42.67Z"/>
      <path class="cls-1" d="M320,170.67h-21.33l-42.67,128-42.67-128h-21.33c-35.35,0-64,28.65-64,64v192c0,11.78,9.55,21.33,21.33,21.33h213.33c11.78,0,21.33-9.55,21.33-21.33V234.67c0-35.35-28.65-64-64-64Z"/>
    </g>
  </g>
</svg>