<?xml version="1.0" encoding="UTF-8"?>
<svg id="Layer_2" data-name="Layer 2" xmlns="http://www.w3.org/2000/svg" viewBox="0 0 267.5 267.83">
  <defs>
    <style>
      .cls-1 {
        fill: #fff;
      }
    </style>
  </defs>
  <g id="_ÎÓÈ_1" data-name="—ÎÓÈ_1">
    <path class="cls-1" d="M214.11,0H53.4C23.91,0,0,23.91,0,53.4V214.43c0,29.49,23.91,53.4,53.4,53.4H214.11c29.49,0,53.4-23.91,53.4-53.4V53.4c0-29.49-23.91-53.4-53.4-53.4Zm-8.46,118.66v4.86s-23.07,.36-38.18-11.7v52.28s1.47,35.73-32.56,48.08c-22.57,8.19-43.26,1.52-53.89-15.25,0,0,0,0,0,0-.04-.04-.09-.08-.12-.12,.04,.04,.04,.08,.07,.12-8.77-5.23-30.61-36.13-11.49-64.38,19.12-28.25,47.49-22.34,47.49-22.34v6.6h8.35v27.71s-17.45-5.4-27.4,12.49c0,0-4.89,11,2.33,22.12h.02s18.86,8.88,28.83-7.81c2.59-4.35,3.98-9.35,3.98-14.41V52.17h26.65v6.56h8.21s.4,13.84,16.53,26.01c0,0,10.85,10.82,21.19,12.83v21.09Z"/>
  </g>
</svg>