<?xml version="1.0" encoding="utf-8"?>
<!-- Generator: Adobe Illustrator 27.0.0, SVG Export Plug-In . SVG Version: 6.00 Build 0)  -->
<svg version="1.1" id="Capa_1" xmlns="http://www.w3.org/2000/svg" xmlns:xlink="http://www.w3.org/1999/xlink" x="0px" y="0px"
	 viewBox="0 0 512 512" style="enable-background:new 0 0 512 512;" xml:space="preserve">
<style type="text/css">
	.st0{fill:#FFFFFF;}
</style>
<g>
	<g>
		<path class="st0" d="M110,126c-5.5,0-10,4.5-10,10s4.5,10,10,10s10-4.5,10-10S115.5,126,110,126z"/>
	</g>
</g>
<g>
	<g>
		<path class="st0" d="M470.9,211.5l-14.5-28.9c-5.1-10.2-15.4-16.6-26.8-16.6H346V96c0-16.5-13.5-30-30-30H30C13.5,66,0,79.5,0,96
			v260c0,16.5,13.5,30,30,30h30c0,15.4,5.8,29.4,15.3,40H10c-5.5,0-10,4.5-10,10s4.5,10,10,10h492c5.5,0,10-4.5,10-10s-4.5-10-10-10
			h-25.3c9.5-10.6,15.3-24.6,15.3-40c0-0.6,0-1.1,0-1.7c11.7-4.1,20-15.2,20-28.3v-55.3C512,289,514.3,299.9,470.9,211.5z
			 M455.8,226l30,60H386v-60L455.8,226L455.8,226z M20,306h20v20H20V306z M120,426c-22.1,0-40-17.9-40-40c0-2.7,0.3-5.4,0.8-8
			c3.8-18.5,20.2-32,39.2-32s35.4,13.5,39.2,32c0,0,0,0,0,0c0.5,2.6,0.8,5.2,0.8,8C160,408,142.1,426,120,426z M120,326
			c-25.6,0-48.2,16.4-56.6,40H30c-5.5,0-10-4.5-10-10v-10h30c5.5,0,10-4.5,10-10v-40c0-5.5-4.5-10-10-10H20V96c0-5.5,4.5-10,10-10
			h286c5.5,0,10,4.5,10,10c0,7.4,0,246,0,270H176.6C168.2,342.4,145.6,326,120,326z M164.7,426c9.5-10.6,15.3-24.6,15.3-40
			c7.7,0,188.7,0,192,0c0,15.4,5.8,29.4,15.3,40L164.7,426L164.7,426z M432,426c-22.1,0-40-17.9-40-40c0-2.7,0.3-5.4,0.8-8
			c3.8-18.5,20.2-32,39.2-32s35.4,13.5,39.2,32c0,0,0,0,0,0c0.5,2.6,0.8,5.2,0.8,8C472,408,454,426,432,426z M492,356
			c0,3.3-1.6,6.3-4.1,8.1C479,341.5,456.9,326,432,326c-25.6,0-48.2,16.4-56.6,40H346V186h83.6c3.8,0,7.2,2.1,8.9,5.5l7.2,14.5H376
			c-5.5,0-10,4.5-10,10v80c0,5.5,4.5,10,10,10h116V356z"/>
	</g>
</g>
<g>
	<g>
		<path class="st0" d="M276,126H150c-5.5,0-10,4.5-10,10s4.5,10,10,10h126c5.5,0,10-4.5,10-10S281.5,126,276,126z"/>
	</g>
</g>
<g>
	<g>
		<path class="st0" d="M276,166h-86c-5.5,0-10,4.5-10,10s4.5,10,10,10h86c5.5,0,10-4.5,10-10S281.5,166,276,166z"/>
	</g>
</g>
<g>
	<g>
		<path class="st0" d="M432,366c-11,0-20,9-20,20c0,11,9,20,20,20c11,0,20-9,20-20C452,375,443,366,432,366z"/>
	</g>
</g>
<g>
	<g>
		<path class="st0" d="M120,366c-11,0-20,9-20,20c0,11,9,20,20,20c11,0,20-9,20-20C140,375,131,366,120,366z"/>
	</g>
</g>
</svg>
