<?xml version="1.0" encoding="UTF-8"?>
<svg id="Layer_2" data-name="Layer 2" xmlns="http://www.w3.org/2000/svg" viewBox="0 0 267.5 267.83">
  <defs>
    <style>
      .cls-1 {
        fill: #fff;
      }
    </style>
  </defs>
  <g id="_ÎÓÈ_1" data-name="—ÎÓÈ_1">
    <path class="cls-1" d="M214.11,0H53.4C23.91,0,0,23.91,0,53.4V214.43c0,29.49,23.91,53.4,53.4,53.4H214.11c29.49,0,53.4-23.91,53.4-53.4V53.4c0-29.49-23.91-53.4-53.4-53.4Zm19.3,72.54c-3.71,5.39-8,10.26-12.86,14.64-2.06,1.85-4.19,3.61-6.44,5.23-.45,.33-.6,.68-.56,1.23,.19,2.71,.13,5.42,.05,8.13-.09,2.87-.28,5.74-.6,8.6-.7,6.2-1.86,12.32-3.51,18.34-4.2,15.34-11.04,29.39-20.68,42.06-11.2,14.72-25.1,26.16-41.89,34.02-7.78,3.64-15.88,6.31-24.28,8.1-3.39,.72-6.8,1.3-10.24,1.73-2.66,.33-5.33,.57-8.01,.72-2.25,.13-4.5,.26-6.74,.24-2.76-.02-5.53-.07-8.29-.23-2.68-.16-5.35-.39-8.01-.73-3.78-.48-7.54-1.16-11.26-2.01-11.67-2.68-22.68-7.04-33.01-13.09-1.05-.62-2.09-1.26-3.13-1.9-.09-.05-.21-.09-.18-.27,22.31,2.14,42.38-3.59,60.25-17.1-.13-.36-.35-.29-.52-.3-2.52-.16-5.02-.39-7.48-.97-11.77-2.77-20.76-9.36-26.91-19.78-1.29-2.18-2.3-4.48-3.14-6.86-.07-.2-.14-.41-.2-.62-.01-.04,.02-.1,.05-.22,2.02,.33,4.06,.55,6.11,.65,2.04,.1,4.06-.04,6.08-.26,2.03-.23,4.05-.55,6.01-1.24-13.38-3.24-23.22-10.89-29.13-23.36-2.51-5.28-4.35-14.62-3.56-17.39,4.66,2.5,9.59,4.1,14.83,4.73,1.15,.14,2.3,.23,3.66,.23-12.67-9.26-18.89-21.54-18.2-37.09,.28-6.34,2.18-12.27,5.36-17.79,.38,.14,.51,.42,.7,.65,15.02,17.93,33.7,30.38,56.05,37.31,4.94,1.53,9.97,2.7,15.08,3.53,2.49,.4,4.98,.73,7.48,.99,1.62,.17,3.24,.24,4.86,.42,.21,.02,.43,.02,.65,.02,.24,0,.35-.13,.3-.37-.09-.48-.17-.96-.26-1.44-.74-3.97-.89-7.96-.47-11.98,1.49-14.22,10.38-26.83,23.54-32.99,3.52-1.65,7.22-2.75,11.07-3.37,2.96-.48,5.94-.63,8.91-.42,10.41,.73,19.37,4.75,26.75,12.16,.6,.6,1.12,.71,1.92,.54,8.52-1.81,16.54-4.89,24.1-9.2,.17-.09,.33-.19,.49-.28,.05-.03,.1-.03,.15-.04,.01,1.87-3.78,9.01-6.78,12.75-3.05,3.82-6.68,6.99-10.8,9.65,3.99-.34,7.86-1.12,11.68-2.15,3.85-1.04,7.59-2.36,11.31-3.96,.05,.35-.18,.53-.31,.73Z"/>
  </g>
</svg>