<?xml version="1.0" encoding="UTF-8"?>
<svg id="Layer_1" data-name="Layer 1" xmlns="http://www.w3.org/2000/svg" viewBox="0 0 110 110">
  <defs>
    <style>
      .cls-1 {
        fill: #010101;
      }

      .cls-2 {
        fill: #ed2224;
      }

      .cls-3 {
        fill: #fff;
      }

      .cls-4 {
        fill: #08743b;
      }
    </style>
  </defs>
  <path class="cls-2" d="M38.25,2.62V107.38C16.09,100.29,0,79.5,0,55S16.09,9.71,38.25,2.62Z"/>
  <g>
    <path class="cls-1" d="M106.87,73.34c-7.56,21.34-27.96,36.66-51.86,36.66-5.84,0-11.47-.91-16.75-2.62v-34.05H106.87Z"/>
    <path class="cls-4" d="M106.87,36.67H38.25V2.62c5.28-1.7,10.91-2.62,16.75-2.62,23.9,0,44.3,15.33,51.86,36.67Z"/>
    <path class="cls-3" d="M110,55c0,6.43-1.1,12.6-3.13,18.34H38.25V36.67H106.87c2.04,5.73,3.13,11.9,3.13,18.33Z"/>
  </g>
</svg>