<?xml version="1.0" encoding="UTF-8"?>
<svg id="Capa_1" data-name="Capa 1" xmlns="http://www.w3.org/2000/svg" viewBox="0 0 509.99 512">
  <defs>
    <style>
      .cls-1 {
        fill: #22b573;
      }
    </style>
  </defs>
  <path class="cls-1" d="M307,250h160c8.28,0,15-6.72,15-15s-6.72-15-15-15h-160c-8.28,0-15,6.72-15,15s6.72,15,15,15Z"/>
  <path class="cls-1" d="M330.46,157.13c-6.34,10.26-11.1,21.34-14.2,32.87h141.49c-3.1-11.53-7.86-22.6-14.2-32.87-7.65-12.38-17.38-23.23-28.7-32.13,11.32-8.91,21.05-19.76,28.7-32.13,6.34-10.26,11.1-21.34,14.2-32.87h-141.49c3.1,11.53,7.86,22.6,14.2,32.87,7.65,12.38,17.38,23.23,28.7,32.13-11.32,8.91-21.05,19.76-28.7,32.13h0Z"/>
  <path class="cls-1" d="M307,30h160c8.28,0,15-6.72,15-15s-6.72-15-15-15h-160c-8.28,0-15,6.72-15,15s6.72,15,15,15Z"/>
  <path class="cls-1" d="M206.92,142.45c17.55-17.55,17.54-46.09,0-63.64L143.28,15.17c-17.54-17.55-46.09-17.55-63.64,0l-10.6,10.61,127.28,127.28,10.61-10.61Z"/>
  <path class="cls-1" d="M496.83,368.72l-63.64-63.64c-17.55-17.55-46.09-17.55-63.64,0l-10.61,10.61,127.28,127.28,10.61-10.61c17.55-17.55,17.55-46.09,0-63.64h0Z"/>
  <path class="cls-1" d="M325.26,349.37c-4.84,4.84-12.24,5.86-18.01,2.47-20.15-11.83-50.85-32.62-82.66-64.44-31.82-31.82-52.6-62.51-64.44-82.66-3.38-5.76-2.37-13.17,2.47-18.01l12.47-12.47L47.82,46.99l-21.08,21.08C12.56,82.25,3.61,100.27,.87,120.17c-2.72,19.79,.95,39.55,10.63,57.15,37.89,68.92,82.01,127.49,138.85,184.33,56.84,56.84,115.41,100.96,184.33,138.85,17.6,9.67,37.36,13.35,57.15,10.63,19.9-2.74,37.91-11.68,52.1-25.87l21.08-21.08-127.28-127.28-12.47,12.47Z"/>
</svg>