<?xml version="1.0" encoding="utf-8"?>
<!-- Generator: Adobe Illustrator 27.0.0, SVG Export Plug-In . SVG Version: 6.00 Build 0)  -->
<svg version="1.1" id="Layer_1" xmlns="http://www.w3.org/2000/svg" xmlns:xlink="http://www.w3.org/1999/xlink" x="0px" y="0px"
	 viewBox="0 0 512 512" style="enable-background:new 0 0 512 512;" xml:space="preserve">
<style type="text/css">
	.st0{fill:#023E8A;}
</style>
<g>
	<path class="st0" d="M57.9,324.6C26,324.6,0,350.8,0,382.9c0,10.2,2.7,20.2,7.7,29c0.2,0.4,0.5,0.8,0.7,1.3l41.5,74.3
		c2.5,4.5,8.8,4.6,11.5,0.3l44.6-72.3c1.1-1.7,1.5-2.4,1.7-2.7c0.1-0.2,0.2-0.2,0.3-0.4c0.1-0.1,0.1-0.2,0.2-0.3
		c5.1-8.8,7.7-18.9,7.7-29.1C115.9,350.8,89.9,324.6,57.9,324.6z M57.9,406.4c-12.9,0-23.3-10.5-23.3-23.5s10.4-23.5,23.3-23.5
		s23.3,10.5,23.3,23.5S70.8,406.4,57.9,406.4z"/>
	<path class="st0" d="M450.8,223.5c-0.1,0-0.2,0-0.4,0c-6-0.1-11.5-3.4-14.4-8.7l-61.8-110.6c-0.2-0.4-0.4-0.7-0.6-1.1
		c-7.5-13.7-11.5-29.2-11.5-44.8c0-7.6,0.9-14.9,2.6-22c-12.9-5-27.5-9.7-42.4-13.5c1.1,27.4-6.2,54-21.3,77.2
		c-15.1,23.4-37.4,42.3-64.3,54.9c-5.2,2.4-10.5,4.5-15.6,6.5c-12.1,4.8-23.6,9.3-30.7,17.1c-4,4.3-7.2,10.3-10.6,16.7
		c-3.5,6.6-7.5,14-13,20.8c-11.7,14.4-29.7,24.6-50.7,28.9c-21,4.3-38.9,4.5-54.8,0.8c-19.8-4.6-26.1-1.7-31.7,0.8
		c-2.5,1.1-5.3,2.4-8.8,3.2c-0.4,0.1-2.5,0.5-5.2,1c-0.2,4.1-0.3,8.2-0.3,12.3c0,9.9,1.2,23.8,2.8,36.3c12-5.8,25.4-9,39.6-9
		c50.7,0,91.9,41.5,91.9,92.5c0,16-4.1,31.7-11.9,45.5c-0.2,0.3-0.3,0.6-0.5,1l-0.2,0.4c-0.4,0.7-0.4,0.7-0.7,1.2
		c-0.2,0.3-0.6,1-1.6,2.6l-18.5,29.9c9.6,6.9,17.6,12.1,28.2,17.7c8.9-6.6,2.7-2,8.9-6.6c18-13.2,38.8-38.8,43-59.6
		c4.5-22.1,3.3-45.2,2.1-69.7l-0.3-5.4c-0.9-19.3-1.3-38.2,4.6-56.6c7.6-23.7,25.1-41.6,45.9-46.5c21.4-5.1,40.7,3.2,57.7,10.6
		c3.4,1.5,6.6,2.9,9.8,4.1c37.7,15.1,81,13.2,118.7,10.2c2.1-0.2,4.1-0.3,6.2-0.5c22.4-1.8,45.6-3.7,69,0
		c-0.3-28.5-7.8-62-17.7-89.8l-27.2,44.1C462.2,220.5,456.7,223.5,450.8,223.5L450.8,223.5z"/>
	<path class="st0" d="M69.2,212.4c11.1,2.6,24.3,2.3,40.4-1c13.3-2.7,24.4-8.8,31.1-17c3.4-4.2,6.3-9.6,9.3-15.3
		c4-7.6,8.6-16.2,15.5-23.7c12.4-13.5,28.8-20,43.2-25.7c4.9-1.9,9.4-3.7,13.8-5.8c43.9-20.4,69-60,65.7-103.4
		c-0.1-1.6-0.2-3.1-0.2-4.4c-8.8-1.2-17.3-1.8-25.2-1.8c-119.7,0-219.5,85.6-242.4,199.2C30.7,209.4,44.5,206.6,69.2,212.4
		L69.2,212.4z"/>
	<path class="st0" d="M504.1,87.7c0.1-0.1,0.1-0.2,0.2-0.3c5.1-8.8,7.7-18.9,7.7-29.1C512,26.2,486,0,454.1,0
		c-31.9,0-57.9,26.2-57.9,58.3c0,10.2,2.7,20.2,7.7,29c0.2,0.4,0.5,0.8,0.7,1.3l41.5,74.3c2.5,4.5,8.8,4.6,11.5,0.3l44.6-72.3
		c1.1-1.7,1.5-2.4,1.7-2.7C503.9,88,504,87.9,504.1,87.7z M454.1,81.8c-12.9,0-23.3-10.5-23.3-23.5s10.4-23.5,23.3-23.5
		s23.3,10.5,23.3,23.5S466.9,81.8,454.1,81.8z"/>
	<path class="st0" d="M506.7,295.3c-20-3.5-40.8-1.8-62.8,0c-2.1,0.2-4.2,0.3-6.3,0.5c-41.4,3.3-89.4,5.3-133.9-12.5
		c-3.6-1.5-7.2-3-10.7-4.5c-13.3-5.8-25.9-11.3-36.3-8.8c-9.1,2.2-17.5,11.5-21.4,23.7c-4.1,13-3.8,27.8-3,44.5l0.3,5.4
		c1.3,25.5,2.6,51.9-2.7,78.2c-5.4,26.7-25.7,57.3-49.3,75.5c26,9.4,53.8,14.7,82.2,14.7c125.7,0,229.5-94.4,245.3-216.5
		C507.6,295.4,507.2,295.4,506.7,295.3z"/>
</g>
</svg>
