<?xml version="1.0" encoding="UTF-8"?>
<svg id="Layer_2" data-name="Layer 2" xmlns="http://www.w3.org/2000/svg" viewBox="0 0 267.5 267.83">
  <defs>
    <style>
      .cls-1 {
        fill: #fff;
      }
    </style>
  </defs>
  <g id="_ÎÓÈ_1" data-name="—ÎÓÈ_1">
    <g>
      <path class="cls-1" d="M151.9,130.88l-36.56-20.23c-2.3-1.27-5.07,.39-5.07,3.02v40.46c0,2.63,2.77,4.29,5.07,3.02l36.54-20.23c2.37-1.31,2.4-4.72,.02-6.03Z"/>
      <path class="cls-1" d="M214.11,0H53.4C23.91,0,0,23.91,0,53.4V214.43c0,29.49,23.91,53.4,53.4,53.4H214.11c29.49,0,53.4-23.91,53.4-53.4V53.4c0-29.49-23.91-53.4-53.4-53.4Zm.75,173.81c-1.18,6.87-6.21,12.09-12.41,12.87l-.16,.03c-45.6,5.71-91.63,5.77-137.23,0h0c-6.2-.72-11.23-6-12.41-12.87-4.54-26.36-4.54-53.47,0-79.83,1.18-6.87,6.21-12.08,12.41-12.86,45.6-5.73,91.63-5.73,137.23-.02l.16,.02c6.2,.78,11.23,5.99,12.41,12.86,4.54,26.36,4.54,53.46,0,79.83Z"/>
    </g>
  </g>
</svg>