<svg width="20" height="23" viewBox="0 0 20 23" fill="none" xmlns="http://www.w3.org/2000/svg">
<path d="M3.45009 13.36L4.3068 13.8758L4.30903 13.8721L3.45009 13.36ZM2.30009 15.27L1.44339 14.7542L1.44324 14.7544L2.30009 15.27ZM3.38009 18.2L3.05949 19.1472L3.0632 19.1485L3.38009 18.2ZM16.6501 18.2L16.3362 17.2505L16.3332 17.2515L16.6501 18.2ZM17.7301 15.27L18.5876 14.7555L18.5868 14.7542L17.7301 15.27ZM16.5801 13.36L15.7139 13.8597L15.7186 13.8678L15.7234 13.8758L16.5801 13.36ZM11.8701 2.7L11.5913 3.66035C11.9572 3.76658 12.3517 3.65564 12.6086 3.37424C12.8655 3.09284 12.9402 2.68989 12.8011 2.33513L11.8701 2.7ZM10.9101 2.5L10.7861 3.49229L10.7898 3.49274L10.9101 2.5ZM8.17009 2.7L7.23903 2.33513C7.09998 2.68995 7.17469 3.09296 7.43169 3.37436C7.68868 3.65577 8.08328 3.76663 8.44923 3.66025L8.17009 2.7ZM10.0201 1.41C6.1578 1.41 3.02009 4.54772 3.02009 8.41H5.02009C5.02009 5.65229 7.26237 3.41 10.0201 3.41V1.41ZM3.02009 8.41V11.3H5.02009V8.41H3.02009ZM3.02009 11.3C3.02009 11.4845 2.97699 11.7749 2.88777 12.0963C2.79865 12.4174 2.68575 12.6892 2.59114 12.8479L4.30903 13.8721C4.52442 13.5108 4.69653 13.0577 4.8149 12.6312C4.93319 12.2051 5.02009 11.7255 5.02009 11.3H3.02009ZM2.59339 12.8442L1.44339 14.7542L3.15679 15.7858L4.30679 13.8758L2.59339 12.8442ZM1.44324 14.7544C0.946853 15.5794 0.836918 16.5181 1.14856 17.3597C1.45977 18.2002 2.15295 18.8404 3.05949 19.1472L3.70068 17.2528C3.30723 17.1196 3.10541 16.8848 3.02411 16.6653C2.94326 16.4469 2.94332 16.1406 3.15694 15.7856L1.44324 14.7544ZM3.0632 19.1485C7.57887 20.6572 12.4513 20.6572 16.967 19.1485L16.3332 17.2515C12.2289 18.6228 7.80131 18.6228 3.69698 17.2515L3.0632 19.1485ZM16.964 19.1495C18.786 18.5471 19.5753 16.4016 18.5876 14.7555L16.8726 15.7845C17.2049 16.3384 16.9341 17.0529 16.3362 17.2505L16.964 19.1495ZM18.5868 14.7542L17.4368 12.8442L15.7234 13.8758L16.8734 15.7858L18.5868 14.7542ZM17.4463 12.8603C17.3524 12.6976 17.2404 12.4216 17.152 12.0993C17.0633 11.7758 17.0201 11.4848 17.0201 11.3H15.0201C15.0201 11.7252 15.1069 12.2042 15.2232 12.6282C15.3398 13.0534 15.5078 13.5024 15.7139 13.8597L17.4463 12.8603ZM17.0201 11.3V8.41H15.0201V11.3H17.0201ZM17.0201 8.41C17.0201 4.55772 13.8724 1.41 10.0201 1.41V3.41C12.7678 3.41 15.0201 5.66229 15.0201 8.41H17.0201ZM12.1489 1.73966C11.7954 1.63704 11.4221 1.55474 11.0304 1.50727L10.7898 3.49274C11.0581 3.52526 11.3247 3.58297 11.5913 3.66035L12.1489 1.73966ZM11.0341 1.50772C9.94667 1.37179 8.88902 1.44961 7.89095 1.73975L8.44923 3.66025C9.17115 3.45039 9.95351 3.38821 10.7861 3.49228L11.0341 1.50772ZM9.10114 3.06488C9.24521 2.69725 9.60295 2.44 10.0201 2.44V0.440002C8.75723 0.440002 7.67496 1.22275 7.23903 2.33513L9.10114 3.06488ZM10.0201 2.44C10.4372 2.44 10.795 2.69725 10.939 3.06488L12.8011 2.33513C12.3652 1.22276 11.2829 0.440002 10.0201 0.440002V2.44ZM12.0201 18.56C12.0201 19.6577 11.1178 20.56 10.0201 20.56V22.56C12.2224 22.56 14.0201 20.7623 14.0201 18.56H12.0201ZM10.0201 20.56C9.47673 20.56 8.96789 20.3336 8.60719 19.9729L7.19298 21.3871C7.91228 22.1064 8.92345 22.56 10.0201 22.56V20.56ZM8.60719 19.9729C8.24649 19.6122 8.02009 19.1034 8.02009 18.56H6.02009C6.02009 19.6566 6.47368 20.6678 7.19298 21.3871L8.60719 19.9729Z" fill="#292D32"/>
</svg>
