<svg width="20" height="20" viewBox="0 0 20 20" fill="none" xmlns="http://www.w3.org/2000/svg">
<g clip-path="url(#clip0_1462_35406)">
<path d="M10 13.1345C11.7259 13.1345 13.125 11.7354 13.125 10.0095C13.125 8.28363 11.7259 6.88452 10 6.88452C8.27411 6.88452 6.875 8.28363 6.875 10.0095C6.875 11.7354 8.27411 13.1345 10 13.1345Z" stroke="#52525B" stroke-linecap="round" stroke-linejoin="round"/>
<path d="M14.1473 16.2597C12.7549 17.1838 11.0938 17.6164 9.42752 17.4889C7.76126 17.3615 6.18528 16.6812 4.94966 15.556C3.71404 14.4309 2.88955 12.9254 2.60701 11.2783C2.32447 9.63121 2.60007 7.93695 3.39008 6.46434C4.18009 4.99172 5.43925 3.82511 6.96777 3.14961C8.4963 2.47411 10.2066 2.3284 11.8274 2.73562C13.4482 3.14284 14.8865 4.07965 15.9142 5.39741C16.9419 6.71516 17.5002 8.33839 17.5003 10.0095C17.5003 11.7354 16.8753 13.1345 15.3128 13.1345C13.7503 13.1345 13.1253 11.7354 13.1253 10.0095V6.88453" stroke="#52525B" stroke-linecap="round" stroke-linejoin="round"/>
</g>
<defs>
<clipPath id="clip0_1462_35406">
<rect width="20" height="20" fill="white" transform="translate(0 0.0100098)"/>
</clipPath>
</defs>
</svg>
