<svg width="14" height="13" viewBox="0 0 14 13" fill="none" xmlns="http://www.w3.org/2000/svg">
<path d="M6.69068 1.22407C8.39991 1.22407 8.60232 1.23047 9.27754 1.26126C9.68351 1.26622 10.0856 1.34077 10.4664 1.48166C10.7425 1.58815 10.9933 1.75128 11.2026 1.96056C11.4119 2.16983 11.575 2.42061 11.6815 2.69674C11.8224 3.07752 11.8969 3.47964 11.9019 3.88561C11.9324 4.56083 11.9391 4.76324 11.9391 6.47247C11.9391 8.1817 11.9327 8.38412 11.9019 9.05933C11.8969 9.46531 11.8224 9.86743 11.6815 10.2482C11.575 10.5243 11.4119 10.7751 11.2026 10.9844C10.9933 11.1937 10.7425 11.3568 10.4664 11.4633C10.0856 11.6042 9.68351 11.6787 9.27754 11.6837C8.60262 11.7142 8.40021 11.7209 6.69068 11.7209C4.98114 11.7209 4.77873 11.7145 4.10381 11.6837C3.69784 11.6787 3.29572 11.6042 2.91494 11.4633C2.63881 11.3568 2.38803 11.1937 2.17876 10.9844C1.96948 10.7751 1.80635 10.5243 1.69986 10.2482C1.55897 9.86743 1.48443 9.46531 1.47946 9.05933C1.44897 8.38412 1.44227 8.1817 1.44227 6.47247C1.44227 4.76324 1.44867 4.56083 1.47946 3.88561C1.48443 3.47964 1.55897 3.07752 1.69986 2.69674C1.80635 2.42061 1.96948 2.16983 2.17876 1.96056C2.38803 1.75128 2.63881 1.58815 2.91494 1.48166C3.29572 1.34077 3.69784 1.26622 4.10381 1.26126C4.77903 1.23077 4.98144 1.22407 6.69068 1.22407ZM6.69068 0.0705566C4.95309 0.0705566 4.73422 0.0778727 4.05138 0.108966C3.52006 0.119534 2.99438 0.220135 2.4967 0.406489C2.06978 0.567342 1.68309 0.819413 1.36362 1.14511C1.03762 1.4647 0.785338 1.85161 0.624385 2.27881C0.438031 2.77649 0.337431 3.30217 0.326863 3.83349C0.296379 4.51571 0.289062 4.73459 0.289062 6.47217C0.289062 8.20975 0.296379 8.42862 0.327472 9.11146C0.33804 9.64278 0.438641 10.1685 0.624995 10.6661C0.785769 11.0933 1.03784 11.4802 1.36362 11.7998C1.68326 12.1256 2.07017 12.3777 2.49731 12.5385C2.99499 12.7248 3.52067 12.8254 4.05199 12.836C4.73483 12.8665 4.95279 12.8744 6.69129 12.8744C8.42978 12.8744 8.64774 12.8671 9.33058 12.836C9.8619 12.8254 10.3876 12.7248 10.8853 12.5385C11.3104 12.3737 11.6964 12.122 12.0187 11.7995C12.341 11.477 12.5925 11.0908 12.757 10.6655C12.9433 10.1679 13.0439 9.64217 13.0545 9.11085C13.085 8.42862 13.0923 8.20975 13.0923 6.47217C13.0923 4.73459 13.085 4.51571 13.0539 3.83288C13.0433 3.30156 12.9427 2.77588 12.7564 2.2782C12.5956 1.85105 12.3435 1.46415 12.0177 1.1445C11.6981 0.818729 11.3112 0.566654 10.884 0.405879C10.3864 0.219525 9.86068 0.118925 9.32936 0.108357C8.64713 0.0778728 8.42826 0.0705566 6.69068 0.0705566Z" fill="white"/>
<path d="M6.69168 3.18604C6.0415 3.18604 5.40592 3.37884 4.86531 3.74006C4.3247 4.10128 3.90335 4.6147 3.65454 5.21539C3.40572 5.81608 3.34062 6.47706 3.46746 7.11475C3.59431 7.75244 3.9074 8.3382 4.36715 8.79794C4.8269 9.25769 5.41265 9.57079 6.05034 9.69763C6.68803 9.82447 7.34901 9.75937 7.94971 9.51056C8.5504 9.26174 9.06381 8.84039 9.42504 8.29979C9.78626 7.75918 9.97906 7.1236 9.97906 6.47342C9.97906 5.60155 9.63271 4.76539 9.01621 4.14889C8.3997 3.53238 7.56355 3.18604 6.69168 3.18604ZM6.69168 8.60729C6.26964 8.60729 5.85708 8.48214 5.50616 8.24766C5.15525 8.01319 4.88175 7.67993 4.72024 7.29001C4.55873 6.9001 4.51647 6.47105 4.59881 6.05712C4.68115 5.64319 4.88438 5.26297 5.1828 4.96454C5.48123 4.66611 5.86145 4.46288 6.27538 4.38055C6.68931 4.29821 7.11836 4.34047 7.50828 4.50198C7.89819 4.66348 8.23146 4.93699 8.46593 5.2879C8.7004 5.63881 8.82555 6.05138 8.82555 6.47342C8.82555 7.03935 8.60073 7.58211 8.20055 7.98229C7.80038 8.38247 7.25762 8.60729 6.69168 8.60729Z" fill="white"/>
<path d="M10.108 3.82374C10.5323 3.82374 10.8762 3.47981 10.8762 3.05555C10.8762 2.63129 10.5323 2.28735 10.108 2.28735C9.68378 2.28735 9.33984 2.63129 9.33984 3.05555C9.33984 3.47981 9.68378 3.82374 10.108 3.82374Z" fill="white"/>
</svg>
