<svg width="15" height="18" viewBox="0 0 15 18" fill="none" xmlns="http://www.w3.org/2000/svg">
<path d="M12.8866 13.851C12.0499 13.4994 10.9151 13.2353 9.65305 13.0955C11.2857 10.7787 13.0931 7.8251 13.0931 5.89376C13.0931 2.64944 10.5841 0.0100098 7.49998 0.0100098C4.41595 0.0100098 1.9069 2.64944 1.9069 5.89376C1.9069 7.08373 2.61827 8.83113 4.0212 11.0874C4.45151 11.7795 4.91009 12.4613 5.35444 13.0947C4.09041 13.2342 2.95371 13.4982 2.11551 13.85C0.780291 14.4106 0.5 15.054 0.5 15.495C0.5 17.1286 4.10655 18.01 7.49998 18.01C10.8934 18.01 14.5 17.1286 14.5 15.495C14.5 15.0543 14.22 14.4113 12.8866 13.851ZM2.44162 5.89376C2.44162 2.95962 4.71078 0.57251 7.49998 0.57251C10.2892 0.57251 12.5584 2.95962 12.5584 5.89376C12.5584 6.98427 11.8857 8.61967 10.5592 10.7545C9.50777 12.4464 8.28672 14.0637 7.50012 15.0956C5.9314 13.0337 2.44162 8.34738 2.44162 5.89376ZM7.29144 15.7212C7.3165 15.754 7.34824 15.7805 7.38434 15.7987C7.42043 15.817 7.45995 15.8264 7.49998 15.8264C7.54002 15.8264 7.57954 15.817 7.61563 15.7987C7.65173 15.7805 7.68347 15.754 7.70852 15.7212L7.78739 15.6178C7.9816 15.3637 8.17505 15.109 8.36776 14.8536C9.69649 14.9725 10.2289 15.3143 10.2722 15.4308C10.2502 15.4864 10.0728 15.6595 9.50078 15.8161C8.95832 15.9646 8.24775 16.0464 7.49998 16.0464C6.75222 16.0464 6.04168 15.9646 5.49918 15.8161C4.9272 15.6595 4.74978 15.4864 4.72782 15.4308C4.7711 15.3143 5.30394 14.9723 6.63381 14.8535C6.88386 15.1868 7.10747 15.4799 7.29144 15.7212ZM12.1802 16.8063C10.9339 17.2198 9.27179 17.4475 7.49998 17.4475C5.72817 17.4475 4.06605 17.2198 2.81973 16.8063C1.70201 16.4355 1.03471 15.9452 1.03471 15.495C1.03471 14.7782 2.78704 13.8909 5.72867 13.6218C5.90633 13.8692 6.07958 14.1068 6.24541 14.3315C5.44117 14.4372 4.19207 14.7166 4.19207 15.4309C4.19207 16.3607 6.27138 16.6088 7.50002 16.6088C8.72866 16.6088 10.808 16.3607 10.808 15.4309C10.808 14.7175 9.56148 14.4379 8.7579 14.3319C8.9325 14.0966 9.10563 13.8601 9.27728 13.6224C12.2152 13.8921 13.9653 14.7789 13.9653 15.495C13.9653 15.9453 13.298 16.4355 12.1802 16.8063ZM10.3476 5.88694C10.3476 4.23516 9.07017 2.89131 7.49998 2.89131C5.92976 2.89131 4.65229 4.23516 4.65229 5.88694C4.65229 7.53876 5.92976 8.88257 7.49998 8.88257C9.07021 8.88257 10.3476 7.53876 10.3476 5.88694ZM7.49998 8.32007C6.22459 8.32007 5.18701 7.22857 5.18701 5.88694C5.18701 4.54531 6.22462 3.45381 7.49998 3.45381C8.77534 3.45381 9.81293 4.54531 9.81293 5.88694C9.81293 7.22857 8.77538 8.32007 7.49998 8.32007Z" fill="#65666F"/>
</svg>
