<svg width="60" height="61" viewBox="0 0 60 61" fill="none" xmlns="http://www.w3.org/2000/svg">
<path d="M34.7708 0.0323731V15.3124C34.2766 15.2693 33.7622 15.2477 33.2646 15.2477C28.8534 15.2477 24.6229 16.8546 21.5038 19.715C18.3846 22.5753 16.6323 26.4548 16.6323 30.5C16.6323 34.5452 18.3846 38.4247 21.5038 41.285C24.6229 44.1454 28.8534 45.7523 33.2646 45.7523C33.7723 45.7523 34.2732 45.7307 34.7708 45.6907V60.9707C34.2698 60.9923 33.7622 61.0015 33.2646 61.0015C28.8687 61.0421 24.5077 60.2831 20.4337 58.7685C16.3597 57.2539 12.6535 55.0137 9.52946 52.1775C6.40539 49.3413 3.9254 45.9653 2.2329 42.2448C0.540391 38.5242 -0.331055 34.5329 -0.331055 30.5015C-0.331055 26.4702 0.540391 22.4789 2.2329 18.7583C3.9254 15.0377 6.40539 11.6618 9.52946 8.82555C12.6535 5.98934 16.3597 3.74917 20.4337 2.23458C24.5077 0.719985 28.8687 -0.0389885 33.2646 0.0015417C33.7689 0.0015417 34.2698 0.0015417 34.7708 0.0323731Z" fill="white"/>
<path d="M59.9997 15.2478V30.5001H49.8899V45.7524H34.7705V15.2478H59.9997Z" fill="white"/>
</svg>
