<svg width="19" height="20" viewBox="0 0 19 20" fill="none" xmlns="http://www.w3.org/2000/svg">
<path d="M16.0958 2.91821C14.3731 1.19556 12.0802 0.246338 9.64265 0.246338C7.20515 0.246338 4.91218 1.19556 3.18562 2.91821C1.46297 4.64087 0.513746 6.93384 0.513746 9.37134C0.513746 11.2659 1.08406 13.0706 2.16609 14.6096L0.0371838 19.219C-0.0331287 19.3674 -0.00187865 19.5432 0.115309 19.6604C0.189528 19.7346 0.29109 19.7737 0.392653 19.7737C0.44734 19.7737 0.502028 19.762 0.556715 19.7385L5.44734 17.4807C6.7364 18.1487 8.18172 18.5002 9.64656 18.5002C12.0841 18.5002 14.377 17.551 16.0997 15.8284C17.8223 14.1057 18.7716 11.8127 18.7716 9.37524C18.7716 6.93774 17.8223 4.64478 16.0958 2.91821ZM9.64265 17.7229C8.24422 17.7229 6.8614 17.3713 5.64656 16.7034C5.53718 16.6448 5.40828 16.6409 5.295 16.6917L1.19343 18.5862L2.97468 14.7346C3.03328 14.6057 3.01765 14.4534 2.93562 14.3401C1.86531 12.8948 1.2989 11.1799 1.2989 9.37915C1.295 4.77368 5.03718 1.02759 9.64265 1.02759C14.2442 1.02759 17.9903 4.77368 17.9903 9.37524C17.9903 13.9768 14.2442 17.7229 9.64265 17.7229Z" fill="#52525B"/>
<path d="M13.053 10.6682C12.9905 10.6565 12.928 10.6448 12.8616 10.637C12.5452 10.5979 12.1858 10.5549 11.8069 10.719C11.5764 10.8167 11.3264 11.0041 11.1077 11.2346C10.7092 11.0549 10.3616 10.8557 10.0686 10.6487C9.72875 10.4065 9.45922 10.1487 9.26391 9.87915C9.25609 9.86743 9.24437 9.85571 9.23656 9.84399C8.81469 9.38306 8.49828 8.67602 8.29125 7.74243C8.56078 7.57837 8.79516 7.37524 8.93969 7.16821C9.17406 6.83228 9.20922 6.4729 9.23656 6.15259C9.24047 6.09009 9.24437 6.02368 9.24437 5.96118C9.24437 5.16821 8.93578 4.47681 8.42406 4.11743C8.02953 3.84009 7.51 3.84009 7.135 3.84009H7.12328C6.81469 3.84009 6.51391 3.90649 6.23266 4.0354C5.89281 4.19165 5.59984 4.43384 5.3889 4.73853C5.17406 5.04321 5.04125 5.39868 5.01 5.76978C4.92797 6.65649 5.02953 7.52368 5.30687 8.35181C5.59984 9.2229 6.09984 10.512 7.04125 11.6213C7.72484 12.5081 8.65844 13.2971 9.88891 14.0276C10.6428 14.4729 11.4709 14.7542 12.3498 14.8596C12.4358 14.8713 12.5217 14.8752 12.6077 14.8752C12.8928 14.8752 13.178 14.8167 13.4397 14.7034C13.7834 14.5588 14.0803 14.3206 14.303 14.0237C14.4866 13.7815 14.6194 13.4924 14.6819 13.1917L14.6858 13.1799C14.7639 12.8127 14.8733 12.3049 14.6819 11.8596C14.4358 11.2776 13.8264 10.8323 13.053 10.6682ZM13.9202 13.012L13.9162 13.0237C13.8772 13.2112 13.7952 13.3948 13.678 13.5471C13.5373 13.7346 13.3459 13.8831 13.1311 13.9768C12.9162 14.0706 12.678 14.1018 12.4436 14.0745C11.6702 13.9807 10.9436 13.7346 10.2873 13.3479C9.13891 12.6682 8.27953 11.9417 7.65453 11.1292C7.65062 11.1252 7.64672 11.1174 7.64281 11.1135C6.78344 10.1057 6.3225 8.90649 6.04906 8.09399C5.80297 7.36743 5.71703 6.60962 5.78734 5.83228C5.80687 5.5979 5.89281 5.37134 6.02562 5.17993C6.16234 4.98853 6.34594 4.83618 6.56078 4.73462C6.74047 4.65259 6.92797 4.60962 7.12328 4.60962H7.13891C7.14281 4.60962 7.14672 4.60962 7.15062 4.60962C7.43578 4.60962 7.78734 4.61353 7.97484 4.74634C8.33812 5.00024 8.46312 5.55493 8.46312 5.95337C8.46312 5.99243 8.46312 6.0354 8.45922 6.07446C8.43187 6.36743 8.41234 6.55103 8.29906 6.70728C8.18578 6.86743 7.94359 7.05103 7.68187 7.17212C7.51781 7.24634 7.42797 7.42212 7.46312 7.5979C7.68969 8.80493 8.08422 9.72681 8.6389 10.344C8.88109 10.6799 9.20922 10.9924 9.61156 11.2776C10.0139 11.5627 10.5022 11.8284 11.0647 12.0627C11.2287 12.1331 11.4202 12.0784 11.5256 11.9377C11.6975 11.7073 11.9241 11.512 12.1077 11.4338C12.2834 11.3596 12.4709 11.3752 12.76 11.4104C12.803 11.4143 12.842 11.4221 12.8811 11.4299C13.2678 11.512 13.7834 11.7542 13.9592 12.1604C14.0569 12.3792 13.9827 12.7307 13.9202 13.012Z" fill="#52525B"/>
</svg>
