<svg width="60" height="60" viewBox="0 0 60 60" fill="none" xmlns="http://www.w3.org/2000/svg">
<g clip-path="url(#clip0_1585_9095)">
<path d="M60 16.2402C60 15.4805 59.5696 14.7864 58.8891 14.4487L30.6708 0.444565C30.1069 0.164706 29.4441 0.166694 28.8819 0.449931L1.10018 14.4458C0.425574 14.7856 0 15.4765 0 16.2319V16.875C0 17.9105 0.839466 18.75 1.875 18.75C2.91053 18.75 3.75 19.5895 3.75 20.625V58C3.75 59.1046 4.64543 60 5.75 60H9.25C10.3546 60 11.25 59.1046 11.25 58V28.25C11.25 27.1454 12.1454 26.25 13.25 26.25H46.75C47.8546 26.25 48.75 27.1454 48.75 28.25V58C48.75 59.1046 49.6454 60 50.75 60H54.25C55.3546 60 56.25 59.1046 56.25 58V20.625C56.25 19.5895 57.0895 18.75 58.125 18.75C59.1605 18.75 60 17.9105 60 16.875V16.2402ZM16 22.5C15.4477 22.5 15 22.0523 15 21.5V19.75C15 19.1977 15.4477 18.75 16 18.75H21.5C22.0523 18.75 22.5 19.1977 22.5 19.75V21.5C22.5 22.0523 22.0523 22.5 21.5 22.5H16ZM27.25 22.5C26.6977 22.5 26.25 22.0523 26.25 21.5V19.75C26.25 19.1977 26.6977 18.75 27.25 18.75H32.75C33.3023 18.75 33.75 19.1977 33.75 19.75V21.5C33.75 22.0523 33.3023 22.5 32.75 22.5H27.25ZM38.5 22.5C37.9477 22.5 37.5 22.0523 37.5 21.5V19.75C37.5 19.1977 37.9477 18.75 38.5 18.75H44C44.5523 18.75 45 19.1977 45 19.75V21.5C45 22.0523 44.5523 22.5 44 22.5H38.5Z" fill="#023E8A"/>
<path d="M22.5 32.75C22.5 33.3023 22.0523 33.75 21.5 33.75H19.75C19.1977 33.75 18.75 33.3023 18.75 32.75V31C18.75 30.4477 18.3023 30 17.75 30H16C15.4477 30 15 30.4477 15 31V40.25C15 40.8023 15.4477 41.25 16 41.25H25.25C25.8023 41.25 26.25 40.8023 26.25 40.25V31C26.25 30.4477 25.8023 30 25.25 30H23.5C22.9477 30 22.5 30.4477 22.5 31V32.75Z" fill="#22B573"/>
<path d="M22.5 47.75C22.5 48.3023 22.0523 48.75 21.5 48.75H19.75C19.1977 48.75 18.75 48.3023 18.75 47.75V46C18.75 45.4477 18.3023 45 17.75 45H16C15.4477 45 15 45.4477 15 46V55.25C15 55.8023 15.4477 56.25 16 56.25H25.25C25.8023 56.25 26.25 55.8023 26.25 55.25V46C26.25 45.4477 25.8023 45 25.25 45H23.5C22.9477 45 22.5 45.4477 22.5 46V47.75Z" fill="#22B573"/>
<path d="M37.5 47.75C37.5 48.3023 37.0523 48.75 36.5 48.75H34.75C34.1977 48.75 33.75 48.3023 33.75 47.75V46C33.75 45.4477 33.3023 45 32.75 45H31C30.4477 45 30 45.4477 30 46V55.25C30 55.8023 30.4477 56.25 31 56.25H40.25C40.8023 56.25 41.25 55.8023 41.25 55.25V46C41.25 45.4477 40.8023 45 40.25 45H38.5C37.9477 45 37.5 45.4477 37.5 46V47.75Z" fill="#22B573"/>
</g>
<defs>
<clipPath id="clip0_1585_9095">
<rect width="60" height="60" fill="white"/>
</clipPath>
</defs>
</svg>
