<svg width="34" height="26" viewBox="0 0 34 26" fill="none" xmlns="http://www.w3.org/2000/svg">
<path d="M32.8409 23.8332H31.7097V15.5142L31.9204 15.7958C32.0036 15.9185 32.112 16.0238 32.2389 16.1053C32.3658 16.1868 32.5087 16.2428 32.6588 16.27C32.8089 16.2972 32.9633 16.2949 33.1125 16.2634C33.2617 16.2319 33.4027 16.1717 33.527 16.0866C33.6512 16.0014 33.7562 15.8931 33.8356 15.768C33.9149 15.6429 33.967 15.5038 33.9886 15.3589C34.0102 15.214 34.001 15.0664 33.9615 14.9251C33.9219 14.7837 33.8529 14.6515 33.7585 14.5364L28.1026 6.95269C28.0251 6.84995 27.9294 6.76103 27.8198 6.68997L18.2768 0.373822L18.2627 0.364343C17.8909 0.12678 17.454 0 17.0071 0C16.5601 0 16.1232 0.12678 15.7515 0.364343L15.7373 0.373822L6.1802 6.69133C6.07062 6.76238 5.9749 6.8513 5.89741 6.95405L0.241474 14.5378C0.147112 14.6529 0.0780765 14.7851 0.038534 14.9264C-0.00100845 15.0678 -0.0102384 15.2154 0.011401 15.3602C0.0330405 15.5051 0.0851009 15.6443 0.164441 15.7693C0.24378 15.8944 0.348754 16.0028 0.473028 16.0879C0.597303 16.1731 0.7383 16.2332 0.887513 16.2648C1.03673 16.2963 1.19106 16.2985 1.34121 16.2714C1.49135 16.2442 1.63419 16.1882 1.76111 16.1067C1.88802 16.0252 1.99638 15.9199 2.07965 15.7972L2.29882 15.5142V23.8332H1.16763C0.867623 23.8332 0.579902 23.9474 0.367763 24.1505C0.155624 24.3537 0.0364462 24.6293 0.0364462 24.9166C0.0364462 25.2039 0.155624 25.4795 0.367763 25.6827C0.579902 25.8859 0.867623 26 1.16763 26H32.8409C33.1409 26 33.4286 25.8859 33.6407 25.6827C33.8529 25.4795 33.972 25.2039 33.972 24.9166C33.972 24.6293 33.8529 24.3537 33.6407 24.1505C33.4286 23.9474 33.1409 23.8332 32.8409 23.8332ZM4.56119 12.4807L7.62954 8.36651L17.0042 2.16547L26.379 8.36516L29.4473 12.4807V23.8332H26.0537V14.0827C26.0537 13.7954 25.9346 13.5198 25.7224 13.3167C25.5103 13.1135 25.2226 12.9993 24.9225 12.9993H9.08594C8.78593 12.9993 8.49821 13.1135 8.28607 13.3167C8.07393 13.5198 7.95475 13.7954 7.95475 14.0827V23.8332H4.56119V12.4807ZM17.0042 18.1685L12.6209 15.1661H21.3876L17.0042 18.1685ZM23.7914 16.1886V22.8121L18.9499 19.4997L23.7914 16.1886ZM15.0586 19.4997L10.2171 22.8121V16.1886L15.0586 19.4997ZM17.0042 20.8309L21.3876 23.8332H12.6209L17.0042 20.8309ZM13.6107 9.74919C13.6107 9.46186 13.7299 9.18629 13.942 8.98312C14.1541 8.77994 14.4419 8.6658 14.7419 8.6658H19.2666C19.5666 8.6658 19.8543 8.77994 20.0665 8.98312C20.2786 9.18629 20.3978 9.46186 20.3978 9.74919C20.3978 10.0365 20.2786 10.3121 20.0665 10.5153C19.8543 10.7184 19.5666 10.8326 19.2666 10.8326H14.7419C14.4419 10.8326 14.1541 10.7184 13.942 10.5153C13.7299 10.3121 13.6107 10.0365 13.6107 9.74919Z" fill="#22B573"/>
</svg>
