<svg width="110" height="60" viewBox="0 0 110 60" fill="none" xmlns="http://www.w3.org/2000/svg">
<g clip-path="url(#clip0_1585_9110)">
<path d="M92.2238 9.71263C93.6253 5.7981 97.6383 3.29146 101.902 3.94373C106.742 4.68388 110.065 9.20802 109.326 14.0479C108.583 18.8876 104.059 22.2108 99.2222 21.4706C95.3361 20.8752 92.3411 18 91.8563 14.1539C91.5054 11.3692 92.2238 9.71263 92.2238 9.71263Z" fill="#023E8A"/>
<path d="M68.485 39.6354C68.485 38.8292 67.8314 38.1743 67.0239 38.1743H60.6973C59.8898 38.1743 59.2363 38.8292 59.2363 39.6354C59.2363 40.4403 59.8898 41.0964 60.6973 41.0964H67.024C67.8314 41.0964 68.485 40.4404 68.485 39.6354Z" fill="#22B573"/>
<path d="M54.4287 32.3474H73.2928C75.2258 32.3474 76.7928 33.9144 76.7928 35.8474V51.1594C76.7928 53.0924 75.2258 54.6594 73.2928 54.6594H54.4287C52.4957 54.6594 50.9287 53.0924 50.9287 51.1594V35.8474C50.9287 33.9144 52.4957 32.3474 54.4287 32.3474Z" stroke="#22B573" stroke-width="3"/>
<path d="M81.5236 40.2963L94.2649 28.2861C99.1427 23.5715 107.382 26.5715 107.382 32.1372V56.559H91.8618V44.3209L86.4358 47.1601C84.685 48.1358 83.2265 48.6366 81.2401 48.92L77.0745 49.5917L73.5224 50.1636L70.7673 50.6075C68.8766 50.8766 67.0985 49.6433 66.691 47.7786L66.656 47.6325C66.2419 45.7366 67.3833 43.8472 69.2546 43.3322L73.5224 42.2763L77.0745 41.3976L81.5236 40.2963Z" fill="#023E8A"/>
</g>
<g clip-path="url(#clip1_1585_9110)">
<path d="M28.1339 37.5803C26.9508 37.6037 25.7928 37.2365 24.8393 36.5357C24.6607 36.417 24.4602 36.3352 24.2495 36.2951C24.0389 36.2551 23.8223 36.2576 23.6127 36.3025C23.403 36.3475 23.2044 36.4339 23.0287 36.5567C22.8529 36.6796 22.7035 36.8364 22.5893 37.0178C22.4626 37.1686 22.368 37.3436 22.3113 37.5321C22.2546 37.7207 22.237 37.9188 22.2595 38.1144C22.2821 38.3101 22.3444 38.499 22.4425 38.6697C22.5407 38.8404 22.6727 38.9892 22.8304 39.1071C23.8644 39.8328 25.0431 40.3262 26.2857 40.5536V42.3214C26.2857 42.7477 26.455 43.1564 26.7564 43.4578C27.0578 43.7592 27.4666 43.9286 27.8929 43.9286C28.3191 43.9286 28.7279 43.7592 29.0293 43.4578C29.3307 43.1564 29.5 42.7477 29.5 42.3214V40.5536C30.3815 40.4236 31.2131 40.0632 31.9107 39.5089C32.4144 39.1391 32.8229 38.6547 33.1024 38.0958C33.3818 37.5369 33.5243 36.9195 33.5179 36.2946C33.5179 33.3214 30.7857 32.3571 28.4554 31.875C26.125 31.3928 25.6429 30.8303 25.6429 30.4286C25.6429 30.0268 25.8036 29.9464 26.0446 29.7053C26.488 29.467 26.9885 29.3558 27.4911 29.3839C28.4248 29.3758 29.3425 29.6261 30.1429 30.1071C30.3055 30.2399 30.4952 30.3356 30.6986 30.3877C30.902 30.4398 31.1143 30.447 31.3207 30.4087C31.5272 30.3705 31.7228 30.2878 31.8941 30.1663C32.0654 30.0448 32.2082 29.8875 32.3125 29.7053C32.4502 29.541 32.5518 29.3495 32.6106 29.1433C32.6695 28.9372 32.6842 28.7209 32.6539 28.5086C32.6235 28.2964 32.5488 28.0929 32.4346 27.9114C32.3205 27.7299 32.1693 27.5745 31.9911 27.4553C31.227 26.9837 30.3825 26.6568 29.5 26.4911V24.6428C29.5 24.2166 29.3307 23.8078 29.0293 23.5064C28.7279 23.205 28.3191 23.0357 27.8929 23.0357C27.4666 23.0357 27.0578 23.205 26.7564 23.5064C26.455 23.8078 26.2857 24.2166 26.2857 24.6428V26.4107C23.875 26.8125 22.2679 28.4196 22.2679 30.5893C22.2679 32.7589 24.9196 34.5268 27.4911 35.0089C30.0625 35.4911 30.1429 36.0536 30.1429 36.4553C30.1429 36.8571 29.2589 37.5803 28.1339 37.5803Z" fill="#22B573"/>
<path d="M34.4824 46.9018C34.036 46.5418 33.5202 46.2775 32.9672 46.1254C32.4143 45.9733 31.8359 45.9367 31.2681 46.0179L23.3128 47.4643C23.317 46.9688 23.2193 46.4777 23.0257 46.0215C22.8322 45.5654 22.547 45.1538 22.1878 44.8125L16.4824 39.1071H4.58956C4.16332 39.1071 3.75454 39.2765 3.45314 39.5779C3.15175 39.8793 2.98242 40.288 2.98242 40.7143V47.9464C2.98242 48.3727 3.15175 48.7815 3.45314 49.0829C3.75454 49.3843 4.16332 49.5536 4.58956 49.5536H7.24135L16.2414 56.8661L32.6342 53.8929C33.3748 53.7483 34.0598 53.398 34.6106 52.8822C35.1614 52.3664 35.5558 51.7059 35.7487 50.9764C35.9415 50.2468 35.925 49.4777 35.7011 48.7571C35.4772 48.0365 35.0548 47.3935 34.4824 46.9018ZM32.0717 50.7589L17.0449 53.4911L8.60742 46.5V42.3214H15.1967L19.9378 47.0625C20.0657 47.1904 20.1375 47.3638 20.1375 47.5446C20.1375 47.7255 20.0657 47.8989 19.9378 48.0268C19.8099 48.1547 19.6365 48.2265 19.4556 48.2265C19.2748 48.2265 19.1014 48.1547 18.9735 48.0268L16.161 45.2143C15.8515 44.9822 15.4687 44.8695 15.0828 44.8969C14.6969 44.9243 14.3338 45.09 14.0603 45.3636C13.7867 45.6371 13.621 46.0002 13.5936 46.3861C13.5662 46.772 13.6789 47.1548 13.911 47.4643L16.7235 50.2768C17.074 50.6461 17.4986 50.9372 17.9694 51.1311C18.4402 51.3249 18.9467 51.4172 19.4556 51.4018C19.9476 51.3996 20.436 51.3182 20.9021 51.1607L31.8306 49.2321C32.0577 49.2003 32.2882 49.258 32.4735 49.3929C32.5524 49.4633 32.6148 49.5502 32.6565 49.6474C32.6981 49.7445 32.7179 49.8497 32.7146 49.9554C32.7184 50.1434 32.6561 50.3267 32.5386 50.4736C32.4212 50.6204 32.2559 50.7214 32.0717 50.7589Z" fill="#023E8A"/>
</g>
<defs>
<clipPath id="clip0_1585_9110">
<rect width="60" height="60" fill="white" transform="translate(49.4287)"/>
</clipPath>
<clipPath id="clip1_1585_9110">
<rect width="38.5714" height="38.5714" fill="white" transform="translate(0.571289 21.4286)"/>
</clipPath>
</defs>
</svg>
