<svg width="60" height="64" viewBox="0 0 60 64" fill="none" xmlns="http://www.w3.org/2000/svg">
<path fill-rule="evenodd" clip-rule="evenodd" d="M60 30.5002C60 35.7534 58.6342 40.6923 56.25 44.9918V45.5334H55.92C55.3283 46.55 54.6789 47.529 53.9763 48.4658C53.7981 45.5308 52.6271 42.8639 50.7947 40.7966H53.0495C54.1516 38.3334 54.8811 35.6681 55.1432 32.8687H46.2158C46.1153 34.359 45.9237 35.8303 45.6419 37.2769C44.2727 36.7745 42.7934 36.5002 41.25 36.5002C41.1525 36.5002 41.0552 36.5013 40.9582 36.5035C41.1972 35.3095 41.3649 34.0961 41.46 32.8687H32.3684V40.1026C29.9825 42.4195 28.5 45.6617 28.5 49.2502C28.5 53.8641 30.9507 57.9056 34.6215 60.1439C33.1152 60.3785 31.5718 60.5002 30 60.5002C13.4574 60.5002 0 47.0429 0 30.5002C0 13.9576 13.4574 0.500244 30 0.500244C41.0621 0.500244 50.7189 6.5334 55.92 15.4671H56.25V16.0087C58.6342 20.3081 60 25.2471 60 30.5002ZM13.7842 32.8687H4.85684C5.11895 35.6681 5.84842 38.3334 6.95053 40.7966H15.2368C14.4537 38.2402 13.9658 35.586 13.7842 32.8687ZM44.7632 20.2039C45.5463 22.7587 46.0342 25.4145 46.2158 28.1318H55.1432C54.8811 25.3308 54.1516 22.6671 53.0495 20.2039H44.7632ZM32.3684 28.1318H41.46C41.2484 25.3987 40.6768 22.7381 39.7611 20.2039H32.3684V28.1318ZM32.3684 8.71077V15.4671H37.5679C36.1705 13.0229 34.4321 10.7508 32.3684 8.71077ZM27.6316 15.4671V8.71077C25.5679 10.7523 23.8295 13.0229 22.4321 15.4671H27.6316ZM27.6316 28.1318V20.2039H20.2389C19.3232 22.7381 18.7516 25.3987 18.54 28.1318H27.6316ZM4.85684 28.1318H13.7842C13.9674 25.4145 14.4537 22.7587 15.2368 20.2039H6.95053C5.84842 22.6671 5.11895 25.3308 4.85684 28.1318ZM27.6316 32.8687H18.54C18.7516 35.6002 19.3232 38.2624 20.2389 40.7966H27.6316V32.8687ZM27.6316 52.2897V45.5334L22.4321 45.535C23.8295 47.9776 25.5679 50.2497 27.6316 52.2897ZM42.9079 15.4671H50.2547C46.8868 10.9402 42.0537 7.58656 36.45 6.10235C39.1247 8.9034 41.2911 12.0629 42.9079 15.4671ZM17.0921 15.4671C18.7105 12.0629 20.8753 8.9034 23.55 6.10235C17.9463 7.58656 13.1132 10.9402 9.74526 15.4671H17.0921ZM17.0921 45.5334H9.74526C13.1132 50.0618 17.9463 53.4139 23.55 54.8981C20.8753 52.0939 18.7089 48.9345 17.0921 45.5334Z" fill="#023E8A"/>
<path d="M55.062 59.8807L49.5495 54.3682C50.469 52.8802 51 51.1267 51 49.2502C51 43.8652 46.635 39.5002 41.25 39.5002C35.865 39.5002 31.5 43.8652 31.5 49.2502C31.5 54.6352 35.865 59.0002 41.25 59.0002C43.1265 59.0002 44.88 58.4692 46.368 57.5497L51.8805 63.0622C52.464 63.6457 53.418 63.6457 54.0015 63.0622L55.062 62.0017C55.6455 61.4182 55.6455 60.4642 55.062 59.8807ZM36.477 54.0232C35.202 52.7482 34.5 51.0532 34.5 49.2502C34.5 47.4472 35.202 45.7522 36.477 44.4772C37.752 43.2022 39.447 42.5002 41.25 42.5002C43.053 42.5002 44.748 43.2022 46.023 44.4772C47.298 45.7522 48 47.4472 48 49.2502C48 51.0532 47.298 52.7482 46.023 54.0232C44.748 55.2982 43.053 56.0002 41.25 56.0002C39.447 56.0002 37.752 55.2982 36.477 54.0232Z" fill="#22B573"/>
</svg>
