<svg xmlns="http://www.w3.org/2000/svg" viewBox="0 0 118.39 117.66"><defs><style>.cls-1{fill:#fff;}</style></defs><title>Asset 3</title><g id="Layer_2" data-name="Layer 2"><g id="Layer_1-2" data-name="Layer 1"><path class="cls-1" d="M59.38,16.89c21.44.06,39,18,39.1,39.89s-17.73,40.16-39.4,40.1C37.69,96.82,20,78.79,20,57,19.94,34.86,37.67,16.83,59.38,16.89ZM40.6,61.76c.52,11.52,9.26,19.12,20.27,18.15,9.31-.83,16.82-9.38,15.76-18.15Z"/><path class="cls-1" d="M13,80.9C5.23,80.33.64,76.18.32,69.22a186.1,186.1,0,0,1,.13-24c.28-3.31,2.67-6.59,4.61-9.55s4.85-5.29,6.76-8.27C23.44,9.35,39.73-.65,61.38,0c21.2.68,36.71,11.41,47.33,29.57,1.22,2.08,3.28,3.66,4.49,5.74,1.85,3.2,4.39,6.52,4.72,10a146.78,146.78,0,0,1,0,23c-.18,2.92-1.85,5.93-3.47,8.52-2.15,3.46-5.18,6.37-7.36,9.81-8.84,14-21.23,22.69-37.37,26.22a12.78,12.78,0,0,0-5,2.62c-3.51,2.83-7.38,3-10.38.17a7.2,7.2,0,0,1-.63-9.94c2.61-3.23,6.3-3.45,10.29-1.22a8.94,8.94,0,0,0,5.85,1.17c15.7-3.8,27-13.14,33.93-27.75a13.08,13.08,0,0,0,1-5.29c.08-10.5.12-21,0-31.5a14,14,0,0,0-1.43-6.18C94,17,79.28,6.92,58.91,7c-20.18.1-34.71,10.21-43.72,28.1a22.93,22.93,0,0,0-2.12,9.56C12.83,56.66,13,68.64,13,80.9Z"/></g></g></svg>