<svg width="61" height="60" viewBox="0 0 61 60" fill="none" xmlns="http://www.w3.org/2000/svg">
<path d="M53.7826 50.7242L53.3565 48.2586C52.9905 46.136 51.5138 44.2909 49.4067 43.3236L40.4364 39.2021C39.3351 38.6971 39.0202 37.1003 38.9885 37.014C38.8913 36.8703 38.7269 36.7838 38.4744 36.7838C38.4669 36.7838 38.4591 36.7838 38.4516 36.7838C38.2367 36.8111 38.0607 36.9567 38.0026 37.1559L36.9675 40.7889L30.4999 52.5257L24.0485 40.828L22.996 37.1559C22.94 36.9576 22.7635 36.8111 22.4681 36.7783C22.282 36.7783 22.111 36.8666 21.982 37.0841C21.9789 37.1005 21.6675 38.6954 20.5631 39.2021L11.5914 43.3236C9.48512 44.2917 8.0089 46.1359 7.64269 48.2586L7.2166 50.7242C7.04926 51.6904 7.28738 53.0407 8.20566 53.723C8.31371 53.804 8.4493 53.9241 8.62098 54.077C10.2721 55.5418 15.2968 60 30.4999 60C45.7 60 50.726 55.5418 52.3776 54.077C52.5495 53.9251 52.6856 53.804 52.7939 53.723C53.7125 53.0397 53.9504 51.6895 53.7826 50.7242Z" fill="#023E8A"/>
<path d="M34.7744 14.6875C36.9482 18.7671 39.9253 24.3563 41.2246 25.1678L41.4712 25.3215L42.375 18.2649C42.6227 15.165 41.6261 12.2309 39.5693 10.0027C37.3209 7.56705 34.0151 6.17041 30.4998 6.17041C26.9841 6.17041 23.6783 7.56705 21.4299 10.0027C19.3728 12.2299 18.376 15.165 18.6242 18.2721L19.4464 25.2579L19.7214 24.9577C20.2887 24.3399 21.311 23.6949 22.605 22.8778C25.5977 20.989 30.0958 18.1504 33.6288 12.5503C33.956 13.1508 34.3456 13.8823 34.7744 14.6875Z" fill="#023E8A"/>
<path d="M12.4652 28.4396C12.6168 29.0701 13.1749 29.5105 13.8225 29.5105C13.932 29.5105 14.0415 29.4968 14.1489 29.4714L16.5015 28.9063C16.9504 28.7989 17.3136 28.4741 17.4767 28.0419L17.5736 28.0482L17.5295 27.8718C17.5825 27.6498 17.5839 27.4323 17.5338 27.223L16.3074 22.147C16.0132 20.3774 15.864 18.8644 15.864 17.6479C15.864 9.57762 22.4296 3.0123 30.4996 3.0123C38.5694 3.0123 45.1348 9.57762 45.1348 17.6479C45.1348 18.8634 44.9856 20.3774 44.67 22.2034L43.465 27.223C43.4473 27.2977 43.4364 27.3731 43.4322 27.4523L43.3841 27.5597C43.3682 27.5952 41.7462 31.1026 36.7079 32.0916C36.4464 31.6085 35.9419 31.3036 35.3842 31.3036H32.3486C31.5182 31.3036 30.8426 31.9796 30.8426 32.8103V33.9976C30.8426 34.8282 31.5182 35.5043 32.3486 35.5043H35.3842C36.0156 35.5043 36.5793 35.1021 36.7942 34.5117C39.8097 33.9949 41.8265 32.7258 42.9918 31.7449C44.1992 30.7296 44.9209 29.6896 45.2751 29.0937L46.8502 29.4712C46.9573 29.4967 47.067 29.5104 47.1764 29.5104C47.824 29.5104 48.3819 29.07 48.5335 28.4395L49.7386 23.4199C49.918 22.6711 49.4551 21.9159 48.7067 21.7358L47.8367 21.5275C48.0431 20.059 48.1479 18.7543 48.1479 17.6479C48.1477 7.91742 40.2307 0 30.4996 0C20.7685 0 12.8515 7.91742 12.8515 17.6481C12.8515 18.7545 12.9561 20.0591 13.1626 21.5268L12.2919 21.7361C11.5433 21.9162 11.0807 22.6713 11.2604 23.4202L12.4652 28.4396Z" fill="#22B573"/>
</svg>
