<svg width="60" height="60" viewBox="0 0 60 60" fill="none" xmlns="http://www.w3.org/2000/svg">
<path d="M47.1253 13.875C46.7765 13.4487 46.3381 13.1046 45.8412 12.8669C45.3443 12.6293 44.8011 12.504 44.2503 12.5H42.7503L43.1253 10.375C43.1956 9.87002 43.1655 9.35612 43.0368 8.86277C42.9081 8.36942 42.6833 7.90632 42.3753 7.50001C41.6573 6.73993 40.6701 6.29123 39.6253 6.25001H9.87533C9.25769 6.23872 8.65585 6.44562 8.17571 6.83431C7.69557 7.22299 7.36789 7.76856 7.25033 8.37501C7.19594 8.73332 7.22011 9.09916 7.32115 9.4472C7.4222 9.79524 7.5977 10.1171 7.83551 10.3906C8.07331 10.6641 8.36773 10.8826 8.69836 11.031C9.029 11.1794 9.38794 11.2541 9.75033 11.25H18.8753C19.4145 11.2604 19.9451 11.387 20.431 11.6212C20.9168 11.8553 21.3464 12.1915 21.6905 12.6067C22.0346 13.022 22.285 13.5066 22.4248 14.0275C22.5645 14.5484 22.5903 15.0933 22.5003 15.625L19.5003 32.875C19.3549 33.7367 18.913 34.5204 18.2512 35.091C17.5893 35.6616 16.749 35.9831 15.8753 36H6.00033C5.41546 35.9882 4.84498 36.1819 4.38818 36.5473C3.93139 36.9128 3.61721 37.4268 3.50033 38L2.50033 43.375C2.42352 43.8891 2.4622 44.4139 2.61356 44.9112C2.76491 45.4085 3.02513 45.8658 3.37533 46.25C3.69774 46.6343 4.09899 46.9448 4.55189 47.1605C5.00479 47.3761 5.49876 47.4919 6.00033 47.5H9.12533C9.66929 49.2977 10.7773 50.8727 12.2855 51.9921C13.7937 53.1115 15.6221 53.7159 17.5003 53.7159C19.3786 53.7159 21.2069 53.1115 22.7152 51.9921C24.2234 50.8727 25.3314 49.2977 25.8753 47.5H31.6253C32.1693 49.2977 33.2773 50.8727 34.7855 51.9921C36.2937 53.1115 38.1221 53.7159 40.0003 53.7159C41.8786 53.7159 43.7069 53.1115 45.2152 51.9921C46.7234 50.8727 47.8314 49.2977 48.3753 47.5H50.8753C51.8148 47.4822 52.7179 47.1342 53.4265 46.5171C54.135 45.8999 54.6037 45.0531 54.7503 44.125L57.5003 28.125L47.1253 13.875ZM17.5003 48.75C16.5058 48.75 15.5519 48.3549 14.8487 47.6517C14.1454 46.9484 13.7503 45.9946 13.7503 45C13.7503 44.0055 14.1454 43.0516 14.8487 42.3484C15.5519 41.6451 16.5058 41.25 17.5003 41.25C18.4949 41.25 19.4487 41.6451 20.152 42.3484C20.8552 43.0516 21.2503 44.0055 21.2503 45C21.2503 45.9946 20.8552 46.9484 20.152 47.6517C19.4487 48.3549 18.4949 48.75 17.5003 48.75ZM40.0003 48.75C39.0058 48.75 38.0519 48.3549 37.3487 47.6517C36.6454 46.9484 36.2503 45.9946 36.2503 45C36.2503 44.0055 36.6454 43.0516 37.3487 42.3484C38.0519 41.6451 39.0058 41.25 40.0003 41.25C40.9949 41.25 41.9487 41.6451 42.652 42.3484C43.3552 43.0516 43.7503 44.0055 43.7503 45C43.7503 45.9946 43.3552 46.9484 42.652 47.6517C41.9487 48.3549 40.9949 48.75 40.0003 48.75ZM40.1253 27.5L41.8753 17.5H43.5003L50.8753 27.5H40.1253Z" fill="#023E8A"/>
<path d="M5 18.75H17.5C18.163 18.75 18.7989 18.4866 19.2678 18.0178C19.7366 17.5489 20 16.913 20 16.25C20 15.587 19.7366 14.9511 19.2678 14.4822C18.7989 14.0134 18.163 13.75 17.5 13.75H5C4.33696 13.75 3.70107 14.0134 3.23223 14.4822C2.76339 14.9511 2.5 15.587 2.5 16.25C2.5 16.913 2.76339 17.5489 3.23223 18.0178C3.70107 18.4866 4.33696 18.75 5 18.75Z" fill="#22B573"/>
<path d="M18.75 23.75C18.75 23.087 18.4866 22.4511 18.0178 21.9822C17.5489 21.5134 16.913 21.25 16.25 21.25H6.25C5.58696 21.25 4.95107 21.5134 4.48223 21.9822C4.01339 22.4511 3.75 23.087 3.75 23.75C3.75 24.413 4.01339 25.0489 4.48223 25.5178C4.95107 25.9866 5.58696 26.25 6.25 26.25H16.25C16.913 26.25 17.5489 25.9866 18.0178 25.5178C18.4866 25.0489 18.75 24.413 18.75 23.75Z" fill="#22B573"/>
<path d="M7.5 28.75C6.83696 28.75 6.20107 29.0134 5.73223 29.4822C5.26339 29.9511 5 30.587 5 31.25C5 31.913 5.26339 32.5489 5.73223 33.0178C6.20107 33.4866 6.83696 33.75 7.5 33.75H15C15.663 33.75 16.2989 33.4866 16.7678 33.0178C17.2366 32.5489 17.5 31.913 17.5 31.25C17.5 30.587 17.2366 29.9511 16.7678 29.4822C16.2989 29.0134 15.663 28.75 15 28.75H7.5Z" fill="#22B573"/>
</svg>
