<svg width="13" height="12" viewBox="0 0 13 12" fill="none" xmlns="http://www.w3.org/2000/svg">
<path d="M1.148 11.2415V3.76545H2.898V11.2415H1.148ZM2.03 2.53345C1.70333 2.53345 1.43267 2.43079 1.218 2.22545C1.01267 2.02012 0.91 1.77279 0.91 1.48345C0.91 1.18479 1.01267 0.937455 1.218 0.741454C1.43267 0.536121 1.70333 0.433455 2.03 0.433455C2.35667 0.433455 2.62267 0.531455 2.828 0.727454C3.04267 0.914121 3.15 1.15212 3.15 1.44145C3.15 1.74945 3.04733 2.01079 2.842 2.22545C2.63667 2.43079 2.366 2.53345 2.03 2.53345ZM9.43688 3.68145C10.0342 3.68145 10.5662 3.79812 11.0329 4.03145C11.5089 4.26479 11.8822 4.62412 12.1529 5.10945C12.4235 5.58545 12.5589 6.20145 12.5589 6.95745V11.2415H10.8089V7.18145C10.8089 6.51879 10.6502 6.02412 10.3329 5.69745C10.0249 5.37079 9.59088 5.20745 9.03088 5.20745C8.62021 5.20745 8.25621 5.29145 7.93888 5.45945C7.62154 5.62745 7.37421 5.87945 7.19688 6.21545C7.02888 6.54212 6.94488 6.95746 6.94488 7.46145V11.2415H5.19488V3.76545H6.86088V5.78145L6.56688 5.16545C6.82821 4.68945 7.20621 4.32545 7.70088 4.07345C8.20488 3.81212 8.78354 3.68145 9.43688 3.68145Z" fill="white"/>
</svg>
