<?xml version="1.0" encoding="utf-8"?>
<!-- Generator: Adobe Illustrator 27.0.0, SVG Export Plug-In . SVG Version: 6.00 Build 0)  -->
<svg version="1.1" id="Layer_1" xmlns="http://www.w3.org/2000/svg" xmlns:xlink="http://www.w3.org/1999/xlink" x="0px" y="0px"
	 viewBox="0 0 512 512" style="enable-background:new 0 0 512 512;" xml:space="preserve">
<style type="text/css">
	.st0{fill:#FFFFFF;}
</style>
<path class="st0" d="M244.8,320c-11.8,0-21.3,9.6-21.3,21.3v64c0,35.3-28.7,64-64,64h-52.8c-35.3,0-64-28.7-64-64V106.7
	c0-35.3,28.7-64,64-64h52.8c35.3,0,64,28.7,64,64v64c0,11.8,9.6,21.3,21.3,21.3s21.3-9.6,21.3-21.3v-64
	C266.1,47.8,218.4,0.1,159.5,0h-52.8C47.8,0.1,0.1,47.8,0,106.7v298.7C0.1,464.2,47.8,511.9,106.7,512h52.8
	c58.9-0.1,106.6-47.8,106.7-106.7v-64C266.2,329.6,256.6,320,244.8,320z"/>
<path class="st0" d="M487.8,210.8L390,112.9c-8.2-8.5-21.7-8.7-30.2-0.5c-8.5,8.2-8.7,21.7-0.5,30.2c0.2,0.2,0.3,0.4,0.5,0.5
	l90.9,90.9L128,234.7c-11.8,0-21.3,9.6-21.3,21.3c0,11.8,9.6,21.3,21.3,21.3l0,0l324-0.6l-92.2,92.2c-8.5,8.2-8.7,21.7-0.5,30.2
	s21.7,8.7,30.2,0.5c0.2-0.2,0.4-0.3,0.5-0.5l97.8-97.8C512.8,276.3,512.8,235.8,487.8,210.8z"/>
</svg>
