<svg width="31" height="31" viewBox="0 0 31 31" fill="none" xmlns="http://www.w3.org/2000/svg">
<g clip-path="url(#clip0_1462_35354)">
<path d="M17.5786 0.015317V7.5906C17.3288 7.5692 17.0687 7.5585 16.8172 7.5585C14.5871 7.5585 12.4484 8.35516 10.8715 9.77322C9.29465 11.1913 8.40877 13.1146 8.40877 15.12C8.40877 17.1255 9.29465 19.0488 10.8715 20.4668C12.4484 21.8849 14.5871 22.6816 16.8172 22.6816C17.0738 22.6816 17.3271 22.6709 17.5786 22.651V30.2263C17.3254 30.237 17.0687 30.2416 16.8172 30.2416C14.5949 30.2617 12.3902 29.8854 10.3306 29.1345C8.27098 28.3836 6.39733 27.273 4.81796 25.8669C3.23859 24.4609 1.98485 22.7872 1.1292 20.9426C0.273565 19.0981 -0.166992 17.1194 -0.166992 15.1208C-0.166992 13.1222 0.273565 11.1435 1.1292 9.29894C1.98485 7.45442 3.23859 5.78073 4.81796 4.37464C6.39733 2.96856 8.27098 1.85797 10.3306 1.10709C12.3902 0.356209 14.5949 -0.0200614 16.8172 3.18939e-05C17.0721 3.18939e-05 17.3254 3.18938e-05 17.5786 0.015317Z" fill="#023E8A"/>
<path d="M30.3327 7.55835V15.1199H25.2217V22.6814H17.5781V7.55835H30.3327Z" fill="#6EDD26"/>
</g>
<defs>
<clipPath id="clip0_1462_35354">
<rect width="30.3328" height="30.2415" fill="white"/>
</clipPath>
</defs>
</svg>
