<?xml version="1.0" encoding="UTF-8"?>
<svg id="Layer_1" data-name="Layer 1" xmlns="http://www.w3.org/2000/svg" viewBox="0 0 512.01 512.1">
  <defs>
    <style>
      .cls-1 {
        fill: #fff;
      }
    </style>
  </defs>
  <path class="cls-1" d="M510.7,140.6l-18.8,93.7c-10,49.7-54,85.8-104.5,85.8H143.6c9,25.2,32.6,42.7,60.4,42.7h201.4c11.7,0,21.3,9.6,21.3,21.3s-9.6,21.3-21.3,21.3H203.9c-54,0-99.6-40.5-106-94.3L68.5,61.4c-1.3-10.6-10.5-18.7-21.1-18.7H21.4C9.6,42.7,0,33.1,0,21.3S9.6,0,21.3,0h26c32.4,0,59.7,24.3,63.6,56.5l.9,7.5h80.2c11.7,0,11.7,42.6,0,42.6H116.9l20.1,170.7h250.5c30.3,0,56.7-21.5,62.7-51.4l18.8-93.7c1.3-6.2-.4-12.8-4.5-17.7-4.1-4.9-10-7.9-16.4-7.9-85.37,0-170.73,0-256.1,0,7.94-9.36,9.27-16.64,8.77-21.8,0,0-.37-3.77-8.77-20.8H448c19.2,0,37.3,8.5,49.5,23.5,12.2,14.9,17.1,34.3,13.2,53.1ZM149.3,426.7c-23.5,0-42.7,19.2-42.7,42.7s19.2,42.7,42.7,42.7,42.7-19.2,42.7-42.7-19.2-42.7-42.7-42.7Zm213.4,0c-23.5,0-42.7,19.2-42.7,42.7s19.2,42.7,42.7,42.7,42.7-19.2,42.7-42.7-19.3-42.7-42.7-42.7ZM283.91,76.29"/>
</svg>