<?xml version="1.0" encoding="utf-8"?>
<!-- Generator: Adobe Illustrator 27.0.0, SVG Export Plug-In . SVG Version: 6.00 Build 0)  -->
<svg version="1.1" id="Layer_1" xmlns="http://www.w3.org/2000/svg" xmlns:xlink="http://www.w3.org/1999/xlink" x="0px" y="0px"
	 viewBox="0 0 512 512" style="enable-background:new 0 0 512 512;" xml:space="preserve">
<style type="text/css">
	.st0{fill:#FFFFFF;}
</style>
<path class="st0" d="M256,0C114.8,0,0,114.8,0,256s114.8,256,256,256s256-114.8,256-256S397.2,0,256,0z M256,469.3
	c-117.6,0-213.3-95.7-213.3-213.3S138.4,42.7,256,42.7S469.3,138.4,469.3,256S373.6,469.3,256,469.3z M341.3,298.7
	c0,35.3-28.7,64-64,64V384c0,11.8-9.5,21.3-21.3,21.3c-11.8,0-21.3-9.5-21.3-21.3v-21.3h-5.7c-22.8,0-44-12.2-55.4-32
	c-5.9-10.2-2.4-23.3,7.8-29.1c10.2-6,23.3-2.4,29.1,7.8c3.8,6.6,10.9,10.7,18.5,10.7h48.4c11.8,0,21.3-9.6,21.3-21.3
	c0-8.1-5.8-14.9-13.7-16.2L220,271.6c-28.6-4.8-49.4-29.3-49.4-58.3c0-35.3,28.7-64,64-64V128c0-11.8,9.5-21.3,21.3-21.3
	s21.3,9.6,21.3,21.3v21.3h5.7c22.8,0,44,12.3,55.4,32c5.9,10.2,2.4,23.2-7.8,29.1c-10.2,5.9-23.3,2.4-29.1-7.8
	c-3.8-6.6-10.9-10.7-18.5-10.7h-48.4c-11.8,0-21.3,9.6-21.3,21.3c0,8.1,5.8,14.9,13.7,16.2l64.9,10.8
	C320.6,245.1,341.3,269.7,341.3,298.7L341.3,298.7z"/>
</svg>
