<svg id="Layer_1" data-name="Layer 1" xmlns="http://www.w3.org/2000/svg" viewBox="0 0 641.85 699.64"><defs><style>.cls-1{fill:#fff;}</style></defs><title>product-affiliate-icon</title><path class="cls-1" d="M503.71,333.54l-26.39-55.25a80.16,80.16,0,0,1-23.66,49.4l12.55,26.15a21.42,21.42,0,0,1,1.7,18.3,21,21,0,0,1-13.2,12.8l-109.2,36.4c-9.3,3.1-19.9-.7-24.2-7.8L286,342.64l52.36-17.59a80.25,80.25,0,0,1-19.79-38.33l-62.67,21-124.4-41.6,90.6-30.3a106.76,106.76,0,0,1,67.5,0l31,10.35A80.51,80.51,0,0,1,345,209.41l-42-14a149.74,149.74,0,0,0-94.5,0l-134.2,44.7a64.53,64.53,0,0,0-37.6,33.2L9.31,331a64.57,64.57,0,0,0,33.1,94v134.7A106.71,106.71,0,0,0,115.31,661l93.1,31a150.37,150.37,0,0,0,94.4,0l93.2-31.1a106.36,106.36,0,0,0,72.9-101.1L469,425a63.56,63.56,0,0,0,38.8-38.2C514.71,368.54,512.81,348.54,503.71,333.54Zm-446,51.7A21.73,21.73,0,0,1,44.11,372c-2.4-6.3-1.7-13.2,2.7-20.8l28.3-59.3c1,.5,150.5,50.6,150.5,50.6L191,412a21.54,21.54,0,0,1-25,9.3Zm176.6,269.7a107.94,107.94,0,0,1-12.4-3.3l-93.1-31.1A64,64,0,0,1,85,559.74l.1-120.5,67.5,22.5c28.7,9.6,59.6-1.9,75.9-29.2l5.9-11.9Zm192-95a63.88,63.88,0,0,1-43.7,60.6l-93.2,31.1a107.94,107.94,0,0,1-12.4,3.3l.1-234.6,6.8,13.7a63.55,63.55,0,0,0,54.6,31.1,66.56,66.56,0,0,0,20.5-3.3l67.4-22.5Z"/><path class="cls-1" d="M570.1,198.2A71.79,71.79,0,0,0,533.71,208l-30.48-30.48v-36a72.21,72.21,0,1,0-39.74,0v36.91l-21.43,25.2-5.33,6.26a72.11,72.11,0,0,0-82.5,2.55,72.16,72.16,0,1,0,115.3,57.93q0-3.41-.32-6.73a71.78,71.78,0,0,0-6.22-23.3l5.77-6.79,15.77-18.54,21.69,21.69A72.21,72.21,0,1,0,570.1,198.2ZM397.31,302.79a32.41,32.41,0,0,1-32.37-31.63c0-.25,0-.5,0-.75a32.1,32.1,0,0,1,1.29-9,32.38,32.38,0,1,1,31.09,41.41ZM483.36,104.5a32.38,32.38,0,1,1,32.38-32.38A32.42,32.42,0,0,1,483.36,104.5ZM570.1,302.79a32.38,32.38,0,1,1,32.37-32.38A32.41,32.41,0,0,1,570.1,302.79Z"/></svg>