<svg id="Layer_1" data-name="Layer 1" xmlns="http://www.w3.org/2000/svg" viewBox="0 0 158 155"><defs><style>.cls-1{fill:#fff;}</style></defs><title>sourcingPlan</title><path class="cls-1" d="M138.24,151.72c-5.82-10.46-11.54-20.79-17.31-31.09-3.21-5.74-4.78-6-9.89-1.68-7.74,6.58-15.33,13.34-23.2,19.76-3.28,2.67-4.57,5.32-3,9.45a11.15,11.15,0,0,1,0,6.84c-4.91-8.47-10.64-15.53-20.25-18.7l.63-1.74c1.67,0,3.56-.52,5,.09,5.39,2.32,8.84.52,12.3-3.92,6-7.74,12.71-15,19.06-22.47,3.59-4.25,3.22-6.14-1.72-8.91C89.41,93.49,78.93,87.71,68.35,81.83c1.64-4.15,4.49-4.55,8.31-3.65,13.43,3.18,26.88,6.28,40.4,9a9.32,9.32,0,0,0,7-1.82c6.78-5.9,13.13-12.28,19.68-18.45,5.13-4.83,10.56-6.29,13.22-3.63,2.41,2.41.8,7.94-3.77,12.79-5.94,6.3-11.82,12.66-17.91,18.81-2.59,2.61-3.52,5-2.57,8.84,3.23,13.07,5.89,26.28,9,39.39C142.56,146.78,142.49,149.68,138.24,151.72Z"/><path class="cls-1" d="M63.79,34.55V63.69H34.58c1.16-8,2.17-15.63,3.5-23.24.17-1,1.85-2.29,3-2.49C48.41,36.71,55.8,35.72,63.79,34.55Z"/><path class="cls-1" d="M72.37,34.57c8,1.17,15.49,2.2,23,3.47a3.78,3.78,0,0,1,2.56,2.35c1.29,7.63,2.32,15.29,3.48,23.33h-29Z"/><path class="cls-1" d="M64.11,101.47c-8.3-1.21-15.68-2.19-23-3.44-1.15-.19-2.84-1.46-3-2.46-1.35-7.6-2.38-15.26-3.57-23.3H65.23c-2.54,2.75-4.3,4.71-6.12,6.6-2,2-3.2,5.09-.43,6.3C66.47,88.57,63.41,94.84,64.11,101.47Z"/><path class="cls-1" d="M134.57,47.67A78,78,0,0,0,106.8,32.58a6.5,6.5,0,0,1-3.23-3.19C99,20.07,94.65,10.68,90.59,2.1,107.55,5,129.39,26.6,134.57,47.67Z"/><path class="cls-1" d="M1.9,47.4C4.68,28.75,28.54,4.84,47.34,1.88c-7.23,8.29-11.7,17.64-14.93,27.66a5.13,5.13,0,0,1-2.85,2.91C19.51,35.64,10.15,40.08,1.9,47.4Z"/><path class="cls-1" d="M2,90.55c8.61,4.07,17.69,8.33,26.72,12.7a7.65,7.65,0,0,1,3.51,2.92c4.49,9.29,8.76,18.68,12.81,27.41C29,131.41,6,108.41,2,90.55Z"/><path class="cls-1" d="M63.74,26.86c-4,.38-7.57.69-11.19,1.09s-7.2.87-11.57,1.41C45.68,17.17,50.7,6.18,63.74.41Z"/><path class="cls-1" d="M94.38,29.09,72.3,26.79V1.51C80.58,2.15,91.61,15.78,94.38,29.09Z"/><path class="cls-1" d="M.43,63.71C6.16,50.79,17,45.71,29.15,41.12c-.82,7.88-1.58,15.09-2.36,22.59Z"/><path class="cls-1" d="M106.77,41.06c12.22,4.66,23,9.8,28.69,22.52H109.2C108.43,56.42,107.65,49.23,106.77,41.06Z"/><path class="cls-1" d="M29.29,95C17.12,90.09,6,85.19.46,72.22H26.67C27.52,79.64,28.35,86.85,29.29,95Z"/><path class="cls-1" d="M63.92,109.23c-.4,8.18,3.08,17.19-7.5,22.15-7.56-6.33-11.92-14.87-15.33-24.63Z"/><path class="cls-1" d="M91.41,107.21c-8,11.45-15.41,19.07-19.11,19.56V109.19Z"/><path class="cls-1" d="M109.45,72.15c.81-.05,1.62-.14,2.43-.14h13.51c-4,7.12-6.53,8.35-13.79,5.86-1.5-.51-2.38-2.82-3.55-4.31Z"/><path class="cls-1" d="M72.21,101.15V93.37L83,99.15l-.14.91Z"/><path class="cls-1" d="M100.79,72.25c-1.15,3.62-2.57,3.6-12.43,0Z"/></svg>