<svg xmlns="http://www.w3.org/2000/svg" viewBox="0 0 245 251"><defs><style>.cls-1{fill:#fff;}</style></defs><title>Asset 2</title><g id="Layer_2" data-name="Layer 2"><g id="Layer_1-2" data-name="Layer 1"><path class="cls-1" d="M99.08,187c0-7.25-.12-14.2.14-21.14,0-1,1.84-2.48,3-2.75,2.06-.46,4.3-.14,6.46-.14h88.14v24Z"/><path class="cls-1" d="M196.94,64.88V88.35H99.52V64.88Z"/><path class="cls-1" d="M99.12,137.68c0-7.42-.15-14.54.21-21.64,0-.85,2.84-2.23,4.37-2.24,19-.15,38-.1,56.93-.1H184.4v24Z"/><path class="cls-1" d="M74.12,114.06c0,7.32.1,14.28-.12,21.22a3.79,3.79,0,0,1-2.59,2.63c-6.94.22-13.89.12-21.23.12v-24Z"/><path class="cls-1" d="M74.1,187H49.8c0-7.37-.12-14.47.15-21.56,0-.88,2.1-2.35,3.27-2.4,5.81-.25,11.64-.25,17.44,0,1.18.05,3.26,1.52,3.29,2.4C74.22,172.56,74.1,179.67,74.1,187Z"/><path class="cls-1" d="M73.81,64.87V88.25H50.16V64.87Z"/><path class="cls-1" d="M206.29,251H38.71A38.76,38.76,0,0,1,0,212.29V38.71A38.76,38.76,0,0,1,38.71,0H206.29A38.76,38.76,0,0,1,245,38.71V212.29A38.76,38.76,0,0,1,206.29,251ZM38.71,23A15.73,15.73,0,0,0,23,38.71V212.29A15.73,15.73,0,0,0,38.71,228H206.29A15.73,15.73,0,0,0,222,212.29V38.71A15.73,15.73,0,0,0,206.29,23Z"/></g></g></svg>