<svg id="Layer_1" data-name="Layer 1" xmlns="http://www.w3.org/2000/svg" viewBox="0 0 219.26 247.18"><defs><style>.cls-1{fill:#fff;}</style></defs><path class="cls-1" d="M0,114.06Q0,62.28,0,10.51C0,2.54,2.48,0,10.28,0,39.49,0,68.7,0,97.91-.06c4.11,0,7.61.66,9.58,4.69,1.89,3.88.13,6.93-2.19,10-33.22,44.05-8.17,105.3,46.53,113.65,4.39.67,8.94.41,13.42.39,7.13,0,10.15,2.7,10.17,9.66q.08,23.16.05,46.3c0,7-2.91,9.76-10.11,9.76l-129.94,0c-9,0-11.42,2.48-11.43,11.57,0,4.32.1,8.64,0,12.95-.14,7.22-5.28,12.36-12.18,12.32S0,226,0,218.61Q0,166.33,0,114.06Zm84.71,45c3.74,7.44,7,13.92,10.25,20.39,3,5.89,7.24,8,11.76,5.7,4.36-2.18,5.22-6.7,2.33-12.51-5.39-10.83-10.87-21.63-16.18-32.5-1.71-3.5-3.83-6.39-8-6.45-4.46-.06-6.58,3-8.36,6.68-5.32,10.87-10.8,21.66-16.2,32.49-2.76,5.52-1.93,9.87,2.26,12.14,4.49,2.43,8.75.68,11.61-4.91C77.55,173.49,80.85,166.81,84.71,159.09Zm-41.38,1.57c-4-8-7.51-15.19-11.22-22.21-2.42-4.59-6.79-6-10.85-3.81-3.77,2-5.2,6.34-3.08,10.69,5.88,12.07,11.75,24.15,18.1,36,1.19,2.22,4.61,4.59,6.9,4.5a10.28,10.28,0,0,0,7.32-4.69c6.32-11.64,12.09-23.58,17.89-35.5.82-1.68,1.6-4.35.83-5.61-1.49-2.46-4-5.73-6.27-5.94-2.59-.24-6.58,1.84-8,4.13C50.72,145.08,47.43,152.54,43.33,160.66Zm90.46-11.22h5.67c1.66,0,3.33.1,5,0,4.65-.41,8-3.86,7.95-8a8,8,0,0,0-8.17-7.73q-17.94-.19-35.87,0c-5.08.07-8.54,3.53-8.5,7.88s3.61,7.65,8.61,7.85c3.11.13,6.23,0,9.69,0,.1,2.09.24,3.7.24,5.32,0,7.3,0,14.61,0,21.91a12.66,12.66,0,0,0,.69,4.86,7.07,7.07,0,0,0,8,4.46c4-.68,6.58-3.15,6.6-7.49C133.83,169.06,133.79,159.63,133.79,149.44ZM47.37,97.62c9,0,17.91.1,26.86,0,5-.08,8.5-3.66,8.42-8-.08-4.14-3.5-7.41-8.17-7.78-1-.08-2,0-3,0H22.24c-6.2,0-10.07,3-10.16,7.8s3.79,8,9.92,8.05C30.45,97.67,38.91,97.63,47.37,97.62ZM44.62,52.8c7.79,0,15.59,0,23.38,0,5.85-.05,9.51-3.07,9.65-7.79s-3.57-7.94-9.41-8q-23.37-.13-46.75,0c-5.7,0-9.5,3.39-9.41,8s3.85,7.74,9.66,7.78C29.37,52.84,37,52.8,44.62,52.8Z"/><path class="cls-1" d="M161.4,0c32.48.13,58,26.13,57.85,58.92-.13,31.6-26.78,57.74-58.53,57.44s-58-26.8-57.81-58.39A58.21,58.21,0,0,1,161.4,0Zm14.37,34.8c-2.72,1.71-4.91,2.62-6.48,4.16Q155.58,52.37,142.14,66C138.24,70,138,74.66,141.2,78s8,3.06,11.93-.74c4.18-4,8.23-8.19,12.34-12.3,5.16-5.17,10.37-10.29,15.46-15.53,2.52-2.6,3.7-5.91,1.47-9C180.83,38.16,178.17,36.75,175.77,34.8ZM144.09,36a7.9,7.9,0,1,0,7.59,8.11A7.75,7.75,0,0,0,144.09,36Zm42.45,37.92a7.67,7.67,0,1,0-7.89,7.75A7.75,7.75,0,0,0,186.54,73.89Z"/><path class="cls-1" d="M111.53,247.16c-25.39,0-50.79.07-76.18-.11-2.3,0-4.59-1.63-6.89-2.5,1.13-2.16,1.82-4.75,3.46-6.4,5.23-5.25,7.55-11.56,7.93-18.77.35-6.67,2.89-9.14,9.64-9.15q78.16,0,156.34,0c6.73,0,9.57,3,9.43,9.83a27.63,27.63,0,0,1-27.55,27.07C162.32,247.24,136.92,247.15,111.53,247.16Z"/></svg>