<?xml version="1.0" encoding="UTF-8"?>
<svg id="Layer_2" xmlns="http://www.w3.org/2000/svg" viewBox="0 0 689.09 123.11">
  <defs>
    <style>
      .cls-1 {
        fill: #6edd26;
      }

      .cls-2 {
        fill: #023e8a;
      }
    </style>
  </defs>
  <g id="Layer_1-2" data-name="Layer_1">
    <g>
      <g>
        <g>
          <path class="cls-2" d="M179.81,99.86c-5.68,0-10.94-.94-15.8-2.82-4.86-1.88-9.08-4.54-12.66-7.98-3.58-3.44-6.37-7.5-8.35-12.18-1.99-4.68-2.98-9.79-2.98-15.32s.99-10.64,2.98-15.32c1.98-4.68,4.79-8.74,8.41-12.18,3.62-3.44,7.84-6.1,12.66-7.98,4.82-1.88,10.11-2.82,15.85-2.82,6.1,0,11.67,1.05,16.7,3.14,5.04,2.09,9.29,5.2,12.77,9.31l-8.94,8.41c-2.7-2.91-5.71-5.09-9.04-6.54-3.34-1.45-6.95-2.18-10.85-2.18s-7.47.64-10.69,1.92c-3.23,1.28-6.03,3.09-8.41,5.43-2.38,2.34-4.22,5.11-5.53,8.3-1.31,3.19-1.97,6.7-1.97,10.53s.65,7.34,1.97,10.53c1.31,3.19,3.16,5.96,5.53,8.3,2.38,2.34,5.18,4.15,8.41,5.43,3.23,1.28,6.79,1.92,10.69,1.92s7.52-.73,10.85-2.18c3.33-1.45,6.35-3.67,9.04-6.65l8.94,8.51c-3.48,4.04-7.73,7.13-12.77,9.26-5.04,2.13-10.64,3.19-16.81,3.19Z"/>
          <path class="cls-2" d="M248.58,99.86c-5.82,0-11.17-.96-16.07-2.87-4.89-1.92-9.15-4.59-12.77-8.03-3.62-3.44-6.42-7.48-8.41-12.13-1.99-4.65-2.98-9.74-2.98-15.27s.99-10.62,2.98-15.27c1.98-4.65,4.79-8.69,8.41-12.13,3.62-3.44,7.87-6.12,12.77-8.03,4.89-1.92,10.21-2.87,15.96-2.87s11.15.96,16.01,2.87c4.86,1.92,9.1,4.59,12.71,8.03,3.62,3.44,6.42,7.48,8.41,12.13,1.99,4.65,2.98,9.74,2.98,15.27s-.99,10.64-2.98,15.32c-1.99,4.68-4.79,8.73-8.41,12.13-3.62,3.4-7.86,6.07-12.71,7.98-4.86,1.92-10.16,2.87-15.91,2.87ZM248.47,87.73c3.76,0,7.24-.64,10.43-1.92,3.19-1.28,5.96-3.1,8.3-5.48,2.34-2.38,4.17-5.14,5.48-8.3,1.31-3.16,1.97-6.65,1.97-10.48s-.66-7.32-1.97-10.48c-1.31-3.16-3.14-5.92-5.48-8.3-2.34-2.38-5.11-4.2-8.3-5.48-3.19-1.28-6.67-1.92-10.43-1.92s-7.22.64-10.37,1.92c-3.16,1.28-5.92,3.1-8.3,5.48-2.38,2.38-4.22,5.14-5.53,8.3-1.31,3.16-1.97,6.65-1.97,10.48s.65,7.24,1.97,10.43c1.31,3.19,3.14,5.98,5.48,8.35,2.34,2.38,5.11,4.2,8.3,5.48,3.19,1.28,6.67,1.92,10.43,1.92Z"/>
          <path class="cls-2" d="M296.45,98.79V24.31h32.56c8.09,0,15.18,1.56,21.28,4.68,6.1,3.12,10.85,7.45,14.26,12.98,3.4,5.53,5.11,12.06,5.11,19.58s-1.7,13.96-5.11,19.52c-3.4,5.57-8.16,9.91-14.26,13.03-6.1,3.12-13.19,4.68-21.28,4.68h-32.56ZM310.28,87.09h18.09c5.6,0,10.44-1.06,14.52-3.19,4.08-2.13,7.24-5.11,9.47-8.94,2.23-3.83,3.35-8.3,3.35-13.41s-1.12-9.66-3.35-13.46c-2.23-3.79-5.39-6.76-9.47-8.88-4.08-2.13-8.92-3.19-14.52-3.19h-18.09v51.07Z"/>
          <path class="cls-2" d="M420.3,98.79v-62.78h-24.69v-11.7h63.2v11.7h-24.69v62.78h-13.83Z"/>
          <path class="cls-2" d="M495.52,99.86c-5.82,0-11.17-.96-16.07-2.87-4.89-1.92-9.15-4.59-12.77-8.03-3.62-3.44-6.42-7.48-8.41-12.13-1.99-4.65-2.98-9.74-2.98-15.27s.99-10.62,2.98-15.27c1.99-4.65,4.79-8.69,8.41-12.13,3.62-3.44,7.87-6.12,12.77-8.03,4.89-1.92,10.21-2.87,15.96-2.87s11.15.96,16.01,2.87c4.86,1.92,9.1,4.59,12.71,8.03,3.62,3.44,6.42,7.48,8.41,12.13,1.99,4.65,2.98,9.74,2.98,15.27s-.99,10.64-2.98,15.32c-1.99,4.68-4.79,8.73-8.41,12.13-3.62,3.4-7.86,6.07-12.71,7.98-4.86,1.92-10.16,2.87-15.91,2.87ZM495.41,87.73c3.76,0,7.24-.64,10.43-1.92,3.19-1.28,5.96-3.1,8.3-5.48,2.34-2.38,4.17-5.14,5.48-8.3,1.31-3.16,1.97-6.65,1.97-10.48s-.66-7.32-1.97-10.48c-1.31-3.16-3.14-5.92-5.48-8.3-2.34-2.38-5.11-4.2-8.3-5.48-3.19-1.28-6.67-1.92-10.43-1.92s-7.22.64-10.37,1.92c-3.16,1.28-5.92,3.1-8.3,5.48-2.38,2.38-4.22,5.14-5.53,8.3-1.31,3.16-1.97,6.65-1.97,10.48s.65,7.24,1.97,10.43c1.31,3.19,3.14,5.98,5.48,8.35,2.34,2.38,5.11,4.2,8.3,5.48,3.19,1.28,6.67,1.92,10.43,1.92Z"/>
          <path class="cls-2" d="M578.87,99.86c-5.82,0-11.17-.96-16.07-2.87-4.89-1.92-9.15-4.59-12.77-8.03-3.62-3.44-6.42-7.48-8.41-12.13-1.99-4.65-2.98-9.74-2.98-15.27s.99-10.62,2.98-15.27c1.99-4.65,4.79-8.69,8.41-12.13,3.62-3.44,7.87-6.12,12.77-8.03,4.89-1.92,10.21-2.87,15.96-2.87s11.15.96,16.01,2.87c4.86,1.92,9.1,4.59,12.71,8.03,3.62,3.44,6.42,7.48,8.41,12.13,1.99,4.65,2.98,9.74,2.98,15.27s-.99,10.64-2.98,15.32c-1.99,4.68-4.79,8.73-8.41,12.13-3.62,3.4-7.86,6.07-12.71,7.98-4.86,1.92-10.16,2.87-15.91,2.87ZM578.77,87.73c3.76,0,7.24-.64,10.43-1.92,3.19-1.28,5.96-3.1,8.3-5.48,2.34-2.38,4.17-5.14,5.48-8.3,1.31-3.16,1.97-6.65,1.97-10.48s-.66-7.32-1.97-10.48c-1.31-3.16-3.14-5.92-5.48-8.3-2.34-2.38-5.11-4.2-8.3-5.48-3.19-1.28-6.67-1.92-10.43-1.92s-7.22.64-10.37,1.92c-3.16,1.28-5.92,3.1-8.3,5.48-2.38,2.38-4.22,5.14-5.53,8.3-1.31,3.16-1.97,6.65-1.97,10.48s.65,7.24,1.97,10.43c1.31,3.19,3.14,5.98,5.48,8.35,2.34,2.38,5.11,4.2,8.3,5.48,3.19,1.28,6.67,1.92,10.43,1.92Z"/>
          <path class="cls-2" d="M685.27,36.65c-2.55-3.97-6.19-7.02-10.91-9.15-4.72-2.12-10.38-3.19-16.97-3.19h-30.64v74.47h13.83v-21.49h16.82c6.59,0,12.25-1.06,16.97-3.19,4.72-2.12,8.36-5.17,10.91-9.14,2.55-3.97,3.83-8.69,3.83-14.15s-1.28-10.18-3.83-14.15ZM670.53,61.72c-3.09,2.59-7.68,3.88-13.79,3.88h-16.17v-29.57h16.17c6.1,0,10.69,1.28,13.79,3.83,3.08,2.55,4.62,6.21,4.62,10.96s-1.54,8.31-4.62,10.91Z"/>
        </g>
        <path class="cls-2" d="M64.35.06v30.84c-.92-.09-1.85-.13-2.79-.13-17,0-30.78,13.79-30.78,30.78s13.78,30.78,30.78,30.78c.94,0,1.88-.04,2.79-.13v30.84c-.92.04-1.86.06-2.79.06C27.56,123.11,0,95.55,0,61.55S27.56,0,61.56,0c.93,0,1.87.02,2.79.06Z"/>
      </g>
      <polygon class="cls-1" points="111.04 30.77 111.04 61.55 92.33 61.55 92.33 92.33 64.35 92.33 64.35 30.77 111.04 30.77"/>
    </g>
  </g>
</svg>