<?xml version="1.0" encoding="utf-8"?>
<!-- Generator: Adobe Illustrator 27.0.0, SVG Export Plug-In . SVG Version: 6.00 Build 0)  -->
<svg version="1.1" id="Layer_1" xmlns="http://www.w3.org/2000/svg" xmlns:xlink="http://www.w3.org/1999/xlink" x="0px" y="0px"
	 viewBox="0 0 512 512" style="enable-background:new 0 0 512 512;" xml:space="preserve">
<style type="text/css">
	.st0{fill:#FFFFFF;}
</style>
<path class="st0" d="M352,0c-89.7,0-160,42.2-160,96v55.2c-10.3-1.2-21-1.9-32-1.9c-89.7,0-160,42.2-160,96V416
	c0,53.8,70.3,96,160,96c72.9,0,132.9-27.8,152.9-67.1c12.7,1.9,25.7,3.1,39.1,3.1c89.7,0,160-42.2,160-96V96C512,42.2,441.7,0,352,0
	z M352,42.7c67.2,0,117.3,28.2,117.3,53.3s-50.2,53.3-117.3,53.3S234.7,121.2,234.7,96S284.8,42.7,352,42.7z M160,192
	c67.2,0,117.3,28.2,117.3,53.3s-50.2,53.3-117.3,53.3S42.7,270.5,42.7,245.3S92.8,192,160,192z M42.7,311.1
	c29,18.7,70.5,30.3,117.3,30.3s88.3-11.6,117.3-30.3v19.6c0,25.2-50.2,53.3-117.3,53.3S42.7,355.8,42.7,330.7V311.1z M160,469.3
	c-67.2,0-117.3-28.2-117.3-53.3v-19.6c29,18.7,70.5,30.3,117.3,30.3s88.3-11.6,117.3-30.3V416C277.3,441.2,227.2,469.3,160,469.3z
	 M352,405.3c-11,0-21.6-1-32-2.5v-42.2c10.5,1.2,21.1,2,32,2c46.9,0,88.3-11.6,117.3-30.3V352C469.3,377.2,419.2,405.3,352,405.3
	L352,405.3z M352,320c-11,0-21.6-1-32-2.5v-42.2c10.5,1.2,21.1,2,32,2c46.9,0,88.3-11.6,117.3-30.3v19.6
	C469.3,291.8,419.2,320,352,320L352,320z M352,234.7c-11.6,0-22.7-1.1-33.7-2.7c-4.2-18.9-17.3-35.9-36.7-49.5
	c21.2,6.1,44.9,9.6,70.4,9.6c46.9,0,88.3-11.6,117.3-30.3v19.6C469.3,206.5,419.2,234.7,352,234.7L352,234.7z"/>
</svg>
