<?xml version="1.0" encoding="utf-8"?>
<!-- Generator: Adobe Illustrator 26.1.0, SVG Export Plug-In . SVG Version: 6.00 Build 0)  -->
<svg version="1.1" id="Layer_1" xmlns="http://www.w3.org/2000/svg" xmlns:xlink="http://www.w3.org/1999/xlink" x="0px" y="0px"
	 viewBox="0 0 316 307.9" style="enable-background:new 0 0 316 307.9;" xml:space="preserve">
<style type="text/css">
	.st0{fill:#023E8A;}
</style>
<g id="Layer_2_00000041289109912840823820000000095095244767481532_">
	<g>
		<g id="Layer_1-2_00000054225964432728570000000003786411398687585948_">
			<path class="st0" d="M221.1,307.8c-14.8,0-29.5,0-44.3,0c-21,0-36.8-15.8-36.8-36.7c0-14.2,0.1-28.5-0.1-42.7
				c0-1.7-0.5-3.9-1.6-5c-12.2-11.9-14.1-26.2-9-41.4c5.7-17.1,12.3-34,19.3-50.6c4.4-10.6,13.3-16.2,24.8-16.2
				c32.1-0.2,64.3-0.2,96.4,0c10.6,0.1,19.3,5.2,23.4,14.8c7.7,18.2,14.8,36.7,20.8,55.6c4.4,13.9,1.2,26.9-9.6,37.5
				c-1.1,1.4-1.7,3.2-1.7,5c-0.1,14,0,28-0.1,42c-0.1,15.6-12.4,37.8-35.8,37.6C250.7,307.9,236.2,307.8,221.1,307.8z M250.7,222
				c-7.8,9.3-17.5,14.1-29.5,14.1s-21.7-4.9-29.5-14.2c-6.7,6.5-15.3,10.5-24.6,11.4c-2.6,0.3-3.2,2.2-3.2,4.7
				c0.1,10.7,0,21.5,0,32.2c0,8.9,4.7,13.6,13.6,13.6h87c9.1,0,13.9-4.7,14-13.8c0.1-8.9,0-17.7,0-26.6c0-9.1,0-9.2-8.6-11
				C262.7,230.8,256.5,227.1,250.7,222z"/>
			<path class="st0" d="M53.7,274.7c-28-4.1-50.5-29.2-53.3-57.4c-3.4-34.8,21.1-66.2,55.8-71.2c3.2-0.5,37.2-0.6,51-0.6
				c7,0,8.9,2.9,6.6,9.4c-3,8.3-6.4,16.5-8.7,25c-3.5,13-2.2,25.9,1.6,38.7c3.4,11.3,6.5,22.7,8.8,34.3c1.2,6,0.6,12.4,0.6,18.7
				c0,3.2-2.2,4.2-5,4.2C102.1,275.9,63.7,276.2,53.7,274.7z"/>
			<path class="st0" d="M180.2,61.8c-0.2,34.7-27.9,61.7-63,61.5c-33.3-0.2-60.6-28.4-60.4-62.6C57,27.3,85.1-0.2,118.7,0
				c34,0,61.5,27.7,61.5,61.7C180.2,61.7,180.2,61.8,180.2,61.8z"/>
		</g>
	</g>
</g>
</svg>
