<?xml version="1.0" encoding="utf-8"?>
<!-- Generator: Adobe Illustrator 27.0.0, SVG Export Plug-In . SVG Version: 6.00 Build 0)  -->
<svg version="1.1" id="Layer_1" xmlns="http://www.w3.org/2000/svg" xmlns:xlink="http://www.w3.org/1999/xlink" x="0px" y="0px"
	 viewBox="0 0 512 512" style="enable-background:new 0 0 512 512;" xml:space="preserve">
<style type="text/css">
	.st0{fill:#FFFFFF;}
</style>
<path class="st0" d="M503.7,231.2L467,154.5c-4.7-9.7-15.8-14.5-26-11l-185.1,61.8L70.5,143.5c-10.2-3.4-21.4,1.3-26,11.1L9.3,228.7
	C-0.9,245.6-2.8,265.9,4,284.3c6.6,17.9,20.6,31.8,38.4,38.3L42.3,372c0,46,29.3,86.7,72.9,101.3l93.1,31.1
	c15.2,5.1,31.2,7.6,47.2,7.6s32-2.5,47.2-7.6l93.2-31.1c43.6-14.5,72.9-55.2,72.9-101.1l0.1-49.5c18-6.3,32.2-20.2,38.8-38.1
	C514.7,266.2,512.8,246.1,503.7,231.2L503.7,231.2z M46.8,248.9l28.1-58.9l150.7,50.2l-34.6,69.5c-5.2,8.7-15.6,12.5-25,9.3
	L57.6,282.8c-6.4-2.1-11.3-6.9-13.6-13.2C41.7,263.3,42.3,256.4,46.8,248.9L46.8,248.9z M128.8,432.8c-26.2-8.7-43.8-33.2-43.8-60.8
	l0.1-35.2l67.5,22.5c28.7,9.5,59.6-1.9,75.9-29.3l5.9-11.8l-0.1,148.9c-4.2-0.9-8.3-1.9-12.4-3.3L128.8,432.8L128.8,432.8z
	 M382.5,432.8l-93.2,31.1c-4.1,1.3-8.2,2.5-12.4,3.3l0.1-149.2l6.8,13.7c11.9,19.8,32.7,31.1,54.7,31.1c6.8,0,13.7-1.1,20.5-3.3
	l67.4-22.5l-0.1,35.2C426.3,399.7,408.7,424.1,382.5,432.8L382.5,432.8z M467.9,269.7c-2.2,6.1-7.1,10.8-13.2,12.8l-109.2,36.4
	c-9.3,3.1-19.9-0.8-24.2-7.8L286,240.2L436.7,190l29.5,61.4C469.5,257,470.1,263.6,467.9,269.7L467.9,269.7z M111.2,125.8
	c-8.3-8.3-8.3-21.8,0-30.2l83.1-83.1c16.6-16.6,43.7-16.6,60.3,0l34,34c16.1-8.2,37.1-5.8,50.2,7.4l48.1,48.1
	c8.3,8.3,8.3,21.8,0,30.2c-8.3,8.3-21.8,8.3-30.2,0l-48.1-48.1l-67.2,67.2c-4.2,4.2-9.6,6.3-15.1,6.3c-5.5,0-10.9-2.1-15.1-6.3
	c-8.3-8.3-8.3-21.8,0-30.2l45.8-45.8l-32.6-32.6l-83.1,83.1c-4.2,4.2-9.6,6.3-15.1,6.3S115.4,130,111.2,125.8L111.2,125.8z"/>
</svg>
