<?xml version="1.0" encoding="utf-8"?>
<!-- Generator: Adobe Illustrator 27.0.0, SVG Export Plug-In . SVG Version: 6.00 Build 0)  -->
<svg version="1.1" id="Bold" xmlns="http://www.w3.org/2000/svg" xmlns:xlink="http://www.w3.org/1999/xlink" x="0px" y="0px"
	 viewBox="0 0 512 512" style="enable-background:new 0 0 512 512;" xml:space="preserve">
<style type="text/css">
	.st0{fill:#FFFFFF;}
</style>
<path class="st0" d="M32.3,129.5c8.5,0,16.6,3.4,22.6,9.4l163.7,163.7c20.8,20.8,54.6,20.8,75.4,0c0,0,0,0,0,0l163.5-163.5
	c12.7-12.3,33-11.9,45.2,0.8c12,12.4,12,32.1,0,44.5L339.4,347.8c-45.9,45.8-120.1,45.8-166,0L9.7,184.1
	c-12.5-12.5-12.5-32.8,0-45.3C15.7,132.9,23.8,129.5,32.3,129.5z"/>
</svg>
