<?xml version="1.0" encoding="utf-8"?>
<!-- Generator: Adobe Illustrator 27.0.0, SVG Export Plug-In . SVG Version: 6.00 Build 0)  -->
<svg version="1.1" id="Layer_1" xmlns="http://www.w3.org/2000/svg" xmlns:xlink="http://www.w3.org/1999/xlink" x="0px" y="0px"
	 viewBox="0 0 512 512" style="enable-background:new 0 0 512 512;" xml:space="preserve">
<style type="text/css">
	.st0{fill:#FFFFFF;}
</style>
<path class="st0" d="M491.1,187.5c-12.6-11.5-29-17.3-46.3-16.6c-17.1,0.9-32.9,8.3-44.6,20.9l-68.7,75.3
	c-11.7-19.4-33.1-32.4-57.4-32.4H85.3C38.2,234.7,0,272.9,0,320v106.7C0,473.8,38.2,512,85.3,512h105.8c60.8,0,118.8-26,159.4-71.5
	l145.3-163c23.3-26.2,21.1-66.6-4.7-90.2V187.5z M464,249.4l-145.3,163c-32.4,36.3-78.7,57.2-127.4,57.2h-106
	c-23.5,0-42.7-19.2-42.7-42.7V320.2c0-23.5,19.2-42.7,42.7-42.7h189c13.4,0,24.3,10.9,24.3,24.3c0,11.9-9,22.4-20.9,24.1
	l-110.1,15.8c-11.7,1.7-19.8,12.4-18.1,24.1s12.6,19.8,24.1,18.1l110.1-15.8c25.2-3.6,45.4-21.1,53.5-43.9l94.5-103.7
	c3.8-4.3,9.2-6.8,14.9-7c5.8,0,11.3,1.7,15.6,5.5c8.7,7.9,9.4,21.5,1.5,30.3H464z"/>
<path class="st0" d="M192,213.3h8.1c30.9,0,55.9-25.2,55.9-55.9c0-27.5-19.6-50.8-46.7-55.3l-70-11.7c-6.4-1.1-11.1-6.6-11.1-13.2
	c0-7.3,6-13.2,13.2-13.2h56.3c7.7,0,14.7,4.1,18.6,10.7c5.8,10.2,18.8,13.7,29.2,7.7c10.2-6,13.7-19,7.7-29.2
	c-11.3-19.6-32.6-32-55.5-32H192c0-11.7-9.6-21.3-21.3-21.3s-21.3,9.6-21.3,21.3h-8.1c-30.9,0-55.9,25.2-55.9,55.9
	c0,27.5,19.6,50.8,46.7,55.3l70,11.7c6.4,1.1,11.1,6.6,11.1,13.2c0,7.3-6,13.2-13.2,13.2h-56.3c-7.7,0-14.7-4.1-18.6-10.7
	c-6-10.2-19-13.7-29.2-7.7c-10.2,6-13.7,19-7.7,29.2c11.3,19.6,32.6,32,55.5,32h5.8c0,11.7,9.6,21.3,21.3,21.3
	C182.4,234.7,192,225.1,192,213.3L192,213.3z"/>
</svg>
