<?xml version="1.0" encoding="utf-8"?>
<!-- Generator: Adobe Illustrator 27.0.0, SVG Export Plug-In . SVG Version: 6.00 Build 0)  -->
<svg version="1.1" id="Layer_1" xmlns="http://www.w3.org/2000/svg" xmlns:xlink="http://www.w3.org/1999/xlink" x="0px" y="0px"
	 viewBox="0 0 512 512" style="enable-background:new 0 0 512 512;" xml:space="preserve">
<style type="text/css">
	.st0{fill:#FFFFFF;}
</style>
<path class="st0" d="M341.3,490.7c0,11.8-9.5,21.3-21.3,21.3H128c-58.8,0-106.7-47.9-106.7-106.7V106.7C21.3,47.9,69.2,0,128,0h96.3
	c39.9,0,77.4,15.5,105.6,43.7l74.3,74.4c5.8,5.8,11.2,12.1,16,18.8c6.8,9.6,4.6,22.9-4.9,29.8c-9.6,6.8-22.9,4.6-29.8-5
	c-3.4-4.8-7.3-9.3-11.4-13.4l-74.3-74.4c-6.8-6.8-14.3-12.5-22.4-17.2v92.6c0,11.8,9.6,21.3,21.3,21.3h64c11.8,0,21.3,9.6,21.3,21.3
	s-9.5,21.3-21.3,21.3h-64c-35.3,0-64-28.7-64-64V43.2c-3.4-0.3-6.9-0.5-10.3-0.5H128c-35.3,0-64,28.7-64,64v298.7
	c0,35.3,28.7,64,64,64h192C331.8,469.3,341.3,478.9,341.3,490.7z M462.6,347l-64.9-10.8c-8-1.3-13.7-8.1-13.7-16.2
	c0-11.8,9.6-21.3,21.3-21.3h48.4c7.6,0,14.7,4.1,18.5,10.7c5.9,10.2,18.9,13.7,29.1,7.8c10.2-5.9,13.7-18.9,7.8-29.1
	c-11.4-19.7-32.6-32-55.4-32H448v-21.3c0-11.8-9.5-21.3-21.3-21.3s-21.3,9.6-21.3,21.3V256c-35.3,0-64,28.7-64,64
	c0,29,20.8,53.5,49.4,58.3l64.9,10.8c8,1.3,13.7,8.1,13.7,16.2c0,11.8-9.6,21.3-21.3,21.3h-48.4c-7.6,0-14.7-4.1-18.5-10.7
	c-5.9-10.2-18.9-13.7-29.1-7.8c-10.2,5.9-13.7,18.9-7.8,29.1c11.4,19.7,32.6,32,55.4,32h5.7v21.3c0,11.8,9.5,21.3,21.3,21.3
	c11.8,0,21.3-9.6,21.3-21.3v-21.3c35.3,0,64-28.7,64-64C512,376.3,491.2,351.8,462.6,347L462.6,347z M160,320h117.3
	c11.8,0,21.3-9.6,21.3-21.3s-9.5-21.3-21.3-21.3H160c-29.4,0-53.3,23.9-53.3,53.3v42.7c0,29.4,23.9,53.3,53.3,53.3h117.3
	c11.8,0,21.3-9.6,21.3-21.3s-9.5-21.3-21.3-21.3H160c-5.9,0-10.7-4.8-10.7-10.7v-42.7C149.3,324.8,154.1,320,160,320L160,320z
	 M128,234.7h42.7c11.8,0,21.3-9.6,21.3-21.3s-9.6-21.3-21.3-21.3H128c-11.8,0-21.3,9.6-21.3,21.3S116.2,234.7,128,234.7z M128,149.3
	h42.7c11.8,0,21.3-9.6,21.3-21.3s-9.6-21.3-21.3-21.3H128c-11.8,0-21.3,9.6-21.3,21.3S116.2,149.3,128,149.3z"/>
</svg>
