<?xml version="1.0" encoding="utf-8"?>
<!-- Generator: Adobe Illustrator 27.0.0, SVG Export Plug-In . SVG Version: 6.00 Build 0)  -->
<svg version="1.1" id="Layer_1" xmlns="http://www.w3.org/2000/svg" xmlns:xlink="http://www.w3.org/1999/xlink" x="0px" y="0px"
	 viewBox="0 0 512 512" style="enable-background:new 0 0 512 512;" xml:space="preserve">
<style type="text/css">
	.st0{fill:#FFFFFF;}
</style>
<path class="st0" d="M510.7,140.6l-18.8,93.7c-10,49.7-54,85.8-104.5,85.8H143.6c9,25.2,32.6,42.7,60.4,42.7h201.4
	c11.7,0,21.3,9.6,21.3,21.3c0,11.7-9.6,21.3-21.3,21.3H203.9c-54,0-99.6-40.5-106-94.3L68.5,61.4C67.2,50.8,58,42.7,47.4,42.7h-26
	C9.6,42.7,0,33.1,0,21.3S9.6,0,21.3,0h26c32.4,0,59.7,24.3,63.6,56.5l0.9,7.5H192c11.7,0,21.3,9.6,21.3,21.3s-9.6,21.3-21.3,21.3
	h-75.1L137,277.3h250.5c30.3,0,56.7-21.5,62.7-51.4l18.8-93.7c1.3-6.2-0.4-12.8-4.5-17.7c-4.1-4.9-10-7.9-16.4-7.9h-85.3
	c-11.7,0-21.3-9.6-21.3-21.3S350.9,64,362.7,64H448c19.2,0,37.3,8.5,49.5,23.5C509.7,102.4,514.6,121.8,510.7,140.6z M149.3,426.7
	c-23.5,0-42.7,19.2-42.7,42.7s19.2,42.7,42.7,42.7s42.7-19.2,42.7-42.7S172.8,426.7,149.3,426.7z M362.7,426.7
	c-23.5,0-42.7,19.2-42.7,42.7s19.2,42.7,42.7,42.7s42.7-19.2,42.7-42.7S386.1,426.7,362.7,426.7z M197.8,154.7
	c-8.1,8.5-7.5,22.2,1.1,30.1l33.3,31.1c12.6,12.6,29,18.8,45.4,18.8c16.4,0,32.4-6.2,44.6-18.3l33.9-31.6c8.5-8.1,9-21.5,1.1-30.1
	c-8.1-8.5-21.5-9.2-30.1-1.1l-28.2,26.2V21.3c0-11.7-9.6-21.3-21.3-21.3s-21.3,9.6-21.3,21.3v158.5l-28.2-26.2
	c-8.5-8.1-22.2-7.5-30.1,1.1L197.8,154.7z"/>
</svg>
