<svg id="Layer_1" data-name="Layer 1" xmlns="http://www.w3.org/2000/svg" viewBox="0 0 512 565"><defs><style>.cls-1{fill:#fff;}</style></defs><title>order-affiliate-icon</title><path class="cls-1" d="M510.74,191.65l-18.8,93.7c-10,49.7-54,85.8-104.5,85.8H143.64a63.92,63.92,0,0,0,60.4,42.7h201.4a21.3,21.3,0,1,1,0,42.6H203.94a106.87,106.87,0,0,1-106-94.3l-29.4-249.7a21.43,21.43,0,0,0-21.1-18.7h-26a21.35,21.35,0,0,1-.1-42.7h26a64.16,64.16,0,0,1,63.6,56.5l.9,7.5H192a21.3,21.3,0,1,1,0,42.6h-75.1L137,328.35h250.5a64.09,64.09,0,0,0,62.7-51.4l18.8-93.7a21.06,21.06,0,0,0-4.5-17.7,21.42,21.42,0,0,0-16.4-7.9h-85.3a21.3,21.3,0,0,1-.1-42.6H448a64,64,0,0,1,62.7,76.6Zm-361.4,286.1a42.7,42.7,0,1,0,42.7,42.7A42.81,42.81,0,0,0,149.34,477.75Zm213.4,0a42.7,42.7,0,1,0,42.7,42.7A42.81,42.81,0,0,0,362.74,477.75Z"/><path class="cls-1" d="M351.86,172.33a61.45,61.45,0,0,0-31.15,8.43l-26.1-26.1V123.83a61.82,61.82,0,1,0-34,0v31.6l-22.91,26.94a61.76,61.76,0,1,0,22.48,26.07l18.44-21.69,18.57,18.57a61.83,61.83,0,1,0,54.69-33ZM203.93,206.44a27.72,27.72,0,1,1-27.72,27.72A27.76,27.76,0,0,1,203.93,206.44ZM277.6,92.11a27.72,27.72,0,1,1,27.72-27.72A27.75,27.75,0,0,1,277.6,92.11Zm74.26,169.77a27.72,27.72,0,1,1,27.72-27.72A27.74,27.74,0,0,1,351.86,261.88Z"/></svg>