<?xml version="1.0" encoding="utf-8"?>
<!-- Generator: Adobe Illustrator 27.0.0, SVG Export Plug-In . SVG Version: 6.00 Build 0)  -->
<svg version="1.1" id="Layer_1" xmlns="http://www.w3.org/2000/svg" xmlns:xlink="http://www.w3.org/1999/xlink" x="0px" y="0px"
	 viewBox="0 0 512 512" style="enable-background:new 0 0 512 512;" xml:space="preserve">
<style type="text/css">
	.st0{fill:#FFFFFF;}
</style>
<path class="st0" d="M496.4,192.6c-12.2-14.1-29.9-22-48.4-22h-1.9C435.4,74.9,353.9,0,255.4,0S75.1,74.9,64.4,170.7h-1.1
	c-18.6,0-36.3,8.1-48.4,22C2.8,206.7-2.6,225.3,0,243.6l22.6,158.3c9,62.7,63.4,109.9,126.7,109.9H362
	c63.4,0,117.8-47.1,126.7-109.9l22.6-158.3C513.9,225.3,508.6,206.7,496.4,192.6z M255.4,42.7c75.1,0,137.4,55.7,147.8,128H107.5
	C118,98.3,180.3,42.7,255.4,42.7L255.4,42.7z M469.1,237.7l-22.6,158.3c-6,41.8-42.2,73.2-84.5,73.2H149.3
	c-42.2,0-78.5-31.6-84.5-73.2L42.2,237.7c-0.9-6.2,0.9-12.2,4.9-17.1c4.1-4.7,9.8-7.5,16.2-7.5H448c6.2,0,11.9,2.6,16,7.3
	c4.1,4.7,6,10.9,4.9,17.1L469.1,237.7z"/>
</svg>
