<svg id="Layer_1" data-name="Layer 1" xmlns="http://www.w3.org/2000/svg" viewBox="0 0 512 565"><defs><style>.cls-1{fill:#fff;}</style></defs><title>order-seller-icon</title><path class="cls-1" d="M510.42,193.65l-18.8,93.7c-10,49.7-54,85.8-104.5,85.8H143.32a63.92,63.92,0,0,0,60.4,42.7h201.4a21.3,21.3,0,1,1,0,42.6H203.62a106.87,106.87,0,0,1-106-94.3l-29.4-249.7a21.43,21.43,0,0,0-21.1-18.7h-26a21.35,21.35,0,0,1-.1-42.7H47a64.16,64.16,0,0,1,63.6,56.5l.9,7.5h80.2a21.3,21.3,0,1,1,0,42.6h-75.1l20.1,170.7h250.5a64.09,64.09,0,0,0,62.7-51.4l18.8-93.7a21.06,21.06,0,0,0-4.5-17.7,21.42,21.42,0,0,0-16.4-7.9h-85.3a21.3,21.3,0,0,1-.1-42.6h85.3a64,64,0,0,1,62.7,76.6ZM149,479.75a42.7,42.7,0,1,0,42.7,42.7A42.81,42.81,0,0,0,149,479.75Zm213.4,0a42.7,42.7,0,1,0,42.7,42.7A42.81,42.81,0,0,0,362.42,479.75Z"/><path class="cls-1" d="M381.76,245.56V252a21.31,21.31,0,0,1-42.62,0v-6.42a61.89,61.89,0,0,0-123.78,0V252a21.28,21.28,0,0,1-42.56,0v-6.42a104.48,104.48,0,1,1,209,0Z"/><path class="cls-1" d="M277.28.3a66.09,66.09,0,1,0,66.09,66.1A66.17,66.17,0,0,0,277.28.3Zm0,89.55a23.47,23.47,0,1,1,23.47-23.46A23.49,23.49,0,0,1,277.28,89.85Z"/></svg>