<?xml version="1.0" encoding="utf-8"?>
<!-- Generator: Adobe Illustrator 27.0.0, SVG Export Plug-In . SVG Version: 6.00 Build 0)  -->
<svg version="1.1" id="Layer_1" xmlns="http://www.w3.org/2000/svg" xmlns:xlink="http://www.w3.org/1999/xlink" x="0px" y="0px"
	 viewBox="0 0 512 512" style="enable-background:new 0 0 512 512;" xml:space="preserve">
<style type="text/css">
	.st0{fill:#FFFFFF;}
</style>
<path class="st0" d="M491.1,187.5c-12.6-11.5-29-17.3-46.3-16.6c-17.1,0.9-32.9,8.3-44.6,20.9l-68.7,75.3
	c-11.7-19.4-33.1-32.4-57.4-32.4h-82.3v-21.3h8.1c30.9,0,55.9-25.2,55.9-55.9c0-27.5-19.6-50.8-46.7-55.3l-70.2-11.7
	c-6.4-1.1-11.1-6.6-11.1-13.2c0-7.3,6-13.2,13.2-13.2h50.8c11.7,0,21.3,9.6,21.3,21.3h42.7c0-35.2-28.8-64-64-64V0h-42.7v21.3H141
	c-30.9,0-55.9,25.2-55.9,55.9c0,27.5,19.6,50.8,46.7,55.3l70.2,11.7c6.4,1.1,11.1,6.6,11.1,13.2c0,7.3-6,13.2-13.2,13.2h-50.8
	c-11.7,0-21.3-9.6-21.3-21.3H85.1c0,35.2,28.8,64,64,64v21.3H64c-35.2,0-64,28.8-64,64V448c0,35.2,28.8,64,64,64h222.9l208.9-234.5
	c23.3-26.2,21.1-66.6-4.7-90.2V187.5z M464,249.4L267.9,469.5H64c-11.7,0-21.3-9.6-21.3-21.3V298.9c0-11.7,9.6-21.3,21.3-21.3h210.3
	c13.4,0,24.3,10.9,24.3,24.3c0,11.9-9,22.4-20.9,24.1l-110.1,15.8l6,42.2l110.1-15.8c25.2-3.6,45.4-21.1,53.5-43.9l94.5-103.7
	c3.8-4.3,9.2-6.8,14.9-7c5.8,0,11.3,1.7,15.6,5.5c8.7,7.9,9.4,21.5,1.5,30.3H464z"/>
</svg>
