<?xml version="1.0" encoding="utf-8"?>
<!-- Generator: Adobe Illustrator 27.0.0, SVG Export Plug-In . SVG Version: 6.00 Build 0)  -->
<svg version="1.1" id="Layer_1" xmlns="http://www.w3.org/2000/svg" xmlns:xlink="http://www.w3.org/1999/xlink" x="0px" y="0px"
	 viewBox="0 0 589.2 671.3" style="enable-background:new 0 0 589.2 671.3;" xml:space="preserve">
<style type="text/css">
	.st0{fill:#FFFFFF;}
</style>
<path class="st0" d="M496.8,302.2l-28.4-60.3c-7.5-15.6-20.8-27.5-37-33.1l-132.6-44.7c-30.3-10.2-63-10.2-93.2,0L73.3,208.8
	C57,214.3,43.6,226.3,36.2,242l-27,57.7c-18.2,30.5-8.5,70.2,21.6,88.6c3.5,2.1,7.2,3.9,11,5.4v134.7c0,45.9,28.9,86.7,71.9,101.3
	l91.8,31c30.2,10.1,62.9,10.1,93.1,0l91.9-31.1c43-14.4,72-55.2,71.9-101.1l0.1-134.8c17.8-6.3,31.8-20.3,38.3-38.2
	C507.7,337.2,505.8,317.2,496.8,302.2L496.8,302.2z M219.1,204.5c21.6-7.3,45-7.3,66.6,0l89.4,30.2l-122.6,41.7l-122.7-41.6
	L219.1,204.5z M46.2,319.9l27.9-59.3c1,0.5,148.4,50.6,148.4,50.6l-34.1,69.5c-5.1,8.5-15.3,12.4-24.7,9.3L56.9,353.9
	c-6.2-2.1-11.2-7-13.4-13.2C41.1,334.4,41.8,327.5,46.2,319.9L46.2,319.9z M127,589.2c-25.8-8.7-43.2-33.2-43.2-60.8l0.1-120.5
	l66.6,22.5c28.3,9.6,58.8-1.9,74.9-29.2l5.8-11.9l-0.1,234.3c-4.1-0.9-8.2-2-12.2-3.3L127,589.2L127,589.2z M377.4,589.2l-91.9,31.1
	c-4,1.3-8.1,2.4-12.2,3.3l0.1-234.6l6.7,13.7c11.3,19.3,31.7,31.1,53.9,31.1c6.9,0,13.7-1.1,20.2-3.3l66.5-22.5l-0.1,120.6
	C420.5,556.1,403.1,580.5,377.4,589.2L377.4,589.2z M461.5,340.8c-2.2,6.1-7,10.8-13,12.8L340.8,390c-9.2,3.1-19.6-0.7-23.9-7.8
	l-34.8-70.9c0,0,147.5-50.2,148.4-50.7l29.3,61.9C463.1,328,463.7,334.7,461.5,340.8L461.5,340.8z"/>
<path class="st0" d="M426.4,157.7c-8,8.5-7.4,22.2,1.1,30.1l32.8,31.1c12.4,12.6,28.6,18.8,44.8,18.8s32-6.2,44-18.3l33.4-31.6
	c8.4-8.1,8.9-21.5,1.1-30.1c-8-8.5-21.2-9.2-29.7-1.1l-27.8,26.2V24.3c0-11.7-9.5-21.3-21-21.3c-11.5,0-21,9.6-21,21.3v158.5
	l-27.8-26.2c-8.4-8.1-21.9-7.5-29.7,1.1L426.4,157.7z"/>
</svg>
