<svg id="Layer_1" data-name="Layer 1" xmlns="http://www.w3.org/2000/svg" viewBox="0 0 589.17 671.28"><defs><style>.cls-1{fill:#fff;}</style></defs><title>product-seller-icon</title><path class="cls-1" d="M503.71,305.18l-28.8-60.3a64.81,64.81,0,0,0-37.5-33.1L303,167.08a149.74,149.74,0,0,0-94.5,0l-134.2,44.7A64.53,64.53,0,0,0,36.71,245l-27.4,57.7a64.57,64.57,0,0,0,33.1,94v134.7a106.71,106.71,0,0,0,72.9,101.3l93.1,31a150.37,150.37,0,0,0,94.4,0l93.2-31.1a106.36,106.36,0,0,0,72.9-101.1l.1-134.8a63.56,63.56,0,0,0,38.8-38.2c6.9-18.3,5-38.3-4.1-53.3Zm-281.6-97.7a106.76,106.76,0,0,1,67.5,0l90.6,30.2-124.3,41.7-124.4-41.6,90.6-30.3ZM46.81,322.88l28.3-59.3c1,.5,150.5,50.6,150.5,50.6L191,383.68a21.54,21.54,0,0,1-25,9.3l-108.3-36.1a21.73,21.73,0,0,1-13.6-13.2c-2.4-6.3-1.7-13.2,2.7-20.8Zm82,269.3A64,64,0,0,1,85,531.38l.1-120.5,67.5,22.5c28.7,9.6,59.6-1.9,75.9-29.2l5.9-11.9-.1,234.3a107.94,107.94,0,0,1-12.4-3.3l-93.1-31.1Zm253.8,0-93.2,31.1a107.94,107.94,0,0,1-12.4,3.3l.1-234.6,6.8,13.7a63.55,63.55,0,0,0,54.6,31.1,66.56,66.56,0,0,0,20.5-3.3l67.4-22.5-.1,120.6a63.88,63.88,0,0,1-43.7,60.6Zm85.3-248.4a21,21,0,0,1-13.2,12.8L345.51,393c-9.3,3.1-19.9-.7-24.2-7.8L286,314.28s149.5-50.2,150.5-50.7l29.7,61.9a21.42,21.42,0,0,1,1.7,18.3Z"/><path class="cls-1" d="M589.17,245.26v6.42a21.31,21.31,0,0,1-42.62,0v-6.42a61.89,61.89,0,0,0-123.78,0v6.42a21.28,21.28,0,1,1-42.56,0v-6.42a104.48,104.48,0,1,1,209,0Z"/><path class="cls-1" d="M484.69,0a66.09,66.09,0,1,0,66.09,66.1A66.17,66.17,0,0,0,484.69,0Zm0,89.55a23.47,23.47,0,1,1,23.47-23.46A23.49,23.49,0,0,1,484.69,89.55Z"/></svg>