<svg xmlns="http://www.w3.org/2000/svg" viewBox="0 0 308.15 200.53"><defs><style>.cls-1{fill:#fff;}</style></defs><title>sheeping</title><g id="Layer_2" data-name="Layer 2"><g id="Layer_1-2" data-name="Layer 1"><path class="cls-1" d="M301.07,101.58Q278,76.31,255.51,50.5a17.55,17.55,0,0,0-14.44-6.39c-13,.19-26-.07-39,.13-3.84.06-5.24-1-5.16-5,.18-10.32.17-4.66-.31-15C196.08,12.47,186.74-.38,170.15,0,145.34.6,120.51.17,95.69.17c-25.32,0-44.64.08-70,0C15,.07,7.21,4.79,3.25,14.44a46.31,46.31,0,0,0-3.1,17C-.08,79.38,0,111.35,0,159.33c0,1.67,0,3.34.13,5,.81,9.31,6.38,14.52,15.69,14.58,10.16.06,14.33-.12,24.48.16A6.23,6.23,0,0,1,45,182c5.05,11.66,14.74,18.75,26.57,18.49,12.65-.27,21.23-6.58,26.25-18.17.65-1.5,2.91-3.28,4.44-3.29q64.46-.26,128.93,0a6.26,6.26,0,0,1,4.59,3.15c5.11,11.4,13.4,18.24,26.15,18.29s21.37-6.48,26.31-18c1.06-2.45,2.16-3.59,5-3.7,10.34-.4,14.73-5.06,14.77-15.36.06-14.5-.28-29,.14-43.48C308.36,112.61,306,107,301.07,101.58Zm-229.66,89a17.82,17.82,0,0,1-17.83-17.68,17.91,17.91,0,1,1,35.82-.34A17.76,17.76,0,0,1,71.41,190.59ZM149.35,79.21c-5,4.92-10.18,9.62-14.85,14.81a9.88,9.88,0,0,0-2.16,6.89c.72,6.61,2.11,13.15,3.33,19.7.93,5,0,9.36-4.35,12.39-4.18,2.91-8.46,2.24-12.71-.08-5.86-3.18-11.83-6.15-17.61-9.46a6.6,6.6,0,0,0-7.36-.07c-6.37,3.62-12.8,7.18-19.44,10.25-8,3.67-15.73-1.43-15.66-11.11,1.13-6.36,2.32-13.93,3.85-21.43.64-3.12.09-5.31-2.34-7.49-4.95-4.45-9.67-9.16-14.41-13.84-3.5-3.46-5.76-7.41-3.9-12.55,1.77-4.89,5.78-6.51,10.52-7.15,6.27-.85,12.5-2,18.79-2.63,3.84-.36,5.89-2,7.41-5.48C81.07,46,84.14,40.28,87,34.45c2.14-4.33,5.31-7.37,10.4-7.34,4.87,0,7.94,3,10,7.13,3,6,6.06,11.87,8.79,17.94,1.46,3.24,3.43,4.84,7,5.22,6.62.68,13.19,1.88,19.79,2.79,4.65.63,8.27,2.67,9.84,7.29S152.65,76,149.35,79.21ZM262.45,190.6a17.89,17.89,0,0,1-18.32-17.78,18.24,18.24,0,0,1,18.13-18.06A17.89,17.89,0,0,1,280,172.63,17.7,17.7,0,0,1,262.45,190.6Zm35.67-68.67c-.27,13.64-.11,27.3-.1,41,0,2.78-.08,5.39-3.73,6s-4.69-1.23-5.59-4.5C285.54,153,274,144.71,262,144.74a27.66,27.66,0,0,0-26.47,19.84c-1,3.45-2.31,4.47-5.73,4.4-9.49-.22-19-.17-28.47,0-3.18.05-4.38-.91-4.38-4.25q.15-53.2,0-106.41c0-3.4,1.32-4.21,4.43-4.18,13.32.12,26.64,0,40,.07,4.68,0,8.12,2.94,12.23,10.48H234.5c-11.24,0-15.69,4.49-15.72,15.76q0,10.49,0,21c.06,10.49,4.46,15,14.83,15,19.65,0,39.3.15,58.94-.09C297,116.25,298.21,117.55,298.12,121.93Z"/></g></g></svg>