<?xml version="1.0" encoding="utf-8"?>
<!-- Generator: Adobe Illustrator 27.0.0, SVG Export Plug-In . SVG Version: 6.00 Build 0)  -->
<svg version="1.1" id="Layer_1" xmlns="http://www.w3.org/2000/svg" xmlns:xlink="http://www.w3.org/1999/xlink" x="0px" y="0px"
	 viewBox="0 0 512 512" style="enable-background:new 0 0 512 512;" xml:space="preserve">
<style type="text/css">
	.st0{fill:#FFFFFF;}
</style>
<path class="st0" d="M426.7,256c-26.5,0-51.5,12.3-67.7,33.4l-1.5-0.6c18.1-56.1-12.7-116.2-68.7-134.3c-19.2-6.2-39.9-6.8-59.5-1.8
	l-1.9-3.7c35.2-31.3,38.3-85.2,7-120.3s-85.2-38.3-120.3-7s-38.3,85.2-7,120.3c20.6,23.2,52.1,33.3,82.4,26.5l1.6,2.9
	c-44.3,34-54.8,96.3-24.2,142.9L126.6,352c-41.3-22.8-93.2-7.8-116,33.4s-7.8,93.2,33.4,116c41.3,22.8,93.2,7.8,116-33.4
	c15-27.1,14.1-60.3-2.4-86.6l39.2-36.7c44.6,29.8,104.3,21.8,139.5-18.6l6,2.5c-7,46.6,25.1,90.1,71.7,97c46.6,7,90.1-25.1,97-71.7
	c7-46.6-25.1-90.1-71.7-97C435.1,256.3,430.9,256,426.7,256z M128,85.3c0-23.6,19.1-42.7,42.7-42.7s42.7,19.1,42.7,42.7
	S194.2,128,170.7,128S128,108.9,128,85.3z M85.3,469.3c-23.6,0-42.7-19.1-42.7-42.7c0-23.6,19.1-42.7,42.7-42.7s42.7,19.1,42.7,42.7
	C128,450.2,108.9,469.3,85.3,469.3z M256,320c-35.3-0.1-63.9-28.8-63.9-64.1c0-21.9,11.3-42.2,29.7-53.9l8.7-4.6
	c32.4-14.1,70.1,0.7,84.2,33.2c14.1,32.4-0.7,70.1-33.2,84.2C273.5,318.2,264.8,320,256,320z M426.7,384
	c-23.6,0-42.7-19.1-42.7-42.7c0-23.6,19.1-42.7,42.7-42.7c23.6,0,42.7,19.1,42.7,42.7C469.3,364.9,450.2,384,426.7,384z"/>
</svg>
