<?xml version="1.0" encoding="UTF-8"?>
<svg id="Layer_2" data-name="Layer 2" xmlns="http://www.w3.org/2000/svg" viewBox="0 0 30.62 30.48">
  <defs>
    <style>
      .cls-1, .cls-2 {
        fill: #fff;
      }

      .cls-2 {
        stroke: #fff;
        stroke-miterlimit: 10;
        stroke-width: 1.2px;
      }
    </style>
  </defs>
  <g id="Layer_2-2" data-name="Layer 2">
    <g id="Layer_1-2" data-name="Layer 1-2">
      <g>
        <path class="cls-1" d="M30.36,12.09l-.82-1.72c-.21-.44-.6-.79-1.07-.94l-3.83-1.27c-.87-.29-1.83-.29-2.7,0l-3.83,1.27c-.47,.16-.86,.5-1.07,.95l-.78,1.65c-.29,.48-.35,1.06-.15,1.59,.19,.51,.59,.91,1.1,1.09v3.84c0,1.31,.84,2.47,2.08,2.89l2.66,.88c.43,.15,.89,.22,1.35,.22s.91-.07,1.35-.22l2.66-.89c1.24-.41,2.08-1.57,2.08-2.88v-3.84c.52-.18,.92-.58,1.11-1.09,.2-.52,.14-1.09-.12-1.52h-.02Zm-12.72,1.47c-.18-.06-.32-.2-.39-.38s-.05-.38,.08-.59l.81-1.69,4.29,1.44-.99,1.98c-.15,.24-.45,.35-.71,.27,0,0-3.09-1.03-3.09-1.03Zm5.04,7.69c-.12-.03-.24-.05-.35-.09l-2.66-.89c-.75-.25-1.25-.95-1.25-1.73v-3.44l1.93,.64c.82,.27,1.7-.05,2.16-.83l.17-.34v6.68Zm-2.93-11.09l2.58-.86c.62-.21,1.3-.21,1.93,0l2.58,.86-3.54,1.19s-3.55-1.19-3.55-1.19Zm8.41,8.38c0,.78-.5,1.48-1.25,1.73l-2.66,.89c-.12,.04-.23,.07-.35,.09v-6.69l.2,.39c.34,.56,.93,.89,1.56,.89,.19,0,.39-.03,.58-.09l1.92-.64v3.44h0Zm1.18-5.37c-.06,.17-.2,.31-.38,.37l-3.11,1.04c-.27,.09-.57-.02-.69-.22l-1.01-2.02s4.26-1.43,4.29-1.45l.85,1.77c.09,.16,.11,.35,.05,.52h0Z"/>
        <path class="cls-2" d="M16.5,21.55l-.68,.06c-.17,.02-.34,.02-.51,.02-3.5-.04-6.33-2.89-6.33-6.39s2.83-6.35,6.33-6.39c.17,0,.34,0,.51,.02l.68,.06h.14V.64l-.59-.03c-.22,0-.44,0-.67,0h-.14C7.17,.6,.6,7.17,.6,15.24s6.57,14.64,14.65,14.64h.13c.22,0,.45,0,.67-.02l.59-.03v-8.3h-.14v.02ZM1.97,15.24C1.97,7.89,7.93,1.91,15.26,1.84V7.61h-.02c-4.21,0-7.63,3.42-7.63,7.63s3.42,7.63,7.63,7.63h.02v5.77c-7.34-.07-13.29-6.05-13.29-13.4Z"/>
      </g>
    </g>
  </g>
</svg>