<?xml version="1.0" encoding="utf-8"?>
<!-- Generator: Adobe Illustrator 27.0.0, SVG Export Plug-In . SVG Version: 6.00 Build 0)  -->
<svg version="1.1" id="Layer_1" xmlns="http://www.w3.org/2000/svg" xmlns:xlink="http://www.w3.org/1999/xlink" x="0px" y="0px"
	 viewBox="0 0 512 512" style="enable-background:new 0 0 512 512;" xml:space="preserve">
<style type="text/css">
	.st0{fill:#FFFFFF;}
</style>
<path class="st0" d="M448,512c-35.3,0-64-28.7-64-64V277.3c0-11.8-9.6-21.3-21.3-21.3H149.3c-11.8,0-21.3,9.6-21.3,21.3V448
	c0,35.3-28.7,64-64,64S0,483.3,0,448V207.4c0-35.5,17.6-68.6,47-88.4L196.3,18.2c36.2-24.4,83.1-24.4,119.3,0L465,119
	c29.4,19.9,47,52.9,47,88.4V448C512,483.3,483.3,512,448,512z M149.3,213.3h213.3c35.3,0,64,28.7,64,64V448
	c0,11.8,9.6,21.3,21.3,21.3s21.3-9.6,21.3-21.3V207.4c0-21.3-10.5-41.2-28.2-53.1L291.8,53.6c-21.8-14.7-49.8-14.7-71.6,0
	L70.9,154.4c-17.7,11.9-28.2,31.7-28.2,53.1V448c0,11.8,9.6,21.3,21.3,21.3s21.3-9.6,21.3-21.3V277.3
	C85.3,242,114,213.3,149.3,213.3z M234.7,490.7V448c0-11.8-9.5-21.3-21.3-21.3H192c-11.8,0-21.3,9.6-21.3,21.3v42.7
	c0,11.8,9.5,21.3,21.3,21.3h21.3C225.1,512,234.7,502.4,234.7,490.7z M234.7,362.7V320c0-11.8-9.5-21.3-21.3-21.3H192
	c-11.8,0-21.3,9.6-21.3,21.3v42.7c0,11.8,9.5,21.3,21.3,21.3h21.3C225.1,384,234.7,374.4,234.7,362.7z M341.3,490.7V448
	c0-11.8-9.5-21.3-21.3-21.3h-21.3c-11.8,0-21.3,9.6-21.3,21.3v42.7c0,11.8,9.5,21.3,21.3,21.3H320
	C331.8,512,341.3,502.4,341.3,490.7z"/>
</svg>
